{
.appVersion = "3133";
.formatVersion = 3;
DisplayStrings = (
"čĉċğǧĝġġḡĥĳĩj/jacute/jacute ĵṁńňņṅṅŕřŗśšşŝșŭǔǘǚǜǖūůũỹỹ/ncommaaccent.loclMAH ½¾⅜⅝µ`ˆ",
"A©®49°
Alphabet™",
Ll,
"Ø",
"aŁater
aLater
l",
"FŁ
FL
łater
later",
"Ð
Đ
data
đata",
"ģ",
"¯̄́Ṓ",
"Ɖ",
"˘̆̀Ằ",
"̒",
"́",
"Ꞌlꞌ",
S
);
axes = (
{
name = Weight;
tag = wght;
},
{
name = Italic;
tag = ital;
}
);
customParameters = (
{
name = fsType;
value = (
);
},
{
name = "Enforce Compatibility Check";
value = 1;
},
{
name = "Variable Font Origin";
value = "8CC24B71-6632-46E7-AD4C-7A03FCA973DC";
},
{
name = "gasp Table";
value = {
};
},
{
name = "Axis Mappings";
value = {
ital = {
0 = 0;
1 = 1;
};
wght = {
100 = 30;
200 = 43;
300 = 54;
400 = 70;
500 = 84;
600 = 104;
700 = 122;
800 = 138;
900 = 150;
};
};
},
{
name = panose;
value = (
2,
11,
10,
4,
4,
2,
0,
0,
2,
3
);
},
{
name = "Use Typo Metrics";
value = 1;
},
{
name = "Export morx Table";
value = 1;
}
);
date = "2020-03-28 06:10:06 +0000";
familyName = Urbanist;
featurePrefixes = (
{
automatic = 1;
code = "languagesystem DFLT dflt;

languagesystem latn dflt;
languagesystem latn AZE;
languagesystem latn CRT;
languagesystem latn KAZ;
languagesystem latn TAT;
languagesystem latn TRK;
languagesystem latn ROM;
languagesystem latn MOL;
languagesystem latn MAH;
languagesystem latn NLD;
";
name = Languagesystems;
}
);
features = (
{
automatic = 1;
code = "feature locl;
feature subs;
feature sinf;
feature sups;
feature frac;
feature ordn;
";
tag = aalt;
},
{
automatic = 1;
code = "lookup ccmp_Other_1 {
	@CombiningTopAccents = [acutecomb brevecomb caroncomb circumflexcomb dieresiscomb dotaccentcomb gravecomb hungarumlautcomb macroncomb ringcomb tildecomb];
	@CombiningNonTopAccents = [cedillacomb dotbelowcomb ogonekcomb];
	sub [i j]' @CombiningTopAccents by [idotless jdotless];
	sub [i j]' @CombiningNonTopAccents @CombiningTopAccents by [idotless jdotless];
} ccmp_Other_1;
";
tag = ccmp;
},
{
automatic = 1;
code = "lookup locl_noScript_0 {
	language MAH;

glyphs = (
{
glyphname = A;
kernLeft = A;
kernRight = A;
lastChange = "2022-05-07 00:44:13 +0000";
layers = (
{
anchors = (
{
name = bottom;
pos = (757,0);
},
{
name = ogonek;
pos = (1434,0);
},
{
name = top;
pos = (757,1400);
}
);
hints = (
{
horizontal = 1;
origin = (0,0);
target = up;
type = BottomGhost;
},
{
horizontal = 1;
origin = (0,2);
target = (1,2);
type = Stem;
},
{
horizontal = 1;
origin = (0,7);
target = down;
type = TopGhost;
}
);
layerId = "10BC12B3-5274-42E3-B5BC-F74F362F0DF4";
shapes = (
{
closed = 1;
nodes = (
(80,0,l),
(398,0,l),
(478,220,l),
(1036,220,l),
(1116,0,l),
(1434,0,l),
(926,1400,l),
(588,1400,l)
);
},
{
closed = 1;
nodes = (
(756,984,l),
(926,520,l),
(588,520,l)
);
}
);
width = 1514;
},
{
anchors = (
{
name = bottom;
pos = (636,0);
},
{
name = ogonek;
pos = (1192,0);
},
{
name = top;
pos = (636,1400);
}
);
hints = (
{
horizontal = 1;
origin = (0,0);
target = up;
type = BottomGhost;
},
{
horizontal = 1;
origin = (0,2);
target = (1,2);
type = Stem;
},
{
horizontal = 1;
origin = (0,7);
target = (1,0);
type = Stem;
}
);
layerId = "9AF1F7D9-E035-453E-B2A8-46DE370997D0";
shapes = (
{
closed = 1;
nodes = (
(80,0,l),
(144,0,l),
(268,340,l),
(1004,340,l),
(1128,0,l),
(1192,0,l),
(682,1400,l),
(590,1400,l)
);
},
{
closed = 1;
nodes = (
(636,1350,l),
(982,400,l),
(290,400,l)
);
}
);
width = 1272;
}
);
unicode = 65;
},
{
glyphname = AE;
kernLeft = A;
kernRight = E;
lastChange = "2022-05-07 00:44:13 +0000";
layers = (
{
anchors = (
{
name = bottom;
pos = (855,0);
},
{
name = top;
pos = (1099,1400);
}
);
hints = (
{
horizontal = 1;
origin = (0,15);
target = (0,6);
type = Stem;
},
{
horizontal = 1;
origin = (0,7);
target = (0,10);
type = Stem;
},
{
horizontal = 1;
origin = (0,14);
target = (1,0);
type = Stem;
},
{
horizontal = 1;
origin = (0,1);
target = (1,3);
type = Stem;
},
{
origin = (0,3);
target = (0,6);
type = Stem;
}
);
layerId = "10BC12B3-5274-42E3-B5BC-F74F362F0DF4";
shapes = (
{
closed = 1;
nodes = (
(398,0,l),
(478,220,l),
(858,220,l),
(858,0,l),
(1610,0,l),
(1610,300,l),
(1158,300,l),
(1158,550,l),
(1514,550,l),
(1514,850,l),
(1158,850,l),
(1158,1100,l),
(1610,1100,l),
(1610,1400,l),
(588,1400,l),
(80,0,l)
);
},
{
closed = 1;
nodes = (
(798,1100,l),
(858,1100,l),
(858,520,l),
(588,520,l)
);
}
);
width = 1710;
},
{
anchors = (
{
name = bottom;
pos = (787,0);
},
{
name = top;
pos = (1032,1400);
}
);
hints = (
{
horizontal = 1;
origin = (0,15);
target = (0,6);
type = Stem;
},
{
horizontal = 1;
origin = (0,1);
target = (1,3);
type = Stem;
},
{
horizontal = 1;
origin = (0,7);
target = (0,10);
type = Stem;
},
{
horizontal = 1;
origin = (0,14);
target = (1,0);
type = Stem;
},
{
origin = (0,3);
target = (0,6);
type = Stem;
}
);
layerId = "9AF1F7D9-E035-453E-B2A8-46DE370997D0";
shapes = (
{
closed = 1;
nodes = (
(144,0,l),
(268,340,l),
(782,340,l),
(782,0,l),
(1474,0,l),
(1474,60,l),
(842,60,l),
(842,670,l),
(1378,670,l),
(1378,730,l),
(842,730,l),
(842,1340,l),
(1474,1340,l),
(1474,1400,l),
(590,1400,l),
(80,0,l)
);
},
{
closed = 1;
nodes = (
(634,1340,l),
(782,1340,l),
(782,400,l),
(290,400,l)
);
}
);
width = 1574;
}
);
metricLeft = A;
metricRight = E;
unicode = 198;
},
{
glyphname = B;
kernLeft = H;
kernRight = B;
lastChange = "2022-05-07 00:44:13 +0000";
layers = (
{
anchors = (
{
name = bottom;
pos = (603,0);
},
{
name = top;
pos = (603,1400);
}
);
hints = (
{
horizontal = 1;
place = (0, 254);
place = (0, 254);
type = Stem;
},
{
horizontal = 1;
place = (625, 250);
place = (625, 250);
type = Stem;
},
{
horizontal = 1;
place = (1400, 256);
place = (1400, 256);
type = Stem;
},
{
place = (120, 300);
place = (120, 300);
type = Stem;
},
{
place = (760, 300);
place = (760, 300);
type = Stem;
},
{
place = (860, 266);
place = (860, 266);
type = Stem;
}
);
layerId = "10BC12B3-5274-42E3-B5BC-F74F362F0DF4";
shapes = (
{
closed = 1;
nodes = (
(726,0,ls),
(947,0,o),
(1126,179,o),
(1126,400,cs),
(1126,574,o),
(1015,723,o),
(859,777,c),
(964,833,o),
(1036,943,o),
(1036,1070,cs),
(1036,1252,o),
(888,1400,o),
(706,1400,cs),
(120,1400,l),
(120,0,l)
);
},
{
closed = 1;
nodes = (
(419,625,l),
(675,625,ls),
(777,625,o),
(860,542,o),
(860,436,cs),
(860,333,o),
(777,250,o),
(675,250,cs),
(419,250,l)
);
},
{
closed = 1;
nodes = (
(419,1150,l),
(626,1150,ls),
(700,1150,o),
(760,1090,o),
(760,1010,cs),
(760,935,o),
(700,875,o),
(626,875,cs),
(419,875,l)
);
}
);
width = 1206;
},
{
anchors = (
{
name = bottom;
pos = (535,0);
},
{
name = top;
pos = (535,1400);
}
);
hints = (
{
horizontal = 1;
place = (0, 60);
place = (0, 60);
type = Stem;
},
{
horizontal = 1;
place = (740, 60);
place = (740, 60);
type = Stem;
},
{
horizontal = 1;
place = (1340, 60);
place = (1340, 60);
type = Stem;
},
{
place = (120, 60);
place = (120, 60);
type = Stem;
},
{
place = (930, 60);
place = (930, 60);
type = Stem;
},
{
place = (852, 60);
place = (852, 60);
type = Stem;
}
);
layerId = "9AF1F7D9-E035-453E-B2A8-46DE370997D0";
shapes = (
{
closed = 1;
nodes = (
(590,0,ls),
(811,0,o),
(990,179,o),
(990,400,cs),
(990,572,o),
(882,718,o),
(730,775,c),
(838,829,o),
(912,941,o),
(912,1070,cs),
(912,1252,o),
(764,1400,o),
(582,1400,cs),
(120,1400,l),
(120,0,l)
);
},
{
closed = 1;
nodes = (
(180,740,l),
(590,740,ls),
(773,740,o),
(930,594,o),
(930,400,cs),
(930,205,o),
(772,60,o),
(590,60,cs),
(180,60,l)
);
},
{
closed = 1;
nodes = (
(180,1340,l),
(582,1340,ls),
(732,1340,o),
(852,1219,o),
(852,1070,cs),
(852,918,o),
(729,800,o),
(582,800,cs),
(180,800,l)
);
}
);
width = 1070;
}
);
metricLeft = H;
unicode = 66;
},
{
glyphname = C;
kernLeft = O;
kernRight = C;
lastChange = "2022-05-07 08:19:27 +0000";
layers = (
{
anchors = (
{
name = bottom;
pos = (768,0);
},
{
name = top;
pos = (768,1400);
}
);
hints = (
{
horizontal = 1;
origin = (0,25);
target = (0,6);
type = Stem;
},
{
horizontal = 1;
origin = (0,19);
target = (0,12);
type = Stem;
},
{
origin = (0,22);
target = (0,9);
type = Stem;
}
);
layerId = "10BC12B3-5274-42E3-B5BC-F74F362F0DF4";
shapes = (
{
closed = 1;
nodes = (
(994,-26,o),
(1192,88,o),
(1318,262,c),
(1050,408,l),
(980,326,o),
(880,274,o),
(768,274,cs),
(554,274,o),
(380,466,o),
(380,700,cs),
(380,936,o),
(554,1126,o),
(768,1126,cs),
(880,1126,o),
(980,1074,o),
(1050,994,c),
(1318,1138,l),
(1192,1312,o),
(994,1426,o),
(768,1426,cs),
(388,1426,o),
(80,1102,o),
(80,700,cs),
(80,300,o),
(388,-26,o),
(768,-26,cs)
);
}
);
width = 1418;
},
{
anchors = (
{
name = bottom;
pos = (768,0);
},
{
name = top;
pos = (768,1400);
}
);
hints = (
{
horizontal = 1;
origin = (0,25);
target = (0,6);
type = Stem;
},
{
horizontal = 1;
origin = (0,19);
target = (0,12);
type = Stem;
},
{
origin = (0,22);
target = (0,9);
type = Stem;
}
);
layerId = "9AF1F7D9-E035-453E-B2A8-46DE370997D0";
shapes = (
{
closed = 1;
nodes = (
(994,-26,o),
(1192,86,o),
(1318,262,c),
(1266,290,l),
(1156,138,o),
(972,34,o),
(768,34,cs),
(422,34,o),
(140,332,o),
(140,700,cs),
(140,1058,o),
(416,1366,o),
(768,1366,cs),
(962,1366,o),
(1152,1266,o),
(1266,1108,c),
(1318,1136,l),
(1192,1312,o),
(994,1426,o),
(768,1426,cs),
(388,1426,o),
(80,1100,o),
(80,700,cs),
(80,298,o),
(388,-26,o),
(768,-26,cs)
);
}
);
width = 1418;
}
);
metricLeft = O;
unicode = 67;
},
{
glyphname = D;
kernLeft = H;
kernRight = O;
lastChange = "2022-05-07 00:44:13 +0000";
layers = (
{
anchors = (
{
name = bottom;
pos = (652,0);
},
{
name = center;
pos = (672,700);
},
{
name = top;
pos = (652,1400);
}
);
hints = (
{
horizontal = 1;
origin = (0,8);
target = (1,8);
type = Stem;
},
{
horizontal = 1;
origin = (0,7);
target = (1,0);
type = Stem;
},
{
origin = (0,8);
target = (1,8);
type = Stem;
},
{
origin = (1,4);
target = (0,3);
type = Stem;
}
);
layerId = "10BC12B3-5274-42E3-B5BC-F74F362F0DF4";
shapes = (
{
closed = 1;
nodes = (
(584,0,ls),
(970,0,o),
(1284,314,o),
(1284,700,cs),
(1284,1086,o),
(970,1400,o),
(584,1400,cs),
(120,1400,l),
(120,0,l)
);
},
{
closed = 1;
nodes = (
(420,1100,l),
(584,1100,ls),
(802,1100,o),
(984,920,o),
(984,700,cs),
(984,478,o),
(800,300,o),
(584,300,cs),
(420,300,l)
);
}
);
width = 1344;
},
{
anchors = (
{
name = bottom;
pos = (672,0);
},
{
name = center;
pos = (671,700);
},
{
name = top;
pos = (652,1400);
}
);
hints = (
{
horizontal = 1;
origin = (0,8);
target = (1,8);
type = Stem;
},
{
horizontal = 1;
origin = (0,7);
target = (1,0);
type = Stem;
},
{
origin = (0,8);
target = (1,8);
type = Stem;
},
{
origin = (1,4);
target = (0,3);
type = Stem;
}
);
layerId = "9AF1F7D9-E035-453E-B2A8-46DE370997D0";
shapes = (
{
closed = 1;
nodes = (
(582,0,ls),
(970,0,o),
(1282,314,o),
(1282,700,cs),
(1282,1086,o),
(970,1400,o),
(582,1400,cs),
(120,1400,l),
(120,0,l)
);
},
{
closed = 1;
nodes = (
(180,1340,l),
(582,1340,ls),
(936,1340,o),
(1222,1054,o),
(1222,700,cs),
(1222,346,o),
(938,60,o),
(582,60,cs),
(180,60,l)
);
}
);
width = 1342;
}
);
metricLeft = H;
unicode = 68;
},
{
glyphname = Eth;
kernLeft = H;
kernRight = O;
lastChange = "2022-05-07 08:19:25 +0000";
layers = (
{
hints = (
{
horizontal = 1;
origin = (0,12);
target = (1,12);
type = Stem;
},
{
horizontal = 1;
origin = (0,10);
target = (0,9);
type = Stem;
},
{
horizontal = 1;
origin = (0,7);
target = (1,4);
type = Stem;
},
{
origin = (0,12);
target = (1,12);
type = Stem;
},
{
origin = (1,8);
target = (0,3);
type = Stem;
}
);
layerId = "10BC12B3-5274-42E3-B5BC-F74F362F0DF4";
shapes = (
{
closed = 1;
nodes = (
(702,0,ls),
(1088,0,o),
(1402,314,o),
(1402,700,cs),
(1402,1086,o),
(1088,1400,o),
(702,1400,cs),
(240,1400,l),
(240,900,l),
(100,900,l),
(100,600,l),
(240,600,l),
(240,0,l)
);
},
{
closed = 1;
nodes = (
(540,600,l),
(778,600,l),
(778,900,l),
(540,900,l),
(540,1100,l),
(702,1100,ls),
(922,1100,o),
(1102,920,o),
(1102,700,cs),
(1102,480,o),
(922,300,o),
(702,300,cs),
(540,300,l)
);
}
);
width = 1462;
},
{
hints = (
{
horizontal = 1;
origin = (0,12);
target = (1,12);
type = Stem;
},
{
horizontal = 1;
origin = (0,10);
target = (0,9);
type = Stem;
},
{
horizontal = 1;
origin = (0,7);
target = (1,4);
type = Stem;
},
{
origin = (0,12);
target = (1,12);
type = Stem;
},
{
origin = (1,8);
target = (0,3);
type = Stem;
}
);
layerId = "9AF1F7D9-E035-453E-B2A8-46DE370997D0";
shapes = (
{
closed = 1;
nodes = (
(692,0,ls),
(1078,0,o),
(1392,314,o),
(1392,700,cs),
(1392,1086,o),
(1078,1400,o),
(692,1400,cs),
(228,1400,l),
(228,780,l),
(100,780,l),
(100,720,l),
(228,720,l),
(228,0,l)
);
},
{
closed = 1;
nodes = (
(288,720,l),
(686,720,l),
(686,780,l),
(288,780,l),
(288,1340,l),
(692,1340,ls),
(1036,1340,o),
(1332,1060,o),
(1332,700,cs),
(1332,354,o),
(1052,60,o),
(692,60,cs),
(288,60,l)
);
}
);
width = 1452;
}
);
metricLeft = "=D-20";
metricRight = D;
unicode = 208;
},
{
glyphname = E;
kernLeft = H;
kernRight = E;
lastChange = "2022-05-07 00:44:13 +0000";
layers = (
{
anchors = (
{
name = bottom;
pos = (556,0);
},
{
name = ogonek;
pos = (910,0);
},
{
name = top;
pos = (556,1400);
},
{
name = topleft;
pos = (20,1400);
}
);
hints = (
{
horizontal = 1;
origin = (0,11);
target = (0,2);
type = Stem;
},
{
horizontal = 1;
origin = (0,3);
target = (0,6);
type = Stem;
},
{
horizontal = 1;
origin = (0,10);
target = (0,7);
type = Stem;
},
{
origin = (0,11);
target = (0,2);
type = Stem;
}
);
layerId = "10BC12B3-5274-42E3-B5BC-F74F362F0DF4";
shapes = (
{
closed = 1;
nodes = (
(1012,0,l),
(1012,300,l),
(420,300,l),
(420,600,l),
(876,600,l),
(876,900,l),
(420,900,l),
(420,1100,l),
(1012,1100,l),
(1012,1400,l),
(120,1400,l),
(120,0,l)
);
}
);
width = 1112;
},
{
anchors = (
{
name = bottom;
pos = (526,0);
},
{
name = ogonek;
pos = (823,0);
},
{
name = top;
pos = (526,1400);
},
{
name = topleft;
pos = (20,1400);
}
);
hints = (
{
horizontal = 1;
origin = (0,11);
target = (0,2);
type = Stem;
},
{
horizontal = 1;
origin = (0,3);
target = (0,6);
type = Stem;
},
{
horizontal = 1;
origin = (0,10);
target = (0,7);
type = Stem;
},
{
origin = (0,11);
target = (0,2);
type = Stem;
}
);
layerId = "9AF1F7D9-E035-453E-B2A8-46DE370997D0";
shapes = (
{
closed = 1;
nodes = (
(952,0,l),
(952,60,l),
(180,60,l),
(180,720,l),
(836,720,l),
(836,780,l),
(180,780,l),
(180,1340,l),
(952,1340,l),
(952,1400,l),
(120,1400,l),
(120,0,l)
);
}
);
width = 1052;
}
);
metricLeft = H;
unicode = 69;
},
{
glyphname = F;
kernLeft = H;
kernRight = F;
lastChange = "2022-05-07 00:44:13 +0000";
layers = (
{
anchors = (
{
name = bottom;
pos = (486,0);
},
{
name = top;
pos = (486,1400);
}
);
hints = (
{
horizontal = 1;
origin = (0,9);
target = up;
type = BottomGhost;
},
{
horizontal = 1;
origin = (0,1);
target = (0,4);
type = Stem;
},
{
horizontal = 1;
origin = (0,8);
target = (0,5);
type = Stem;
},
{
origin = (0,9);
target = (0,0);
type = Stem;
}
);
layerId = "10BC12B3-5274-42E3-B5BC-F74F362F0DF4";
shapes = (
{
closed = 1;
nodes = (
(420,0,l),
(420,600,l),
(856,600,l),
(856,900,l),
(420,900,l),
(420,1100,l),
(952,1100,l),
(952,1400,l),
(120,1400,l),
(120,0,l)
);
}
);
width = 972;
},
{
anchors = (
{
name = bottom;
pos = (476,0);
},
{
name = top;
pos = (476,1400);
}
);
hints = (
{
horizontal = 1;
origin = (0,9);
target = up;
type = BottomGhost;
},
{
horizontal = 1;
origin = (0,1);
target = (0,4);
type = Stem;
},
{
horizontal = 1;
origin = (0,8);
target = (0,5);
type = Stem;
},
{
origin = (0,9);
target = (0,0);
type = Stem;
}
);
layerId = "9AF1F7D9-E035-453E-B2A8-46DE370997D0";
shapes = (
{
closed = 1;
nodes = (
(180,0,l),
(180,720,l),
(836,720,l),
(836,780,l),
(180,780,l),
(180,1340,l),
(932,1340,l),
(932,1400,l),
(120,1400,l),
(120,0,l)
);
}
);
width = 952;
}
);
metricLeft = H;
unicode = 70;
},
{
glyphname = G;
kernLeft = O;
kernRight = O;
lastChange = "2022-05-07 08:19:24 +0000";
layers = (
{
anchors = (
{
name = bottom;
pos = (769,0);
},
{
name = top;
pos = (769,1400);
}
);
hints = (
{
horizontal = 1;
origin = (0,27);
target = (0,8);
type = Stem;
},
{
horizontal = 1;
origin = (0,4);
target = (0,3);
type = Stem;
},
{
horizontal = 1;
origin = (0,21);
target = (0,14);
type = Stem;
},
{
origin = (0,24);
target = (0,11);
type = Stem;
}
);
layerId = "10BC12B3-5274-42E3-B5BC-F74F362F0DF4";
shapes = (
{
closed = 1;
nodes = (
(1164,-26,o),
(1476,322,o),
(1456,740,c),
(914,740,l),
(914,480,l),
(1102,480,l),
(1020,338,o),
(894,274,o),
(772,274,cs),
(556,274,o),
(380,460,o),
(380,696,cs),
(380,952,o),
(570,1126,o),
(770,1126,cs),
(868,1126,o),
(968,1084,o),
(1050,992,c),
(1318,1136,l),
(1166,1338,o),
(968,1424,o),
(774,1424,cs),
(418,1424,o),
(80,1130,o),
(80,702,cs),
(80,304,o),
(376,-26,o),
(768,-26,cs)
);
}
);
width = 1537;
},
{
anchors = (
{
name = bottom;
pos = (768,0);
},
{
name = top;
pos = (770,1400);
}
);
hints = (
{
horizontal = 1;
origin = (0,27);
target = (0,8);
type = Stem;
},
{
horizontal = 1;
origin = (0,4);
target = (0,3);
type = Stem;
},
{
horizontal = 1;
origin = (0,21);
target = (0,14);
type = Stem;
},
{
origin = (0,24);
target = (0,11);
type = Stem;
}
);
layerId = "9AF1F7D9-E035-453E-B2A8-46DE370997D0";
shapes = (
{
closed = 1;
nodes = (
(1130,-26,o),
(1432,272,o),
(1456,642,c),
(916,642,l),
(916,582,l),
(1388,582,l),
(1342,282,o),
(1084,34,o),
(770,34,cs),
(422,34,o),
(140,336,o),
(140,700,cs),
(140,1058,o),
(418,1366,o),
(770,1366,cs),
(960,1366,o),
(1146,1272,o),
(1266,1108,c),
(1320,1138,l),
(1194,1312,o),
(994,1426,o),
(770,1426,cs),
(388,1426,o),
(80,1100,o),
(80,700,cs),
(80,300,o),
(388,-26,o),
(770,-26,cs)
);
}
);
width = 1536;
}
);
metricLeft = O;
metricRight = O;
unicode = 71;
},
{
glyphname = H;
kernLeft = H;
kernRight = H;
lastChange = "2022-05-07 00:44:13 +0000";
layers = (
{
anchors = (
{
name = bottom;
pos = (668,0);
},
{
name = center;
pos = (668,700);
},
{
name = top;
pos = (668,1400);
},
{
name = topleft;
pos = (20,1400);
}
);
hints = (
{
horizontal = 1;
origin = (0,4);
target = up;
type = BottomGhost;
},
{
horizontal = 1;
origin = (0,6);
target = (0,1);
type = Stem;
},
{
horizontal = 1;
origin = (0,3);
target = down;
type = TopGhost;
},
{
origin = (0,4);
target = (0,5);
type = Stem;
},
{
origin = (0,8);
target = (0,9);
type = Stem;
}
);
layerId = "10BC12B3-5274-42E3-B5BC-F74F362F0DF4";
shapes = (
{
closed = 1;
nodes = (
(916,900,l),
(420,900,l),
(420,1400,l),
(120,1400,l),
(120,0,l),
(420,0,l),
(420,600,l),
(916,600,l),
(916,0,l),
(1216,0,l),
(1216,1400,l),
(916,1400,l)
);
}
);
width = 1336;
},
{
anchors = (
{
name = bottom;
pos = (607,0);
},
{
name = center;
pos = (607,700);
},
{
name = top;
pos = (607,1400);
},
{
name = topleft;
pos = (20,1400);
}
);
hints = (
{
horizontal = 1;
origin = (0,4);
target = up;
type = BottomGhost;
},
{
horizontal = 1;
origin = (0,6);
target = (0,1);
type = Stem;
},
{
horizontal = 1;
origin = (0,3);
target = down;
type = TopGhost;
},
{
origin = (0,4);
target = (0,5);
type = Stem;
},
{
origin = (0,8);
target = (0,9);
type = Stem;
}
);
layerId = "9AF1F7D9-E035-453E-B2A8-46DE370997D0";
shapes = (
{
closed = 1;
nodes = (
(1034,780,l),
(180,780,l),
(180,1400,l),
(120,1400,l),
(120,0,l),
(180,0,l),
(180,720,l),
(1034,720,l),
(1034,0,l),
(1094,0,l),
(1094,1400,l),
(1034,1400,l)
);
}
);
width = 1214;
}
);
unicode = 72;
},
{
glyphname = I;
kernLeft = H;
kernRight = H;
lastChange = "2022-05-07 00:44:13 +0000";
layers = (
{
anchors = (
{
name = bottom;
pos = (300,0);
},
{
name = ogonek;
pos = (450,0);
},
{
name = top;
pos = (300,1400);
},
{
name = topleft;
pos = (20,1400);
}
);
hints = (
{
horizontal = 1;
origin = (0,3);
target = up;
type = BottomGhost;
},
{
horizontal = 1;
origin = (0,2);
target = down;
type = TopGhost;
},
{
origin = (0,3);
target = (0,0);
type = Stem;
}
);
layerId = "10BC12B3-5274-42E3-B5BC-F74F362F0DF4";
shapes = (
{
closed = 1;
nodes = (
(450,0,l),
(450,1400,l),
(150,1400,l),
(150,0,l)
);
}
);
width = 600;
},
{
anchors = (
{
name = bottom;
pos = (180,0);
},
{
name = ogonek;
pos = (210,0);
},
{
name = top;
pos = (180,1400);
},
{
name = topleft;
pos = (20,1400);
}
);
hints = (
{
horizontal = 1;
origin = (0,3);
target = up;
type = BottomGhost;
},
{
horizontal = 1;
origin = (0,2);
target = down;
type = TopGhost;
},
{
origin = (0,3);
target = (0,0);
type = Stem;
}
);
layerId = "9AF1F7D9-E035-453E-B2A8-46DE370997D0";
shapes = (
{
closed = 1;
nodes = (
(210,0,l),
(210,1400,l),
(150,1400,l),
(150,0,l)
);
}
);
width = 360;
}
);
unicode = 73;
},
{
glyphname = J;
kernLeft = J;
kernRight = J;
lastChange = "2022-05-07 00:44:13 +0000";
layers = (
{
anchors = (
{
name = bottom;
pos = (467,0);
},
{
name = top;
pos = (664,1400);
}
);
hints = (
{
horizontal = 1;
origin = (0,15);
target = (0,8);
type = Stem;
},
{
horizontal = 1;
origin = (0,4);
target = down;
type = TopGhost;
},
{
origin = (0,5);
target = (0,2);
type = Stem;
}
);
layerId = "10BC12B3-5274-42E3-B5BC-F74F362F0DF4";
shapes = (
{
closed = 1;
nodes = (
(602,-26,o),
(814,186,o),
(814,446,cs),
(814,1400,l),
(514,1400,l),
(514,446,ls),
(514,352,o),
(436,274,o),
(342,274,cs),
(290,274,o),
(254,296,o),
(232,314,c),
(40,84,l),
(124,12,o),
(232,-26,o),
(342,-26,cs)
);
}
);
width = 934;
},
{
anchors = (
{
name = bottom;
pos = (369,0);
},
{
name = top;
pos = (588,1400);
}
);
hints = (
{
horizontal = 1;
origin = (0,15);
target = (0,8);
type = Stem;
},
{
horizontal = 1;
origin = (0,4);
target = down;
type = TopGhost;
},
{
origin = (0,5);
target = (0,2);
type = Stem;
}
);
layerId = "9AF1F7D9-E035-453E-B2A8-46DE370997D0";
shapes = (
{
closed = 1;
nodes = (
(460,-26,o),
(618,152,o),
(618,346,cs),
(618,1400,l),
(558,1400,l),
(558,346,ls),
(558,184,o),
(426,34,o),
(264,34,cs),
(196,34,o),
(130,58,o),
(78,102,c),
(40,56,l),
(104,0,o),
(182,-26,o),
(264,-26,cs)
);
}
);
width = 738;
}
);
unicode = 74;
},
{
glyphname = K;
kernLeft = H;
kernRight = K;
lastChange = "2022-05-07 00:44:13 +0000";
layers = (
{
anchors = (
{
name = bottom;
pos = (615,0);
},
{
name = top;
pos = (615,1400);
}
);
hints = (
{
horizontal = 1;
origin = (0,6);
target = up;
type = BottomGhost;
},
{
horizontal = 1;
origin = (0,5);
target = down;
type = TopGhost;
},
{
origin = (0,6);
target = (0,7);
type = Stem;
}
);
layerId = "10BC12B3-5274-42E3-B5BC-F74F362F0DF4";
shapes = (
{
closed = 1;
nodes = (
(656,740,l),
(1210,1400,l),
(818,1400,l),
(420,924,l),
(420,1400,l),
(120,1400,l),
(120,0,l),
(420,0,l),
(420,458,l),
(460,506,l),
(818,0,l),
(1210,0,l)
);
}
);
width = 1230;
},
{
anchors = (
{
name = bottom;
pos = (492,0);
},
{
name = top;
pos = (492,1400);
}
);
hints = (
{
horizontal = 1;
origin = (0,6);
target = up;
type = BottomGhost;
},
{
horizontal = 1;
origin = (0,5);
target = down;
type = TopGhost;
},
{
origin = (0,6);
target = (0,7);
type = Stem;
}
);
layerId = "9AF1F7D9-E035-453E-B2A8-46DE370997D0";
shapes = (
{
closed = 1;
nodes = (
(378,738,l),
(934,1400,l),
(856,1400,l),
(180,594,l),
(180,1400,l),
(120,1400,l),
(120,0,l),
(180,0,l),
(180,500,l),
(338,690,l),
(848,0,l),
(924,0,l)
);
}
);
width = 984;
}
);
unicode = 75;
},
{
glyphname = L;
kernLeft = H;
kernRight = L;
lastChange = "2022-05-07 00:44:13 +0000";
layers = (
{
anchors = (
{
name = bottom;
pos = (545,0);
},
{
name = center;
pos = (535,700);
},
{
name = top;
pos = (270,1400);
},
{
name = topright;
pos = (674,1102);
}
);
hints = (
{
horizontal = 1;
origin = (0,5);
target = (0,2);
type = Stem;
},
{
horizontal = 1;
origin = (0,4);
target = down;
type = TopGhost;
},
{
origin = (0,5);
target = (0,2);
type = Stem;
}
);
layerId = "10BC12B3-5274-42E3-B5BC-F74F362F0DF4";
shapes = (
{
closed = 1;
nodes = (
(970,0,l),
(970,300,l),
(420,300,l),
(420,1400,l),
(120,1400,l),
(120,0,l)
);
}
);
width = 1070;
},
{
anchors = (
{
name = bottom;
pos = (495,0);
},
{
name = center;
pos = (485,700);
},
{
name = top;
pos = (150,1400);
},
{
name = topright;
pos = (554,1102);
}
);
hints = (
{
horizontal = 1;
origin = (0,5);
target = (0,2);
type = Stem;
},
{
horizontal = 1;
origin = (0,4);
target = down;
type = TopGhost;
},
{
origin = (0,5);
target = (0,2);
type = Stem;
}
);
layerId = "9AF1F7D9-E035-453E-B2A8-46DE370997D0";
shapes = (
{
closed = 1;
nodes = (
(870,0,l),
(870,60,l),
(180,60,l),
(180,1400,l),
(120,1400,l),
(120,0,l)
);
}
);
width = 970;
}
);
metricLeft = H;
unicode = 76;
},
{
glyphname = Lslash;
kernLeft = H;
kernRight = L;
lastChange = "2022-07-09 04:28:12 +0000";
layers = (
{
layerId = "9AF1F7D9-E035-453E-B2A8-46DE370997D0";
shapes = (
{
closed = 1;
nodes = (
(138,1400,l),
(138,687,l),
(-40,584,l),
(-10,532,l),
(138,618,l),
(138,0,l),
(888,0,l),
(888,60,l),
(198,60,l),
(198,652,l),
(626,900,l),
(596,952,l),
(198,722,l),
(198,1400,l)
);
}
);
width = 988;
},
{
layerId = "10BC12B3-5274-42E3-B5BC-F74F362F0DF4";
shapes = (
{
closed = 1;
nodes = (
(199,1400,l),
(199,826,l),
(-40,688,l),
(110,428,l),
(199,479,l),
(199,0,l),
(1049,0,l),
(1049,300,l),
(499,300,l),
(499,652,l),
(931,902,l),
(781,1161,l),
(499,999,l),
(499,1400,l)
);
}
);
width = 1149;
}
);
metricLeft = "=H-160";
metricRight = L;
unicode = 321;
},
{
glyphname = M;
kernLeft = M;
kernRight = M;
lastChange = "2022-05-07 00:44:13 +0000";
layers = (
{
anchors = (
{
name = bottom;
pos = (962,0);
},
{
name = top;
pos = (962,1400);
}
);
hints = (
{
horizontal = 1;
origin = (0,12);
target = up;
type = BottomGhost;
},
{
horizontal = 1;
origin = (0,11);
target = down;
type = TopGhost;
}
);
layerId = "10BC12B3-5274-42E3-B5BC-F74F362F0DF4";
shapes = (
{
closed = 1;
nodes = (
(426,0,l),
(572,756,l),
(858,0,l),
(1066,0,l),
(1352,756,l),
(1498,0,l),
(1804,0,l),
(1532,1400,l),
(1276,1400,l),
(962,574,l),
(648,1400,l),
(392,1400,l),
(120,0,l)
);
}
);
width = 1924;
},
{
anchors = (
{
name = bottom;
pos = (846,0);
},
{
name = top;
pos = (846,1400);
}
);
hints = (
{
horizontal = 1;
origin = (0,12);
target = up;
type = BottomGhost;
},
{
horizontal = 1;
origin = (0,11);
target = down;
type = TopGhost;
}
);
layerId = "9AF1F7D9-E035-453E-B2A8-46DE370997D0";
shapes = (
{
closed = 1;
nodes = (
(180,0,l),
(418,1228,l),
(830,138,l),
(860,138,l),
(1272,1228,l),
(1510,0,l),
(1572,0,l),
(1300,1400,l),
(1274,1400,l),
(846,268,l),
(416,1400,l),
(390,1400,l),
(120,0,l)
);
}
);
width = 1692;
}
);
unicode = 77;
},
{
glyphname = N;
kernLeft = H;
kernRight = H;
lastChange = "2022-05-07 00:44:13 +0000";
layers = (
{
anchors = (
{
name = bottom;
pos = (688,0);
},
{
name = top;
pos = (688,1400);
}
);
hints = (
{
horizontal = 1;
origin = (0,9);
target = up;
type = BottomGhost;
},
{
horizontal = 1;
origin = (0,8);
target = down;
type = TopGhost;
},
{
origin = (0,9);
target = (0,0);
type = Stem;
},
{
origin = (0,6);
target = (0,3);
type = Stem;
}
);
layerId = "10BC12B3-5274-42E3-B5BC-F74F362F0DF4";
shapes = (
{
closed = 1;
nodes = (
(420,0,l),
(420,858,l),
(932,0,l),
(1256,0,l),
(1256,1400,l),
(956,1400,l),
(956,542,l),
(444,1400,l),
(120,1400,l),
(120,0,l)
);
}
);
width = 1376;
},
{
anchors = (
{
name = bottom;
pos = (609,0);
},
{
name = top;
pos = (609,1400);
}
);
hints = (
{
horizontal = 1;
origin = (0,9);
target = up;
type = BottomGhost;
},
{
horizontal = 1;
origin = (0,8);
target = down;
type = TopGhost;
},
{
origin = (0,9);
target = (0,0);
type = Stem;
},
{
origin = (0,6);
target = (0,3);
type = Stem;
}
);
layerId = "9AF1F7D9-E035-453E-B2A8-46DE370997D0";
shapes = (
{
closed = 1;
nodes = (
(180,0,l),
(180,1292,l),
(1034,0,l),
(1098,0,l),
(1098,1400,l),
(1038,1400,l),
(1038,108,l),
(186,1400,l),
(120,1400,l),
(120,0,l)
);
}
);
width = 1218;
}
);
metricLeft = H;
metricRight = H;
unicode = 78;
},
{
glyphname = O;
kernLeft = O;
kernRight = O;
lastChange = "2022-05-07 00:44:13 +0000";
layers = (
{
anchors = (
{
name = bottom;
pos = (770,0);
},
{
name = center;
pos = (770,700);
},
{
name = ogonek;
pos = (1386,10);
},
{
name = top;
pos = (770,1400);
},
{
name = topleft;
pos = (20,1400);
},
{
name = topright;
pos = (1520,1400);
}
);
hints = (
{
horizontal = 1;
origin = (0,11);
target = (1,11);
type = Stem;
},
{
horizontal = 1;
origin = (0,5);
target = (1,5);
type = Stem;
},
{
origin = (0,8);
target = (1,2);
type = Stem;
},
{
origin = (1,8);
target = (0,2);
type = Stem;
}
);
layerId = "10BC12B3-5274-42E3-B5BC-F74F362F0DF4";
shapes = (
{
closed = 1;
nodes = (
(1150,-26,o),
(1460,300,o),
(1460,700,cs),
(1460,1100,o),
(1150,1426,o),
(770,1426,cs),
(390,1426,o),
(80,1100,o),
(80,700,cs),
(80,300,o),
(390,-26,o),
(770,-26,cs)
);
},
{
closed = 1;
nodes = (
(556,274,o),
(380,466,o),
(380,700,cs),
(380,934,o),
(556,1126,o),
(770,1126,cs),
(984,1126,o),
(1160,934,o),
(1160,700,cs),
(1160,466,o),
(984,274,o),
(770,274,cs)
);
}
);
width = 1540;
},
{
anchors = (
{
name = bottom;
pos = (770,0);
},
{
name = center;
pos = (770,700);
},
{
name = ogonek;
pos = (1386,10);
},
{
name = top;
pos = (770,1400);
},
{
name = topleft;
pos = (20,1400);
},
{
name = topright;
pos = (1520,1400);
}
);
hints = (
{
horizontal = 1;
origin = (0,11);
target = (1,11);
type = Stem;
},
{
horizontal = 1;
origin = (0,5);
target = (1,5);
type = Stem;
},
{
origin = (0,8);
target = (1,2);
type = Stem;
},
{
origin = (1,8);
target = (0,2);
type = Stem;
}
);
layerId = "9AF1F7D9-E035-453E-B2A8-46DE370997D0";
shapes = (
{
closed = 1;
nodes = (
(1150,-26,o),
(1460,300,o),
(1460,700,cs),
(1460,1100,o),
(1150,1426,o),
(770,1426,cs),
(390,1426,o),
(80,1100,o),
(80,700,cs),
(80,300,o),
(390,-26,o),
(770,-26,cs)
);
},
{
closed = 1;
nodes = (
(422,34,o),
(140,334,o),
(140,700,cs),
(140,1060,o),
(418,1366,o),
(770,1366,cs),
(1118,1366,o),
(1400,1064,o),
(1400,700,cs),
(1400,340,o),
(1122,34,o),
(770,34,cs)
);
}
);
width = 1540;
}
);
unicode = 79;
},
{
glyphname = Oslash;
kernLeft = O;
kernRight = O;
lastChange = "2022-05-07 08:19:22 +0000";
layers = (
{
anchors = (
{
name = bottom;
pos = (770,0);
},
{
name = top;
pos = (770,1400);
}
);
hints = (
{
horizontal = 1;
origin = (0,3);
target = (2,9);
type = Stem;
},
{
horizontal = 1;
origin = (0,15);
target = (1,5);
type = Stem;
},
{
origin = (0,18);
target = (1,2);
type = Stem;
},
{
origin = (2,6);
target = (0,6);
type = Stem;
}
);
layerId = "10BC12B3-5274-42E3-B5BC-F74F362F0DF4";
shapes = (
{
closed = 1;
nodes = (
(548,14,l),
(618,-12,o),
(692,-26,o),
(770,-26,cs),
(1150,-26,o),
(1460,300,o),
(1460,700,cs),
(1460,906,o),
(1378,1092,o),
(1246,1226,c),
(1332,1372,l),
(1072,1522,l),
(994,1388,l),
(924,1412,o),
(850,1426,o),
(770,1426,cs),
(390,1426,o),
(80,1100,o),
(80,700,cs),
(80,494,o),
(164,308,o),
(294,176,c),
(210,28,l),
(470,-122,l)
);
},
{
closed = 1;
nodes = (
(408,522,o),
(380,608,o),
(380,700,cs),
(380,934,o),
(556,1126,o),
(770,1126,cs),
(794,1126,o),
(818,1124,o),
(840,1120,c),
(454,452,l)
);
},
{
closed = 1;
nodes = (
(748,274,o),
(724,276,o),
(702,282,c),
(1088,948,l),
(1134,878,o),
(1160,792,o),
(1160,700,cs),
(1160,466,o),
(984,274,o),
(770,274,cs)
);
}
);
width = 1540;
},
{
anchors = (
{
name = bottom;
pos = (770,0);
},
{
name = top;
pos = (770,1400);
}
);
hints = (
{
horizontal = 1;
origin = (0,3);
target = (2,9);
type = Stem;
},
{
horizontal = 1;
origin = (0,15);
target = (1,5);
type = Stem;
},
{
origin = (0,18);
target = (1,2);
type = Stem;
},
{
origin = (2,6);
target = (0,6);
type = Stem;
}
);
layerId = "9AF1F7D9-E035-453E-B2A8-46DE370997D0";
shapes = (
{
closed = 1;
nodes = (
(438,64,l),
(538,8,o),
(650,-26,o),
(770,-26,cs),
(1150,-26,o),
(1460,300,o),
(1460,700,cs),
(1460,952,o),
(1338,1174,o),
(1154,1304,c),
(1228,1432,l),
(1176,1462,l),
(1104,1336,l),
(1004,1394,o),
(892,1426,o),
(770,1426,cs),
(390,1426,o),
(80,1100,o),
(80,700,cs),
(80,450,o),
(204,228,o),
(388,96,c),
(314,-32,l),
(366,-62,l)
);
},
{
closed = 1;
nodes = (
(250,270,o),
(140,472,o),
(140,700,cs),
(140,1060,o),
(418,1366,o),
(770,1366,cs),
(880,1366,o),
(984,1336,o),
(1074,1284,c),
(418,150,l)
);
},
{
closed = 1;
nodes = (
(662,34,o),
(558,64,o),
(468,116,c),
(1124,1252,l),
(1290,1130,o),
(1400,928,o),
(1400,700,cs),
(1400,340,o),
(1122,34,o),
(770,34,cs)
);
}
);
width = 1540;
}
);
metricLeft = O;
metricRight = O;
unicode = 216;
},
{
glyphname = OE;
kernLeft = O;
kernRight = E;
lastChange = "2022-05-07 00:44:13 +0000";
layers = (
{
anchors = (
{
name = bottom;
pos = (1048,0);
},
{
name = top;
pos = (1048,1400);
}
);
hints = (
{
horizontal = 1;
origin = (0,24);
target = (1,11);
type = Stem;
},
{
horizontal = 1;
origin = (0,7);
target = (0,10);
type = Stem;
},
{
horizontal = 1;
origin = (0,14);
target = (0,11);
type = Stem;
},
{
horizontal = 1;
origin = (0,3);
target = (0,6);
type = Stem;
},
{
horizontal = 1;
origin = (0,18);
target = (1,5);
type = Stem;
},
{
origin = (0,21);
target = (1,2);
type = Stem;
},
{
origin = (1,8);
target = (0,6);
type = Stem;
}
);
layerId = "10BC12B3-5274-42E3-B5BC-F74F362F0DF4";
shapes = (
{
closed = 1;
nodes = (
(916,-26,o),
(1052,22,o),
(1164,104,c),
(1164,0,l),
(1996,0,l),
(1996,300,l),
(1464,300,l),
(1464,550,l),
(1900,550,l),
(1900,850,l),
(1464,850,l),
(1464,1100,l),
(1996,1100,l),
(1996,1400,l),
(1164,1400,l),
(1164,1296,l),
(1052,1378,o),
(916,1426,o),
(770,1426,cs),
(390,1426,o),
(80,1100,o),
(80,700,cs),
(80,300,o),
(390,-26,o),
(770,-26,cs)
);
},
{
closed = 1;
nodes = (
(556,274,o),
(380,466,o),
(380,700,cs),
(380,934,o),
(556,1126,o),
(770,1126,cs),
(984,1126,o),
(1160,934,o),
(1160,700,cs),
(1160,466,o),
(984,274,o),
(770,274,cs)
);
}
);
width = 2096;
},
{
anchors = (
{
name = bottom;
pos = (1103,0);
},
{
name = top;
pos = (1103,1400);
}
);
hints = (
{
horizontal = 1;
origin = (0,24);
target = (1,11);
type = Stem;
},
{
horizontal = 1;
origin = (0,7);
target = (0,10);
type = Stem;
},
{
horizontal = 1;
origin = (0,14);
target = (0,11);
type = Stem;
},
{
horizontal = 1;
origin = (0,3);
target = (0,6);
type = Stem;
},
{
horizontal = 1;
origin = (0,18);
target = (1,5);
type = Stem;
},
{
origin = (0,21);
target = (1,2);
type = Stem;
},
{
origin = (0,3);
target = (0,6);
type = Stem;
}
);
layerId = "9AF1F7D9-E035-453E-B2A8-46DE370997D0";
shapes = (
{
closed = 1;
nodes = (
(1050,-26,o),
(1292,152,o),
(1400,404,c),
(1400,0,l),
(2106,0,l),
(2106,60,l),
(1460,60,l),
(1460,670,l),
(2010,670,l),
(2010,730,l),
(1460,730,l),
(1460,1340,l),
(2106,1340,l),
(2106,1400,l),
(1400,1400,l),
(1400,996,l),
(1292,1248,o),
(1050,1426,o),
(770,1426,cs),
(390,1426,o),
(80,1100,o),
(80,700,cs),
(80,300,o),
(390,-26,o),
(770,-26,cs)
);
},
{
closed = 1;
nodes = (
(422,34,o),
(140,334,o),
(140,700,cs),
(140,1060,o),
(418,1366,o),
(770,1366,cs),
(1118,1366,o),
(1400,1064,o),
(1400,700,cs),
(1400,340,o),
(1122,34,o),
(770,34,cs)
);
}
);
width = 2206;
}
);
metricLeft = O;
metricRight = E;
unicode = 338;
},
{
glyphname = P;
kernLeft = H;
kernRight = P;
lastChange = "2022-05-07 00:44:13 +0000";
layers = (
{
anchors = (
{
name = bottom;
pos = (570,0);
},
{
name = top;
pos = (570,1400);
}
);
hints = (
{
horizontal = 1;
origin = (0,10);
target = up;
type = BottomGhost;
},
{
horizontal = 1;
origin = (0,1);
target = (1,8);
type = Stem;
},
{
horizontal = 1;
origin = (0,9);
target = (1,0);
type = Stem;
},
{
origin = (0,10);
target = (0,0);
type = Stem;
},
{
origin = (1,4);
target = (0,5);
type = Stem;
}
);
layerId = "10BC12B3-5274-42E3-B5BC-F74F362F0DF4";
shapes = (
{
closed = 1;
nodes = (
(420,0,l),
(420,544,l),
(648,544,ls),
(870,544,o),
(1060,736,o),
(1060,972,cs),
(1060,1204,o),
(878,1400,o),
(648,1400,cs),
(120,1400,l),
(120,0,l)
);
},
{
closed = 1;
nodes = (
(420,1144,l),
(614,1144,ls),
(694,1144,o),
(760,1076,o),
(760,994,cs),
(760,912,o),
(694,844,o),
(614,844,cs),
(420,844,l)
);
}
);
width = 1140;
},
{
anchors = (
{
name = bottom;
pos = (500,0);
},
{
name = top;
pos = (500,1400);
}
);
hints = (
{
horizontal = 1;
origin = (0,10);
target = up;
type = BottomGhost;
},
{
horizontal = 1;
origin = (0,1);
target = (1,8);
type = Stem;
},
{
horizontal = 1;
origin = (0,9);
target = (1,0);
type = Stem;
},
{
origin = (0,10);
target = (0,0);
type = Stem;
},
{
origin = (1,4);
target = (0,5);
type = Stem;
}
);
layerId = "9AF1F7D9-E035-453E-B2A8-46DE370997D0";
shapes = (
{
closed = 1;
nodes = (
(180,0,l),
(180,600,l),
(528,600,ls),
(742,600,o),
(920,770,o),
(920,1000,cs),
(920,1228,o),
(748,1400,o),
(528,1400,cs),
(120,1400,l),
(120,0,l)
);
},
{
closed = 1;
nodes = (
(180,1340,l),
(528,1340,ls),
(710,1340,o),
(860,1196,o),
(860,1000,cs),
(860,804,o),
(710,660,o),
(528,660,cs),
(180,660,l)
);
}
);
width = 1000;
}
);
metricLeft = H;
unicode = 80;
},
{
glyphname = Thorn;
kernLeft = l;
kernRight = o;
lastChange = "2022-05-07 08:21:13 +0000";
layers = (
{
anchors = (
{
name = bottom;
pos = (570,0);
},
{
name = top;
pos = (570,1400);
}
);
hints = (
{
horizontal = 1;
origin = (0,12);
target = up;
type = BottomGhost;
},
{
horizontal = 1;
origin = (0,1);
target = (1,8);
type = Stem;
},
{
horizontal = 1;
origin = (1,0);
target = (0,9);
type = Stem;
},
{
horizontal = 1;
origin = (0,11);
target = down;
type = TopGhost;
},
{
origin = (0,12);
target = (0,0);
type = Stem;
},
{
origin = (1,4);
target = (0,5);
type = Stem;
}
);
layerId = "10BC12B3-5274-42E3-B5BC-F74F362F0DF4";
shapes = (
{
closed = 1;
nodes = (
(420,0,l),
(420,272,l),
(648,272,ls),
(870,272,o),
(1060,464,o),
(1060,700,cs),
(1060,932,o),
(878,1128,o),
(648,1128,cs),
(420,1128,l),
(420,1400,l),
(120,1400,l),
(120,0,l)
);
},
{
closed = 1;
nodes = (
(420,872,l),
(614,872,ls),
(694,872,o),
(760,804,o),
(760,722,cs),
(760,640,o),
(694,572,o),
(614,572,cs),
(420,572,l)
);
}
);
width = 1120;
},
{
anchors = (
{
name = bottom;
pos = (500,0);
},
{
name = top;
pos = (500,1400);
}
);
hints = (
{
horizontal = 1;
origin = (0,12);
target = up;
type = BottomGhost;
},
{
horizontal = 1;
origin = (0,1);
target = (1,8);
type = Stem;
},
{
horizontal = 1;
origin = (1,0);
target = (0,9);
type = Stem;
},
{
horizontal = 1;
origin = (0,11);
target = down;
type = TopGhost;
},
{
origin = (0,12);
target = (0,0);
type = Stem;
},
{
origin = (1,4);
target = (0,5);
type = Stem;
}
);
layerId = "9AF1F7D9-E035-453E-B2A8-46DE370997D0";
shapes = (
{
closed = 1;
nodes = (
(180,0,l),
(180,300,l),
(528,300,ls),
(742,300,o),
(920,470,o),
(920,700,cs),
(920,928,o),
(748,1100,o),
(528,1100,cs),
(180,1100,l),
(180,1400,l),
(120,1400,l),
(120,0,l)
);
},
{
closed = 1;
nodes = (
(180,1040,l),
(528,1040,ls),
(710,1040,o),
(860,896,o),
(860,700,cs),
(860,504,o),
(710,360,o),
(528,360,cs),
(180,360,l)
);
}
);
width = 980;
}
);
metricLeft = H;
metricRight = p;
unicode = 222;
},
{
glyphname = Q;
kernLeft = O;
kernRight = O;
lastChange = "2022-05-07 00:44:13 +0000";
layers = (
{
anchors = (
{
name = bottom;
pos = (792,0);
},
{
name = top;
pos = (792,1400);
}
);
hints = (
{
horizontal = 1;
origin = (0,13);
target = (1,17);
type = Stem;
},
{
horizontal = 1;
origin = (1,5);
target = (0,7);
type = Stem;
},
{
origin = (0,10);
target = (1,2);
type = Stem;
},
{
origin = (1,8);
target = (0,4);
type = Stem;
}
);
layerId = "10BC12B3-5274-42E3-B5BC-F74F362F0DF4";
shapes = (
{
closed = 1;
nodes = (
(1504,160,l),
(1350,314,l),
(1418,428,o),
(1460,562,o),
(1460,708,cs),
(1460,1108,o),
(1150,1434,o),
(770,1434,cs),
(390,1434,o),
(80,1108,o),
(80,708,cs),
(80,306,o),
(390,-18,o),
(770,-18,cs),
(908,-18,o),
(1036,24,o),
(1142,96,c),
(1292,-52,l)
);
},
{
closed = 1;
nodes = (
(556,282,o),
(380,472,o),
(380,708,cs),
(380,942,o),
(556,1134,o),
(770,1134,cs),
(984,1134,o),
(1160,942,o),
(1160,708,cs),
(1160,648,o),
(1148,590,o),
(1126,538,c),
(1052,612,l),
(840,400,l),
(924,316,l),
(876,294,o),
(824,282,o),
(770,282,cs)
);
}
);
width = 1584;
},
{
anchors = (
{
name = bottom;
pos = (769,0);
},
{
name = top;
pos = (769,1400);
}
);
hints = (
{
horizontal = 1;
origin = (0,17);
target = up;
type = BottomGhost;
},
{
horizontal = 1;
origin = (0,7);
target = (1,5);
type = Stem;
},
{
horizontal = 1;
origin = (0,13);
target = (1,17);
type = Stem;
},
{
origin = (0,10);
target = (1,2);
type = Stem;
},
{
origin = (1,8);
target = (0,4);
type = Stem;
}
);
layerId = "9AF1F7D9-E035-453E-B2A8-46DE370997D0";
shapes = (
{
closed = 1;
nodes = (
(1454,32,l),
(1276,208,l),
(1390,338,o),
(1458,510,o),
(1458,700,cs),
(1458,1100,o),
(1150,1426,o),
(770,1426,cs),
(388,1426,o),
(80,1100,o),
(80,700,cs),
(80,300,o),
(388,-26,o),
(770,-26,cs),
(948,-26,o),
(1112,46,o),
(1236,166,c),
(1412,-10,l)
);
},
{
closed = 1;
nodes = (
(424,34,o),
(140,334,o),
(140,700,cs),
(140,1058,o),
(418,1366,o),
(770,1366,cs),
(1114,1366,o),
(1398,1066,o),
(1398,700,cs),
(1398,536,o),
(1340,376,o),
(1234,252,c),
(966,520,l),
(924,476,l),
(1192,208,l),
(1082,98,o),
(924,34,o),
(770,34,cs)
);
}
);
width = 1538;
}
);
unicode = 81;
},
{
glyphname = R;
kernLeft = H;
kernRight = R;
lastChange = "2022-05-07 00:44:13 +0000";
layers = (
{
anchors = (
{
name = bottom;
pos = (633,0);
},
{
name = top;
pos = (524,1400);
}
);
hints = (
{
horizontal = 1;
origin = (0,13);
target = up;
type = BottomGhost;
},
{
horizontal = 1;
origin = (0,1);
target = (1,8);
type = Stem;
},
{
horizontal = 1;
origin = (0,12);
target = (1,0);
type = Stem;
},
{
origin = (0,13);
target = (0,0);
type = Stem;
},
{
origin = (1,4);
target = (0,8);
type = Stem;
}
);
layerId = "10BC12B3-5274-42E3-B5BC-F74F362F0DF4";
shapes = (
{
closed = 1;
nodes = (
(420,0,l),
(420,544,l),
(524,544,l),
(840,0,l),
(1186,0,l),
(854,572,l),
(1004,644,o),
(1100,792,o),
(1100,972,cs),
(1100,1206,o),
(920,1400,o),
(690,1400,cs),
(120,1400,l),
(120,0,l)
);
},
{
closed = 1;
nodes = (
(420,1144,l),
(654,1144,ls),
(734,1144,o),
(800,1076,o),
(800,994,cs),
(800,912,o),
(734,844,o),
(654,844,cs),
(420,844,l)
);
}
);
width = 1266;
},
{
anchors = (
{
name = bottom;
pos = (505,0);
},
{
name = top;
pos = (394,1400);
}
);
hints = (
{
horizontal = 1;
origin = (0,13);
target = up;
type = BottomGhost;
},
{
horizontal = 1;
origin = (0,1);
target = (1,8);
type = Stem;
},
{
horizontal = 1;
origin = (0,12);
target = (1,0);
type = Stem;
},
{
horizontal = 1;
origin = (0,5);
target = (1,8);
type = Stem;
},
{
origin = (0,13);
target = (0,0);
type = Stem;
},
{
origin = (1,4);
target = (0,8);
type = Stem;
}
);
layerId = "9AF1F7D9-E035-453E-B2A8-46DE370997D0";
shapes = (
{
closed = 1;
nodes = (
(180,0,l),
(180,600,l),
(512,600,l),
(860,0,l),
(930,0,l),
(582,602,l),
(780,618,o),
(940,782,o),
(940,1000,cs),
(940,1228,o),
(768,1400,o),
(548,1400,cs),
(120,1400,l),
(120,0,l)
);
},
{
closed = 1;
nodes = (
(180,1340,l),
(548,1340,ls),
(730,1340,o),
(880,1196,o),
(880,1000,cs),
(880,804,o),
(730,660,o),
(548,660,cs),
(180,660,l)
);
}
);
width = 1040;
}
);
metricLeft = H;
unicode = 82;
},
{
glyphname = S;
kernLeft = S;
kernRight = S;
lastChange = "2022-05-07 00:44:13 +0000";
layers = (
{
anchors = (
{
name = bottom;
pos = (715,0);
},
{
name = top;
pos = (632,1400);
}
);
hints = (
{
horizontal = 1;
origin = (0,37);
target = (0,30);
type = Stem;
},
{
horizontal = 1;
origin = (0,18);
target = (0,11);
type = Stem;
},
{
origin = (0,34);
target = (0,8);
type = Stem;
},
{
origin = (0,27);
target = (0,2);
type = Stem;
}
);
layerId = "10BC12B3-5274-42E3-B5BC-F74F362F0DF4";
shapes = (
{
closed = 1;
nodes = (
(918,-26,o),
(1164,150,o),
(1164,412,cs),
(1164,670,o),
(920,808,o),
(632,850,cs),
(506,868,o),
(400,880,o),
(400,988,cs),
(400,1066,o),
(516,1126,o),
(632,1124,cs),
(762,1124,o),
(862,1066,o),
(882,1008,c),
(1164,1110,l),
(1094,1308,o),
(868,1426,o),
(632,1426,cs),
(350,1426,o),
(100,1250,o),
(100,988,cs),
(100,714,o),
(328,594,o),
(632,550,cs),
(744,534,o),
(864,496,o),
(864,412,cs),
(864,330,o),
(752,274,o),
(632,274,cs),
(502,274,o),
(402,334,o),
(382,392,c),
(100,288,l),
(172,92,o),
(396,-26,o),
(632,-26,cs)
);
}
);
width = 1264;
},
{
anchors = (
{
name = bottom;
pos = (663,0);
},
{
name = top;
pos = (599,1400);
}
);
hints = (
{
horizontal = 1;
origin = (0,37);
target = (0,30);
type = Stem;
},
{
horizontal = 1;
origin = (0,18);
target = (0,11);
type = Stem;
},
{
origin = (0,21);
target = (0,8);
type = Stem;
},
{
origin = (0,27);
target = (0,2);
type = Stem;
}
);
layerId = "9AF1F7D9-E035-453E-B2A8-46DE370997D0";
shapes = (
{
closed = 1;
nodes = (
(858,-26,o),
(1088,120,o),
(1088,350,cs),
(1088,576,o),
(856,682,o),
(598,730,cs),
(352,776,o),
(170,826,o),
(170,1042,cs),
(170,1232,o),
(370,1358,o),
(598,1358,cs),
(780,1358,o),
(984,1276,o),
(1040,1118,c),
(1098,1138,l),
(1028,1320,o),
(806,1418,o),
(598,1418,cs),
(340,1418,o),
(110,1272,o),
(110,1042,cs),
(110,790,o),
(320,718,o),
(598,666,cs),
(814,626,o),
(1028,546,o),
(1028,350,cs),
(1028,158,o),
(824,34,o),
(598,34,cs),
(416,34,o),
(212,116,o),
(156,274,c),
(100,252,l),
(160,78,o),
(380,-26,o),
(598,-26,cs)
);
}
);
width = 1198;
}
);
unicode = 83;
},
{
glyphname = Saltillo;
lastChange = "2022-07-09 04:46:09 +0000";
layers = (
{
layerId = "9AF1F7D9-E035-453E-B2A8-46DE370997D0";
shapes = (
{
closed = 1;
nodes = (
(60,1500,l),
(70,603,l),
(110,603,l),
(120,1500,l)
);
}
);
width = 180;
},
{
layerId = "10BC12B3-5274-42E3-B5BC-F74F362F0DF4";
shapes = (
{
closed = 1;
nodes = (
(60,1500,l),
(110,603,l),
(310,603,l),
(360,1500,l)
);
}
);
width = 420;
}
);
unicode = 42891;
},
{
glyphname = Germandbls;
kernLeft = Germandbls;
kernRight = Germandbls;
lastChange = "2022-05-07 00:44:13 +0000";
layers = (
{
anchors = (
{
name = bottom;
pos = (623,0);
},
{
name = top;
pos = (623,1400);
}
);
hints = (
{
horizontal = 1;
origin = (0,37);
target = (0,19);
type = Stem;
},
{
horizontal = 1;
place = (594, 144);
place = (594, 144);
type = Stem;
},
{
horizontal = 1;
origin = (0,33);
target = (0,4);
type = Stem;
},
{
origin = (0,37);
target = (0,0);
type = Stem;
},
{
origin = (0,7);
target = (0,30);
type = Stem;
},
{
origin = (0,15);
target = (0,24);
type = Stem;
}
);
layerId = "10BC12B3-5274-42E3-B5BC-F74F362F0DF4";
shapes = (
{
closed = 1;
nodes = (
(420,0,l),
(420,950,ls),
(420,1058,o),
(508,1144,o),
(594,1144,cs),
(680,1144,o),
(758,1148,o),
(758,1074,cs),
(758,1040,o),
(590,858,o),
(590,704,cs),
(590,594,l),
(672,594,ls),
(776,594,o),
(920,556,o),
(920,424,cs),
(920,292,o),
(776,254,o),
(672,254,cs),
(590,254,l),
(650,0,l),
(704,0,ls),
(936,0,o),
(1186,150,o),
(1186,422,cs),
(1186,586,o),
(1010,770,o),
(832,734,c),
(974,906,o),
(1058,972,o),
(1058,1068,cs),
(1058,1248,o),
(858,1400,o),
(650,1400,cs),
(358,1400,o),
(120,1162,o),
(120,870,cs),
(120,0,l)
);
}
);
width = 1246;
},
{
anchors = (
{
name = bottom;
pos = (535,0);
},
{
name = top;
pos = (535,1400);
}
);
hints = (
{
horizontal = 1;
origin = (0,37);
target = (0,19);
type = Stem;
},
{
horizontal = 1;
origin = (0,11);
target = (0,27);
type = Stem;
},
{
horizontal = 1;
origin = (0,4);
target = (0,33);
type = Stem;
},
{
origin = (0,37);
target = (0,0);
type = Stem;
},
{
origin = (0,7);
target = (0,30);
type = Stem;
},
{
origin = (0,15);
target = (0,24);
type = Stem;
}
);
layerId = "9AF1F7D9-E035-453E-B2A8-46DE370997D0";
shapes = (
{
closed = 1;
nodes = (
(180,0,l),
(180,994,ls),
(180,1184,o),
(332,1338,o),
(522,1338,cs),
(672,1338,o),
(804,1282,o),
(806,1152,cs),
(808,1032,o),
(510,754,o),
(518,694,cs),
(522,662,l),
(588,662,ls),
(754,662,o),
(950,568,o),
(950,364,cs),
(950,156,o),
(756,60,o),
(590,60,cs),
(496,60,l),
(516,0,l),
(590,0,ls),
(788,0,o),
(1010,122,o),
(1010,362,cs),
(1010,588,o),
(802,740,o),
(602,720,c),
(800,992,o),
(876,1070,o),
(876,1152,cs),
(876,1320,o),
(716,1398,o),
(526,1398,cs),
(302,1398,o),
(120,1216,o),
(120,992,cs),
(120,0,l)
);
}
);
width = 1070;
}
);
unicode = 7838;
},
{
glyphname = T;
kernLeft = T;
kernRight = T;
lastChange = "2022-05-07 00:44:13 +0000";
layers = (
{
anchors = (
{
name = bottom;
pos = (630,0);
},
{
name = center;
pos = (630,700);
},
{
name = top;
pos = (630,1400);
}
);
hints = (
{
horizontal = 1;
origin = (0,3);
target = up;
type = BottomGhost;
},
{
horizontal = 1;
origin = (0,0);
target = (0,1);
type = Stem;
},
{
origin = (0,3);
target = (0,4);
type = Stem;
}
);
layerId = "10BC12B3-5274-42E3-B5BC-F74F362F0DF4";
shapes = (
{
closed = 1;
nodes = (
(80,1400,l),
(80,1100,l),
(480,1100,l),
(480,0,l),
(780,0,l),
(780,1100,l),
(1180,1100,l),
(1180,1400,l)
);
}
);
width = 1260;
},
{
anchors = (
{
name = bottom;
pos = (628,0);
},
{
name = center;
pos = (629,700);
},
{
name = top;
pos = (629,1400);
}
);
hints = (
{
horizontal = 1;
origin = (0,3);
target = up;
type = BottomGhost;
},
{
horizontal = 1;
origin = (0,0);
target = (0,1);
type = Stem;
},
{
origin = (0,3);
target = (0,4);
type = Stem;
}
);
layerId = "9AF1F7D9-E035-453E-B2A8-46DE370997D0";
shapes = (
{
closed = 1;
nodes = (
(80,1400,l),
(80,1340,l),
(598,1340,l),
(598,0,l),
(658,0,l),
(658,1340,l),
(1178,1340,l),
(1178,1400,l)
);
}
);
width = 1258;
}
);
unicode = 84;
},
{
glyphname = U;
kernLeft = U;
kernRight = U;
lastChange = "2022-05-07 00:44:13 +0000";
layers = (
{
anchors = (
{
name = bottom;
pos = (689,0);
},
{
name = ogonek;
pos = (862,0);
},
{
name = top;
pos = (689,1400);
},
{
name = topright;
pos = (1358,1400);
}
);
hints = (
{
horizontal = 1;
origin = (0,17);
target = (0,8);
type = Stem;
},
{
horizontal = 1;
origin = (0,13);
target = down;
type = TopGhost;
},
{
origin = (0,14);
target = (0,11);
type = Stem;
},
{
origin = (0,5);
target = (0,2);
type = Stem;
}
);
layerId = "10BC12B3-5274-42E3-B5BC-F74F362F0DF4";
shapes = (
{
closed = 1;
nodes = (
(1026,-26,o),
(1258,246,o),
(1258,584,cs),
(1258,1400,l),
(958,1400,l),
(958,584,ls),
(958,412,o),
(862,274,o),
(690,274,cs),
(520,274,o),
(420,414,o),
(420,584,cs),
(420,1400,l),
(120,1400,l),
(120,584,ls),
(120,246,o),
(354,-26,o),
(690,-26,cs)
);
}
);
width = 1378;
},
{
anchors = (
{
name = bottom;
pos = (650,0);
},
{
name = ogonek;
pos = (739,-16);
},
{
name = top;
pos = (650,1400);
},
{
name = topright;
pos = (1280,1400);
}
);
hints = (
{
horizontal = 1;
origin = (0,17);
target = (0,8);
type = Stem;
},
{
horizontal = 1;
origin = (0,13);
target = down;
type = TopGhost;
},
{
origin = (0,14);
target = (0,11);
type = Stem;
},
{
origin = (0,5);
target = (0,2);
type = Stem;
}
);
layerId = "9AF1F7D9-E035-453E-B2A8-46DE370997D0";
shapes = (
{
closed = 1;
nodes = (
(986,-26,o),
(1180,246,o),
(1180,584,cs),
(1180,1400,l),
(1120,1400,l),
(1120,584,ls),
(1120,288,o),
(958,34,o),
(650,34,cs),
(346,34,o),
(180,284,o),
(180,584,cs),
(180,1400,l),
(120,1400,l),
(120,584,ls),
(120,246,o),
(314,-26,o),
(650,-26,cs)
);
}
);
width = 1300;
}
);
unicode = 85;
},
{
glyphname = V;
kernLeft = W;
kernRight = W;
lastChange = "2022-05-07 00:44:13 +0000";
layers = (
{
anchors = (
{
name = bottom;
pos = (802,0);
},
{
name = top;
pos = (802,1400);
}
);
hints = (
{
horizontal = 1;
origin = (0,6);
target = up;
type = BottomGhost;
},
{
horizontal = 1;
origin = (0,5);
target = down;
type = TopGhost;
}
);
layerId = "10BC12B3-5274-42E3-B5BC-F74F362F0DF4";
shapes = (
{
closed = 1;
nodes = (
(996,0,l),
(1504,1400,l),
(1186,1400,l),
(802,344,l),
(418,1400,l),
(100,1400,l),
(608,0,l)
);
}
);
width = 1604;
},
{
anchors = (
{
name = bottom;
pos = (559,0);
},
{
name = top;
pos = (559,1400);
}
);
hints = (
{
horizontal = 1;
origin = (0,6);
target = up;
type = BottomGhost;
},
{
horizontal = 1;
origin = (0,5);
target = down;
type = TopGhost;
}
);
layerId = "9AF1F7D9-E035-453E-B2A8-46DE370997D0";
shapes = (
{
closed = 1;
nodes = (
(588,0,l),
(1098,1400,l),
(1034,1400,l),
(558,92,l),
(84,1400,l),
(20,1400,l),
(528,0,l)
);
}
);
width = 1118;
}
);
metricLeft = W;
metricRight = W;
unicode = 86;
},
{
glyphname = W;
kernLeft = W;
kernRight = W;
lastChange = "2022-05-07 00:44:13 +0000";
layers = (
{
anchors = (
{
name = bottom;
pos = (980,0);
},
{
name = top;
pos = (980,1400);
}
);
hints = (
{
horizontal = 1;
origin = (0,12);
target = up;
type = BottomGhost;
},
{
horizontal = 1;
origin = (0,11);
target = down;
type = TopGhost;
}
);
layerId = "10BC12B3-5274-42E3-B5BC-F74F362F0DF4";
shapes = (
{
closed = 1;
nodes = (
(796,0,l),
(980,726,l),
(1166,0,l),
(1504,0,l),
(1860,1400,l),
(1550,1400,l),
(1334,552,l),
(1118,1400,l),
(842,1400,l),
(626,552,l),
(410,1400,l),
(100,1400,l),
(458,0,l)
);
}
);
width = 1960;
},
{
anchors = (
{
name = bottom;
pos = (776,0);
},
{
name = top;
pos = (776,1400);
}
);
hints = (
{
horizontal = 1;
origin = (0,12);
target = (0,9);
type = Stem;
},
{
horizontal = 1;
origin = (0,11);
target = down;
type = TopGhost;
}
);
layerId = "9AF1F7D9-E035-453E-B2A8-46DE370997D0";
shapes = (
{
closed = 1;
nodes = (
(456,0,l),
(776,1250,l),
(1096,0,l),
(1176,0,l),
(1532,1400,l),
(1470,1400,l),
(1136,86,l),
(800,1400,l),
(752,1400,l),
(418,86,l),
(82,1400,l),
(20,1400,l),
(378,0,l)
);
}
);
width = 1552;
}
);
unicode = 87;
},
{
glyphname = X;
kernLeft = X;
kernRight = X;
lastChange = "2022-05-07 00:44:13 +0000";
layers = (
{
anchors = (
{
name = bottom;
pos = (758,0);
},
{
name = top;
pos = (758,1400);
}
);
hints = (
{
horizontal = 1;
origin = (0,11);
target = up;
type = BottomGhost;
},
{
horizontal = 1;
origin = (0,9);
target = down;
type = TopGhost;
}
);
layerId = "10BC12B3-5274-42E3-B5BC-F74F362F0DF4";
shapes = (
{
closed = 1;
nodes = (
(432,0,l),
(758,448,l),
(1084,0,l),
(1456,0,l),
(944,704,l),
(1450,1400,l),
(1080,1400,l),
(758,958,l),
(436,1400,l),
(66,1400,l),
(572,704,l),
(60,0,l)
);
}
);
width = 1516;
},
{
anchors = (
{
name = bottom;
pos = (610,0);
},
{
name = top;
pos = (610,1400);
}
);
hints = (
{
horizontal = 1;
origin = (0,11);
target = up;
type = BottomGhost;
},
{
horizontal = 1;
origin = (0,9);
target = down;
type = TopGhost;
}
);
layerId = "9AF1F7D9-E035-453E-B2A8-46DE370997D0";
shapes = (
{
closed = 1;
nodes = (
(136,0,l),
(610,652,l),
(1086,0,l),
(1160,0,l),
(648,704,l),
(1154,1400,l),
(1080,1400,l),
(610,754,l),
(140,1400,l),
(66,1400,l),
(574,704,l),
(60,0,l)
);
}
);
width = 1220;
}
);
unicode = 88;
},
{
glyphname = Y;
kernLeft = Y;
kernRight = Y;
lastChange = "2022-05-07 00:44:13 +0000";
layers = (
{
anchors = (
{
name = bottom;
pos = (696,0);
},
{
name = top;
pos = (696,1400);
},
{
name = topleft;
pos = (20,1400);
}
);
hints = (
{
horizontal = 1;
origin = (0,4);
target = up;
type = BottomGhost;
},
{
horizontal = 1;
origin = (0,2);
target = down;
type = TopGhost;
},
{
origin = (0,4);
target = (0,5);
type = Stem;
}
);
layerId = "10BC12B3-5274-42E3-B5BC-F74F362F0DF4";
shapes = (
{
closed = 1;
nodes = (
(696,956,l),
(414,1400,l),
(60,1400,l),
(546,630,l),
(546,0,l),
(846,0,l),
(846,630,l),
(1332,1400,l),
(978,1400,l)
);
}
);
width = 1392;
},
{
anchors = (
{
name = bottom;
pos = (554,0);
},
{
name = top;
pos = (554,1400);
},
{
name = topleft;
pos = (20,1400);
}
);
hints = (
{
horizontal = 1;
origin = (0,4);
target = up;
type = BottomGhost;
},
{
horizontal = 1;
origin = (0,2);
target = down;
type = TopGhost;
},
{
origin = (0,4);
target = (0,5);
type = Stem;
}
);
layerId = "9AF1F7D9-E035-453E-B2A8-46DE370997D0";
shapes = (
{
closed = 1;
nodes = (
(554,702,l),
(130,1400,l),
(60,1400,l),
(524,636,l),
(524,0,l),
(584,0,l),
(584,636,l),
(1048,1400,l),
(978,1400,l)
);
}
);
width = 1108;
}
);
unicode = 89;
},
{
glyphname = Z;
kernLeft = Z;
kernRight = Z;
lastChange = "2022-05-07 00:44:13 +0000";
layers = (
{
anchors = (
{
name = bottom;
pos = (646,0);
},
{
name = center;
pos = (646,700);
},
{
name = top;
pos = (646,1400);
}
);
hints = (
{
horizontal = 1;
origin = (0,9);
target = (0,8);
type = Stem;
},
{
horizontal = 1;
origin = (0,5);
target = (0,6);
type = Stem;
}
);
layerId = "10BC12B3-5274-42E3-B5BC-F74F362F0DF4";
shapes = (
{
closed = 1;
nodes = (
(1212,0,l),
(1212,300,l),
(486,300,l),
(1212,1100,l),
(1212,1400,l),
(80,1400,l),
(80,1100,l),
(806,1100,l),
(80,300,l),
(80,0,l)
);
}
);
width = 1292;
},
{
anchors = (
{
name = bottom;
pos = (646,0);
},
{
name = center;
pos = (646,700);
},
{
name = top;
pos = (646,1400);
}
);
hints = (
{
horizontal = 1;
origin = (0,9);
target = (0,8);
type = Stem;
},
{
horizontal = 1;
origin = (0,5);
target = (0,6);
type = Stem;
}
);
layerId = "9AF1F7D9-E035-453E-B2A8-46DE370997D0";
shapes = (
{
closed = 1;
nodes = (
(1212,0,l),
(1212,60,l),
(158,60,l),
(1212,1340,l),
(1212,1400,l),
(80,1400,l),
(80,1340,l),
(1134,1340,l),
(80,60,l),
(80,0,l)
);
}
);
width = 1292;
}
);
unicode = 90;
},
{
glyphname = a;
kernLeft = o;
kernRight = n;
lastChange = "2022-05-07 08:20:07 +0000";
layers = (
{
anchors = (
{
name = bottom;
pos = (623,0);
},
{
name = ogonek;
pos = (1138,0);
},
{
name = top;
pos = (623,1000);
}
);
hints = (
{
horizontal = 1;
origin = (0,9);
target = (0,12);
type = Stem;
},
{
horizontal = 1;
origin = (0,16);
target = down;
type = TopGhost;
},
{
horizontal = 1;
origin = (0,3);
target = (0,0);
type = Stem;
},
{
horizontal = 1;
origin = (0,13);
target = up;
type = BottomGhost;
},
{
origin = (0,16);
target = (0,14);
type = Stem;
}
);
layerId = "10BC12B3-5274-42E3-B5BC-F74F362F0DF4";
shapes = (
{
closed = 1;
nodes = (
(852,904,l),
(778,974,o),
(685,1028,o),
(570,1028,cs),
(287,1028,o),
(59,798,o),
(60,514,cs),
(59,216,o),
(300,-26,o),
(598,-26,cs),
(698,-26,o),
(773,20,o),
(823,90,c),
(837,0,l),
(1138,0,l),
(1138,1000,l),
(838,1000,l)
);
},
{
closed = 1;
nodes = (
(468,262,o),
(368,368,o),
(368,500,cs),
(368,632,o),
(465,738,o),
(590,738,cs),
(714,738,o),
(814,632,o),
(814,500,cs),
(814,368,o),
(714,262,o),
(590,262,cs)
);
}
);
width = 1218;
},
{
anchors = (
{
name = bottom;
pos = (582,0);
},
{
name = ogonek;
pos = (1054,0);
},
{
name = top;
pos = (582,1000);
}
);
hints = (
{
horizontal = 1;
origin = (0,9);
target = (1,11);
type = Stem;
},
{
horizontal = 1;
origin = (0,16);
target = down;
type = TopGhost;
},
{
horizontal = 1;
origin = (0,3);
target = (1,5);
type = Stem;
},
{
horizontal = 1;
origin = (0,13);
target = up;
type = BottomGhost;
},
{
origin = (0,6);
target = (1,2);
type = Stem;
},
{
origin = (0,13);
target = (0,14);
type = Stem;
},
{
origin = (1,8);
target = (0,14);
type = Stem;
}
);
layerId = "9AF1F7D9-E035-453E-B2A8-46DE370997D0";
shapes = (
{
closed = 1;
nodes = (
(994,768,l),
(922,924,o),
(780,1028,o),
(586,1028,cs),
(296,1028,o),
(60,792,o),
(60,500,cs),
(60,210,o),
(296,-26,o),
(586,-26,cs),
(780,-26,o),
(922,78,o),
(994,234,c),
(994,0,l),
(1054,0,l),
(1054,1000,l),
(994,1000,l)
);
},
{
closed = 1;
nodes = (
(336,34,o),
(120,238,o),
(120,500,cs),
(120,758,o),
(328,968,o),
(586,968,cs),
(840,968,o),
(990,762,o),
(990,500,cs),
(990,244,o),
(844,34,o),
(586,34,cs)
);
}
);
width = 1134;
}
);
metricLeft = o;
metricRight = n;
unicode = 97;
},
{
glyphname = ae;
kernLeft = ae;
kernRight = e;
lastChange = "2022-05-07 08:19:49 +0000";
layers = (
{
anchors = (
{
name = bottom;
pos = (774,2);
},
{
name = top;
pos = (807,1002);
}
);
hints = (
{
horizontal = 1;
place = (-26, 180);
place = (-26, 180);
type = Stem;
},
{
horizontal = 1;
place = (402, 220);
place = (402, 220);
type = Stem;
},
{
horizontal = 1;
place = (768, 0);
place = (768, 0);
type = Stem;
},
{
horizontal = 1;
place = (1028, -260);
place = (1028, -260);
type = Stem;
},
{
place = (80, 290);
place = (80, 290);
type = Stem;
}
);
layerId = "10BC12B3-5274-42E3-B5BC-F74F362F0DF4";
shapes = (
{
closed = 1;
nodes = (
(543,-26,o),
(702,61,o),
(774,145,c),
(866,40,o),
(997,-26,o),
(1143,-26,cs),
(1343,-26,o),
(1515,98,o),
(1596,276,c),
(1290,347,l),
(1254,303,o),
(1203,274,o),
(1146,274,cs),
(1051,274,o),
(995,329,o),
(967,401,c),
(1634,401,l),
(1692,718,o),
(1465,1028,o),
(1143,1028,cs),
(1014,1028,o),
(896,976,o),
(807,892,c),
(722,980,o),
(602,1028,o),
(476,1028,cs),
(368,1028,o),
(261,997,o),
(171,935,c),
(337,686,l),
(379,714,o),
(428,728,o),
(480,728,cs),
(555,728,o),
(609,682,o),
(631,621,c),
(370,621,ls),
(177,621,o),
(30,470,o),
(30,298,cs),
(30,126,o),
(174,-26,o),
(370,-26,cs)
);
},
{
closed = 1;
nodes = (
(326,234,o),
(290,277,o),
(290,321,cs),
(290,365,o),
(326,401,o),
(370,401,cs),
(630,401,l),
(611,364,o),
(587,331,o),
(558,305,cs),
(508,260,o),
(444,234,o),
(370,234,cs)
);
},
{
closed = 1;
nodes = (
(985,707,o),
(1058,768,o),
(1143,768,cs),
(1229,768,o),
(1302,707,o),
(1331,621,c),
(956,621,l)
);
}
);
width = 1703;
},
{
anchors = (
{
name = bottom;
pos = (788,0);
},
{
name = top;
pos = (801,1000);
}
);
hints = (
{
horizontal = 1;
place = (0, 60);
place = (0, 60);
type = Stem;
},
{
horizontal = 1;
place = (496, 60);
place = (496, 60);
type = Stem;
},
{
horizontal = 1;
place = (994, 60);
place = (994, 60);
type = Stem;
},
{
place = (70, 60);
place = (70, 60);
type = Stem;
},
{
place = (848, 60);
place = (848, 60);
type = Stem;
},
{
place = (1786, 60);
place = (1786, 60);
type = Stem;
},
{
place = (848, 60);
place = (848, 60);
type = Stem;
}
);
layerId = "9AF1F7D9-E035-453E-B2A8-46DE370997D0";
shapes = (
{
closed = 1;
nodes = (
(524,-24,o),
(705,114,o),
(788,321,c),
(857,118,o),
(1042,-26,o),
(1258,-26,cs),
(1458,-26,o),
(1630,98,o),
(1710,276,c),
(1650,290,l),
(1570,130,o),
(1428,34,o),
(1258,34,cs),
(1028,34,o),
(838,220,o),
(818,470,c),
(1756,470,l),
(1750,804,o),
(1544,1028,o),
(1258,1028,cs),
(1054,1028,o),
(878,899,o),
(801,714,c),
(724,900,o),
(554,1028,o),
(352,1028,cs),
(295,1028,o),
(235,1017,o),
(177,994,c),
(208,941,l),
(255,959,o),
(304,968,o),
(352,968,cs),
(608,968,o),
(767,768,o),
(759,531,c),
(307,531,ls),
(131,531,o),
(30,400,o),
(30,250,cs),
(30,83,o),
(151,-24,o),
(315,-24,cs)
);
},
{
closed = 1;
nodes = (
(165,36,o),
(90,138,o),
(90,250,cs),
(90,375,o),
(173,471,o),
(307,471,cs),
(757,471,l),
(754,417,o),
(742,364,o),
(721,314,cs),
(654,156,o),
(503,36,o),
(315,36,cs)
);
},
{
closed = 1;
nodes = (
(834,772,o),
(1020,968,o),
(1258,968,cs),
(1494,968,o),
(1688,764,o),
(1696,530,c),
(818,530,l)
);
}
);
width = 1816;
}
);
metricRight = o;
unicode = 230;
},
{
glyphname = b;
kernLeft = H;
kernRight = o;
lastChange = "2022-05-07 08:20:10 +0000";
layers = (
{
anchors = (
{
name = bottom;
pos = (630,0);
},
{
name = top;
pos = (630,1900);
}
);
hints = (
{
horizontal = 1;
origin = (0,10);
target = (0,7);
type = Stem;
},
{
horizontal = 1;
origin = (0,16);
target = (0,2);
type = Stem;
},
{
horizontal = 1;
origin = (0,5);
target = up;
type = BottomGhost;
},
{
origin = (0,5);
target = (0,6);
type = Stem;
},
{
origin = (0,16);
target = (0,13);
type = Stem;
},
{
origin = (0,5);
target = (0,2);
type = Stem;
}
);
layerId = "10BC12B3-5274-42E3-B5BC-F74F362F0DF4";
shapes = (
{
closed = 1;
nodes = (
(566,1028,o),
(482,978,o),
(420,908,c),
(420,1500,l),
(120,1500,l),
(120,0,l),
(420,0,l),
(420,94,l),
(482,24,o),
(566,-26,o),
(672,-26,cs),
(964,-26,o),
(1200,210,o),
(1200,502,cs),
(1200,792,o),
(964,1028,o),
(672,1028,cs)
);
},
{
closed = 1;
nodes = (
(546,264,o),
(446,370,o),
(446,502,cs),
(446,632,o),
(546,740,o),
(668,740,cs),
(792,740,o),
(892,632,o),
(892,502,cs),
(892,370,o),
(792,264,o),
(668,264,cs)
);
}
);
width = 1260;
},
{
anchors = (
{
name = bottom;
pos = (587,0);
},
{
name = top;
pos = (587,1900);
}
);
hints = (
{
horizontal = 1;
origin = (0,10);
target = (1,11);
type = Stem;
},
{
horizontal = 1;
origin = (0,16);
target = (1,5);
type = Stem;
},
{
horizontal = 1;
origin = (0,5);
target = up;
type = BottomGhost;
},
{
origin = (0,5);
target = (0,6);
type = Stem;
},
{
origin = (1,8);
target = (0,13);
type = Stem;
},
{
origin = (0,5);
target = (1,2);
type = Stem;
}
);
layerId = "9AF1F7D9-E035-453E-B2A8-46DE370997D0";
shapes = (
{
closed = 1;
nodes = (
(394,1028,o),
(252,924,o),
(180,768,c),
(180,1500,l),
(120,1500,l),
(120,0,l),
(180,0,l),
(180,234,l),
(252,78,o),
(394,-26,o),
(588,-26,cs),
(878,-26,o),
(1114,210,o),
(1114,500,cs),
(1114,792,o),
(878,1028,o),
(588,1028,cs)
);
},
{
closed = 1;
nodes = (
(334,34,o),
(184,240,o),
(184,500,cs),
(184,756,o),
(330,968,o),
(588,968,cs),
(838,968,o),
(1054,764,o),
(1054,500,cs),
(1054,244,o),
(846,34,o),
(588,34,cs)
);
}
);
width = 1174;
}
);
metricLeft = H;
metricRight = o;
unicode = 98;
},
{
glyphname = c;
kernLeft = o;
kernRight = c;
lastChange = "2022-05-07 00:44:13 +0000";
layers = (
{
anchors = (
{
name = bottom;
pos = (560,0);
},
{
name = top;
pos = (560,1000);
}
);
hints = (
{
horizontal = 1;
origin = (0,21);
target = (0,2);
type = Stem;
},
{
horizontal = 1;
origin = (0,15);
target = (0,8);
type = Stem;
},
{
origin = (0,18);
target = (0,5);
type = Stem;
}
);
layerId = "10BC12B3-5274-42E3-B5BC-F74F362F0DF4";
shapes = (
{
closed = 1;
nodes = (
(654,294,o),
(608,274,o),
(560,274,cs),
(446,274,o),
(360,382,o),
(360,500,cs),
(360,620,o),
(446,728,o),
(560,728,cs),
(608,728,o),
(654,708,o),
(690,672,c),
(960,818,l),
(868,946,o),
(724,1028,o),
(560,1028,cs),
(284,1028,o),
(60,792,o),
(60,500,cs),
(60,210,o),
(284,-26,o),
(560,-26,cs),
(724,-26,o),
(868,56,o),
(960,182,c),
(690,328,l)
);
}
);
width = 1020;
},
{
anchors = (
{
name = bottom;
pos = (560,0);
},
{
name = top;
pos = (560,1000);
}
);
hints = (
{
horizontal = 1;
origin = (0,21);
target = (0,2);
type = Stem;
},
{
horizontal = 1;
origin = (0,15);
target = (0,8);
type = Stem;
},
{
origin = (0,18);
target = (0,5);
type = Stem;
}
);
layerId = "9AF1F7D9-E035-453E-B2A8-46DE370997D0";
shapes = (
{
closed = 1;
nodes = (
(828,108,o),
(700,34,o),
(560,34,cs),
(318,34,o),
(120,242,o),
(120,500,cs),
(120,754,o),
(312,968,o),
(560,968,cs),
(688,968,o),
(820,904,o),
(906,790,c),
(958,818,l),
(868,946,o),
(722,1028,o),
(560,1028,cs),
(284,1028,o),
(60,792,o),
(60,500,cs),
(60,210,o),
(284,-26,o),
(560,-26,cs),
(722,-26,o),
(868,56,o),
(958,184,c),
(906,212,l)
);
}
);
width = 1018;
}
);
metricLeft = o;
unicode = 99;
},
{
glyphname = d;
kernLeft = o;
kernRight = H;
lastChange = "2022-05-07 08:20:12 +0000";
layers = (
{
anchors = (
{
name = bottom;
pos = (620,0);
},
{
name = center;
pos = (620,500);
},
{
name = top;
pos = (620,1900);
},
{
name = topright;
pos = (1260,1102);
}
);
hints = (
{
horizontal = 1;
origin = (0,9);
target = (1,11);
type = Stem;
},
{
horizontal = 1;
origin = (0,3);
target = (1,5);
type = Stem;
},
{
horizontal = 1;
origin = (0,13);
target = up;
type = BottomGhost;
},
{
origin = (0,6);
target = (1,2);
type = Stem;
},
{
origin = (0,13);
target = (0,14);
type = Stem;
},
{
origin = (1,8);
target = (0,14);
type = Stem;
}
);
layerId = "10BC12B3-5274-42E3-B5BC-F74F362F0DF4";
shapes = (
{
closed = 1;
nodes = (
(840,908,l),
(778,978,o),
(694,1026,o),
(586,1026,cs),
(296,1026,o),
(60,790,o),
(60,500,cs),
(60,210,o),
(296,-26,o),
(586,-26,cs),
(694,-26,o),
(778,22,o),
(840,92,c),
(840,0,l),
(1140,0,l),
(1140,1500,l),
(840,1500,l)
);
},
{
closed = 1;
nodes = (
(468,262,o),
(368,368,o),
(368,500,cs),
(368,632,o),
(465,738,o),
(590,738,cs),
(714,738,o),
(814,632,o),
(814,500,cs),
(814,368,o),
(714,262,o),
(590,262,cs)
);
}
);
width = 1260;
},
{
anchors = (
{
name = bottom;
pos = (602,0);
},
{
name = center;
pos = (602,500);
},
{
name = top;
pos = (602,1900);
},
{
name = topright;
pos = (1174,1102);
}
);
hints = (
{
horizontal = 1;
origin = (0,9);
target = (1,11);
type = Stem;
},
{
horizontal = 1;
origin = (0,3);
target = (1,5);
type = Stem;
},
{
horizontal = 1;
origin = (0,13);
target = up;
type = BottomGhost;
},
{
origin = (0,6);
target = (1,2);
type = Stem;
},
{
origin = (0,13);
target = (0,14);
type = Stem;
},
{
origin = (1,8);
target = (0,14);
type = Stem;
}
);
layerId = "9AF1F7D9-E035-453E-B2A8-46DE370997D0";
shapes = (
{
closed = 1;
nodes = (
(994,768,l),
(922,924,o),
(780,1028,o),
(586,1028,cs),
(296,1028,o),
(60,792,o),
(60,500,cs),
(60,210,o),
(296,-26,o),
(586,-26,cs),
(780,-26,o),
(922,78,o),
(994,234,c),
(994,0,l),
(1054,0,l),
(1054,1500,l),
(994,1500,l)
);
},
{
closed = 1;
nodes = (
(336,34,o),
(120,238,o),
(120,500,cs),
(120,758,o),
(330,968,o),
(586,968,cs),
(840,968,o),
(990,762,o),
(990,500,cs),
(990,244,o),
(844,34,o),
(586,34,cs)
);
}
);
width = 1174;
}
);
metricLeft = o;
metricRight = H;
unicode = 100;
},
{
glyphname = eth;
kernLeft = o;
kernRight = eth;
lastChange = "2022-05-07 00:44:13 +0000";
layers = (
{
hints = (
{
horizontal = 1;
origin = (0,3);
target = (0,1);
type = Stem;
},
{
origin = (0,2);
target = (0,0);
type = Stem;
}
);
layerId = "10BC12B3-5274-42E3-B5BC-F74F362F0DF4";
shapes = (
{
closed = 1;
nodes = (
(876,1450,l),
(736,1592,l),
(298,1160,l),
(440,1018,l)
);
},
{
ref = partialdiff;
}
);
width = 1126;
},
{
layerId = "9AF1F7D9-E035-453E-B2A8-46DE370997D0";
shapes = (
{
closed = 1;
nodes = (
(866,1500,l),
(824,1542,l),
(384,1114,l),
(428,1070,l)
);
},
{
ref = partialdiff;
}
);
width = 1124;
}
);
unicode = 240;
},
{
glyphname = dcroat;
lastChange = "2022-07-09 04:29:52 +0000";
layers = (
{
layerId = "9AF1F7D9-E035-453E-B2A8-46DE370997D0";
shapes = (
{
closed = 1;
nodes = (
(336,34,o),
(120,238,o),
(120,500,c),
(120,758,o),
(330,968,o),
(586,968,c),
(840,968,o),
(990,762,o),
(990,500,c),
(990,244,o),
(844,34,o),
(586,34,c)
);
},
{
closed = 1;
nodes = (
(1144,1362,l),
(1054,1362,l),
(1054,1500,l),
(994,1500,l),
(994,1362,l),
(709,1362,l),
(709,1302,l),
(994,1302,l),
(994,768,l),
(922,924,o),
(780,1028,o),
(586,1028,c),
(296,1028,o),
(60,792,o),
(60,500,c),
(60,210,o),
(296,-26,o),
(586,-26,c),
(780,-26,o),
(922,78,o),
(994,234,c),
(994,0,l),
(1054,0,l),
(1054,1302,l),
(1144,1302,l)
);
}
);
width = 1164;
},
{
layerId = "10BC12B3-5274-42E3-B5BC-F74F362F0DF4";
shapes = (
{
closed = 1;
nodes = (
(468,262,o),
(368,368,o),
(368,500,c),
(368,632,o),
(465,738,o),
(590,738,c),
(714,738,o),
(814,632,o),
(814,500,c),
(814,368,o),
(714,262,o),
(590,262,c)
);
},
{
closed = 1;
nodes = (
(1240,1412,l),
(1140,1412,l),
(1140,1500,l),
(840,1500,l),
(840,1412,l),
(625,1412,l),
(625,1112,l),
(840,1112,l),
(840,908,l),
(778,978,o),
(694,1026,o),
(586,1026,c),
(296,1026,o),
(60,790,o),
(60,500,c),
(60,210,o),
(296,-26,o),
(586,-26,c),
(694,-26,o),
(778,22,o),
(840,92,c),
(840,0,l),
(1140,0,l),
(1140,1112,l),
(1240,1112,l)
);
}
);
width = 1260;
}
);
metricLeft = o;
metricRight = "=H-100";
unicode = 273;
},
{
glyphname = e;
kernLeft = o;
kernRight = o;
lastChange = "2022-05-07 08:19:57 +0000";
layers = (
{
anchors = (
{
name = bottom;
pos = (560,0);
},
{
name = ogonek;
pos = (715,0);
},
{
name = top;
pos = (560,1000);
}
);
hints = (
{
horizontal = 1;
origin = (0,19);
target = (0,6);
type = Stem;
},
{
horizontal = 1;
origin = (0,9);
target = (1,6);
type = Stem;
},
{
horizontal = 1;
origin = (0,13);
target = (1,2);
type = Stem;
}
);
layerId = "10BC12B3-5274-42E3-B5BC-F74F362F0DF4";
shapes = (
{
closed = 1;
nodes = (
(760,-26,o),
(932,98,o),
(1013,276,c),
(707,347,l),
(670,302,o),
(618,273,o),
(560,274,cs),
(467,276,o),
(412,330,o),
(384,401,c),
(1051,401,l),
(1111,719,o),
(879,1028,o),
(560,1028,cs),
(284,1028,o),
(60,792,o),
(60,501,cs),
(60,210,o),
(284,-26,o),
(560,-26,cs)
);
},
{
closed = 1;
nodes = (
(402,707,o),
(475,768,o),
(560,768,cs),
(646,768,o),
(719,707,o),
(748,621,c),
(373,621,l)
);
}
);
width = 1120;
},
{
anchors = (
{
name = bottom;
pos = (559,0);
},
{
name = ogonek;
pos = (716,0);
},
{
name = top;
pos = (559,1000);
}
);
hints = (
{
horizontal = 1;
origin = (0,19);
target = (0,6);
type = Stem;
},
{
horizontal = 1;
origin = (0,9);
target = (1,6);
type = Stem;
},
{
horizontal = 1;
origin = (0,13);
target = (1,2);
type = Stem;
},
{
origin = (0,16);
target = (0,9);
type = Stem;
},
{
origin = (1,5);
target = (0,10);
type = Stem;
}
);
layerId = "9AF1F7D9-E035-453E-B2A8-46DE370997D0";
shapes = (
{
closed = 1;
nodes = (
(760,-26,o),
(932,98,o),
(1012,276,c),
(952,290,l),
(872,130,o),
(730,34,o),
(560,34,cs),
(330,34,o),
(140,220,o),
(120,470,c),
(1058,470,l),
(1052,804,o),
(846,1028,o),
(560,1028,cs),
(284,1028,o),
(60,792,o),
(60,500,cs),
(60,210,o),
(284,-26,o),
(560,-26,cs)
);
},
{
closed = 1;
nodes = (
(136,772,o),
(322,968,o),
(560,968,cs),
(796,968,o),
(990,764,o),
(998,530,c),
(120,530,l)
);
}
);
width = 1118;
}
);
metricLeft = o;
metricRight = o;
unicode = 101;
},
{
glyphname = f;
kernLeft = f;
kernRight = f;
lastChange = "2022-05-07 00:44:13 +0000";
layers = (
{
anchors = (
{
name = bottom;
pos = (381,0);
},
{
name = top;
pos = (381,1900);
}
);
hints = (
{
horizontal = 1;
origin = (0,17);
target = up;
type = BottomGhost;
},
{
horizontal = 1;
origin = (0,14);
target = (0,15);
type = Stem;
},
{
horizontal = 1;
origin = (0,2);
target = (0,9);
type = Stem;
},
{
horizontal = 1;
origin = (0,6);
target = down;
type = TopGhost;
},
{
origin = (0,17);
target = (0,18);
type = Stem;
}
);
layerId = "10BC12B3-5274-42E3-B5BC-F74F362F0DF4";
shapes = (
{
closed = 1;
nodes = (
(444,1206,o),
(464,1224,o),
(488,1224,cs),
(504,1224,o),
(523,1214,o),
(530,1194,c),
(746,1406,l),
(675,1487,o),
(580,1524,o),
(488,1524,cs),
(298,1524,o),
(144,1370,o),
(144,1182,cs),
(144,1000,l),
(50,1000,l),
(50,700,l),
(144,700,l),
(144,0,l),
(444,0,l),
(444,700,l),
(702,700,l),
(702,1000,l),
(444,1000,l),
(444,1182,ls)
);
}
);
width = 762;
},
{
anchors = (
{
name = bottom;
pos = (310,0);
},
{
name = top;
pos = (310,1900);
}
);
hints = (
{
horizontal = 1;
origin = (0,17);
target = up;
type = BottomGhost;
},
{
horizontal = 1;
origin = (0,14);
target = (0,15);
type = Stem;
},
{
horizontal = 1;
origin = (0,2);
target = (0,9);
type = Stem;
},
{
origin = (0,17);
target = (0,18);
type = Stem;
}
);
layerId = "9AF1F7D9-E035-453E-B2A8-46DE370997D0";
shapes = (
{
closed = 1;
nodes = (
(268,1390,o),
(342,1464,o),
(432,1464,cs),
(476,1464,o),
(518,1446,o),
(548,1416,c),
(590,1458,l),
(548,1500,o),
(492,1524,o),
(432,1524,cs),
(308,1524,o),
(208,1424,o),
(208,1300,cs),
(208,1000,l),
(50,1000,l),
(50,940,l),
(208,940,l),
(208,0,l),
(268,0,l),
(268,940,l),
(590,940,l),
(590,1000,l),
(268,1000,l),
(268,1300,ls)
);
}
);
width = 620;
}
);
unicode = 102;
},
{
glyphname = g;
kernLeft = o;
kernRight = g;
lastChange = "2022-05-07 00:44:13 +0000";
layers = (
{
anchors = (
{
name = bottom;
pos = (627,-500);
},
{
name = top;
pos = (627,1000);
}
);
hints = (
{
horizontal = 1;
origin = (0,23);
target = (0,16);
type = Stem;
},
{
horizontal = 1;
origin = (0,9);
target = (1,11);
type = Stem;
},
{
horizontal = 1;
origin = (0,28);
target = down;
type = TopGhost;
},
{
horizontal = 1;
origin = (0,3);
target = (1,5);
type = Stem;
},
{
origin = (0,6);
target = (1,2);
type = Stem;
},
{
origin = (0,13);
target = (0,26);
type = Stem;
},
{
origin = (1,8);
target = (0,26);
type = Stem;
}
);
layerId = "10BC12B3-5274-42E3-B5BC-F74F362F0DF4";
shapes = (
{
closed = 1;
nodes = (
(834,912,l),
(774,980,o),
(692,1026,o),
(586,1026,cs),
(296,1026,o),
(60,790,o),
(60,500,cs),
(60,210,o),
(296,-26,o),
(586,-26,cs),
(692,-26,o),
(774,20,o),
(834,88,c),
(834,-10,ls),
(834,-140,o),
(704,-198,o),
(566,-198,cs),
(472,-198,o),
(386,-146,o),
(344,-56,c),
(70,-180,l),
(158,-370,o),
(354,-500,o),
(566,-500,cs),
(870,-500,o),
(1134,-314,o),
(1134,-10,cs),
(1134,1000,l),
(834,1000,l)
);
},
{
closed = 1;
nodes = (
(468,262,o),
(368,368,o),
(368,500,cs),
(368,632,o),
(468,738,o),
(590,738,cs),
(714,738,o),
(814,632,o),
(814,500,cs),
(814,368,o),
(714,262,o),
(590,262,cs)
);
}
);
width = 1254;
},
{
anchors = (
{
name = bottom;
pos = (568,-500);
},
{
name = top;
pos = (568,1000);
}
);
hints = (
{
horizontal = 1;
origin = (0,23);
target = (0,16);
type = Stem;
},
{
horizontal = 1;
origin = (0,9);
target = (1,11);
type = Stem;
},
{
horizontal = 1;
origin = (0,28);
target = down;
type = TopGhost;
},
{
horizontal = 1;
origin = (0,3);
target = (1,5);
type = Stem;
},
{
origin = (0,6);
target = (1,2);
type = Stem;
},
{
origin = (0,13);
target = (0,26);
type = Stem;
},
{
origin = (1,8);
target = (0,26);
type = Stem;
}
);
layerId = "9AF1F7D9-E035-453E-B2A8-46DE370997D0";
shapes = (
{
closed = 1;
nodes = (
(956,770,l),
(882,924,o),
(742,1028,o),
(560,1028,cs),
(284,1028,o),
(60,792,o),
(60,500,cs),
(60,210,o),
(284,-26,o),
(560,-26,cs),
(742,-26,o),
(882,78,o),
(956,232,c),
(956,-50,ls),
(956,-250,o),
(754,-440,o),
(548,-440,cs),
(370,-440,o),
(180,-290,o),
(146,-110,c),
(90,-136,l),
(136,-330,o),
(340,-500,o),
(548,-500,cs),
(784,-500,o),
(1016,-282,o),
(1016,-50,cs),
(1016,1000,l),
(956,1000,l)
);
},
{
closed = 1;
nodes = (
(320,34,o),
(120,240,o),
(120,500,cs),
(120,758,o),
(314,968,o),
(560,968,cs),
(804,968,o),
(954,754,o),
(954,500,cs),
(954,252,o),
(808,34,o),
(560,34,cs)
);
}
);
width = 1136;
}
);
unicode = 103;
},
{
glyphname = h;
kernLeft = H;
kernRight = n;
lastChange = "2022-05-07 08:20:15 +0000";
layers = (
{
anchors = (
{
name = bottom;
pos = (630,0);
},
{
name = center;
pos = (630,950);
},
{
name = top;
pos = (630,1425);
}
);
hints = (
{
horizontal = 1;
place = (0, 21);
target = up;
type = BottomGhost;
},
{
horizontal = 1;
place = (1026, 288);
place = (1026, 288);
type = Stem;
},
{
place = (120, 300);
place = (120, 300);
type = Stem;
},
{
place = (798, 300);
place = (798, 300);
type = Stem;
},
{
place = (120, 302);
place = (120, 302);
type = Stem;
}
);
layerId = "10BC12B3-5274-42E3-B5BC-F74F362F0DF4";
shapes = (
{
closed = 1;
nodes = (
(1059,854,o),
(885,1028,o),
(670,1028,cs),
(575,1028,o),
(488,994,o),
(421,937,c),
(420,1500,l),
(120,1500,l),
(121,0,l),
(421,0,l),
(421,555,ls),
(421,649,o),
(496,724,o),
(590,724,cs),
(683,724,o),
(759,649,o),
(759,555,cs),
(759,0,l),
(1059,0,l),
(1059,639,ls)
);
}
);
width = 1139;
},
{
anchors = (
{
name = bottom;
pos = (539,0);
},
{
name = center;
pos = (539,950);
},
{
name = top;
pos = (539,1425);
}
);
hints = (
{
horizontal = 1;
place = (0, 21);
target = up;
type = BottomGhost;
},
{
horizontal = 1;
place = (1026, 60);
place = (1026, 60);
type = Stem;
},
{
place = (120, 60);
place = (120, 60);
type = Stem;
},
{
place = (898, 60);
place = (898, 60);
type = Stem;
}
);
layerId = "9AF1F7D9-E035-453E-B2A8-46DE370997D0";
shapes = (
{
closed = 1;
nodes = (
(958,841,o),
(771,1028,o),
(539,1028,cs),
(387,1028,o),
(253,947,o),
(180,825,c),
(180,1500,l),
(120,1500,l),
(120,0,l),
(180,0,l),
(180,609,ls),
(180,808,o),
(341,968,o),
(539,968,cs),
(737,968,o),
(898,808,o),
(898,609,cs),
(898,0,l),
(958,0,l),
(958,609,ls)
);
}
);
width = 1038;
}
);
metricLeft = H;
metricRight = n;
unicode = 104;
},
{
glyphname = idotless;
kernLeft = i;
kernRight = i;
lastChange = "2022-05-07 00:44:13 +0000";
layers = (
{
anchors = (
{
name = bottom;
pos = (270,0);
},
{
name = ogonek;
pos = (420,0);
},
{
name = top;
pos = (270,1000);
}
);
hints = (
{
horizontal = 1;
origin = (0,0);
target = up;
type = BottomGhost;
},
{
horizontal = 1;
origin = (0,3);
target = down;
type = TopGhost;
},
{
origin = (0,0);
target = (0,1);
type = Stem;
}
);
layerId = "10BC12B3-5274-42E3-B5BC-F74F362F0DF4";
shapes = (
{
closed = 1;
nodes = (
(120,0,l),
(420,0,l),
(420,1000,l),
(120,1000,l)
);
}
);
width = 540;
},
{
anchors = (
{
name = bottom;
pos = (150,0);
},
{
name = ogonek;
pos = (180,0);
},
{
name = top;
pos = (150,1000);
}
);
hints = (
{
horizontal = 1;
origin = (0,0);
target = up;
type = BottomGhost;
},
{
horizontal = 1;
origin = (0,3);
target = down;
type = TopGhost;
},
{
origin = (0,0);
target = (0,1);
type = Stem;
}
);
layerId = "9AF1F7D9-E035-453E-B2A8-46DE370997D0";
shapes = (
{
closed = 1;
nodes = (
(120,0,l),
(180,0,l),
(180,1000,l),
(120,1000,l)
);
}
);
width = 300;
}
);
unicode = 305;
},
{
glyphname = jdotless;
kernLeft = j;
kernRight = g;
lastChange = "2022-05-07 00:44:13 +0000";
layers = (
{
anchors = (
{
name = top;
pos = (256,1000);
}
);
layerId = "9AF1F7D9-E035-453E-B2A8-46DE370997D0";
shapes = (
{
closed = 1;
nodes = (
(132,-500,o),
(286,-344,o),
(286,-148,cs),
(286,1000,l),
(226,1000,l),
(226,-148,ls),
(226,-314,o),
(96,-440,o),
(-80,-440,c),
(-80,-500,l)
);
}
);
width = 406;
},
{
anchors = (
{
name = top;
pos = (242,1000);
}
);
layerId = "10BC12B3-5274-42E3-B5BC-F74F362F0DF4";
shapes = (
{
closed = 1;
nodes = (
(182,-500,o),
(392,-288,o),
(392,-28,cs),
(392,1000,l),
(92,1000,l),
(92,-28,ls),
(92,-124,o),
(14,-200,o),
(-80,-200,c),
(-80,-500,l)
);
}
);
width = 512;
}
);
metricRight = g;
unicode = 567;
},
{
glyphname = k;
kernLeft = H;
kernRight = k;
lastChange = "2022-05-07 00:44:13 +0000";
layers = (
{
anchors = (
{
name = bottom;
pos = (559,0);
},
{
name = top;
pos = (690,1400);
}
);
hints = (
{
horizontal = 1;
origin = (0,6);
target = up;
type = BottomGhost;
},
{
horizontal = 1;
origin = (0,2);
target = down;
type = TopGhost;
},
{
origin = (0,6);
target = (0,7);
type = Stem;
}
);
layerId = "10BC12B3-5274-42E3-B5BC-F74F362F0DF4";
shapes = (
{
closed = 1;
nodes = (
(734,588,l),
(1078,1000,l),
(686,1000,l),
(420,682,l),
(420,1500,l),
(120,1500,l),
(120,0,l),
(420,0,l),
(420,216,l),
(528,344,l),
(728,0,l),
(1074,0,l)
);
}
);
width = 1118;
},
{
anchors = (
{
name = bottom;
pos = (442,0);
},
{
name = top;
pos = (466,1400);
}
);
hints = (
{
horizontal = 1;
origin = (0,6);
target = up;
type = BottomGhost;
},
{
horizontal = 1;
origin = (0,2);
target = down;
type = TopGhost;
},
{
origin = (0,6);
target = (0,7);
type = Stem;
}
);
layerId = "9AF1F7D9-E035-453E-B2A8-46DE370997D0";
shapes = (
{
closed = 1;
nodes = (
(466,602,l),
(802,1000,l),
(724,1000,l),
(180,352,l),
(180,1500,l),
(120,1500,l),
(120,0,l),
(180,0,l),
(180,258,l),
(426,552,l),
(746,0,l),
(814,0,l)
);
}
);
width = 914;
}
);
metricLeft = H;
unicode = 107;
},
{
glyphname = l;
kernLeft = H;
kernRight = H;
lastChange = "2022-07-09 04:44:11 +0000";
layers = (
{
anchors = (
{
name = bottom;
pos = (270,0);
},
{
name = center;
pos = (270,950);
},
{
name = top;
pos = (270,1500);
},
{
name = topright;
pos = (540,1102);
}
);
hints = (
{
horizontal = 1;
origin = (0,3);
target = up;
type = BottomGhost;
},
{
origin = (0,3);
target = (0,0);
type = Stem;
}
);
layerId = "10BC12B3-5274-42E3-B5BC-F74F362F0DF4";
shapes = (
{
closed = 1;
nodes = (
(420,0,l),
(420,1500,l),
(120,1500,l),
(120,0,l)
);
}
);
width = 540;
},
{
anchors = (
{
name = bottom;
pos = (150,0);
},
{
name = center;
pos = (150,950);
},
{
name = top;
pos = (150,1500);
},
{
name = topright;
pos = (291,1102);
}
);
hints = (
{
origin = (0,3);
target = (0,0);
type = Stem;
}
);
layerId = "9AF1F7D9-E035-453E-B2A8-46DE370997D0";
shapes = (
{
closed = 1;
nodes = (
(180,0,l),
(180,1500,l),
(120,1500,l),
(120,0,l)
);
}
);
width = 300;
}
);
metricLeft = H;
metricRight = H;
unicode = 108;
},
{
glyphname = lslash;
kernLeft = H;
kernRight = H;
lastChange = "2022-07-09 04:26:42 +0000";
layers = (
{
layerId = "9AF1F7D9-E035-453E-B2A8-46DE370997D0";
shapes = (
{
closed = 1;
nodes = (
(169,1500,l),
(169,836,l),
(-40,715,l),
(-10,663,l),
(169,766,l),
(169,0,l),
(229,0,l),
(229,801,l),
(438,922,l),
(408,974,l),
(229,870,l),
(229,1500,l)
);
}
);
width = 398;
},
{
layerId = "10BC12B3-5274-42E3-B5BC-F74F362F0DF4";
shapes = (
{
closed = 1;
nodes = (
(196,1500,l),
(196,905,l),
(-40,769,l),
(110,509,l),
(196,559,l),
(196,0,l),
(496,0,l),
(496,732,l),
(732,868,l),
(582,1128,l),
(496,1078,l),
(496,1500,l)
);
}
);
width = 692;
}
);
metricLeft = "=H-160";
metricRight = "=H-160";
unicode = 322;
},
{
glyphname = m;
kernLeft = n;
kernRight = n;
lastChange = "2022-05-07 08:20:18 +0000";
layers = (
{
anchors = (
{
name = bottom;
pos = (908,0);
},
{
name = top;
pos = (989,1000);
}
);
hints = (
{
horizontal = 1;
place = (0, 21);
target = up;
type = BottomGhost;
},
{
horizontal = 1;
place = (1003, 300);
place = (1003, 300);
type = Stem;
},
{
horizontal = 1;
place = (1000, -20);
target = down;
type = TopGhost;
},
{
place = (120, 300);
place = (120, 300);
type = Stem;
},
{
place = (763, 300);
place = (763, 300);
type = Stem;
},
{
place = (1406, 300);
place = (1406, 300);
type = Stem;
}
);
layerId = "10BC12B3-5274-42E3-B5BC-F74F362F0DF4";
shapes = (
{
closed = 1;
nodes = (
(420,0,l),
(420,555,ls),
(420,648,o),
(496,724,o),
(589,724,cs),
(683,724,o),
(758,648,o),
(758,555,cs),
(758,0,l),
(1058,0,l),
(1058,555,ls),
(1058,648,o),
(1134,724,o),
(1228,724,cs),
(1321,724,o),
(1397,648,o),
(1397,555,cs),
(1397,0,l),
(1697,0,l),
(1697,639,ls),
(1697,854,o),
(1523,1028,o),
(1308,1028,cs),
(1176,1028,o),
(1059,962,o),
(989,861,c),
(919,962,o),
(802,1028,o),
(669,1028,cs),
(574,1028,o),
(487,994,o),
(420,937,c),
(420,1000,l),
(120,1000,l),
(120,0,l)
);
}
);
width = 1777;
},
{
anchors = (
{
name = bottom;
pos = (909,0);
},
{
name = top;
pos = (909,1000);
}
);
hints = (
{
horizontal = 1;
place = (0, 21);
target = up;
type = BottomGhost;
},
{
horizontal = 1;
place = (1028, -60);
place = (1028, -60);
type = Stem;
},
{
horizontal = 1;
place = (1000, -20);
target = down;
type = TopGhost;
},
{
place = (120, 60);
place = (120, 60);
type = Stem;
},
{
place = (836, 60);
place = (836, 60);
type = Stem;
},
{
place = (1552, 60);
place = (1552, 60);
type = Stem;
}
);
layerId = "9AF1F7D9-E035-453E-B2A8-46DE370997D0";
shapes = (
{
closed = 1;
nodes = (
(180,0,l),
(180,605,ls),
(180,798,o),
(337,968,o),
(529,968,cs),
(722,968,o),
(879,818,o),
(879,605,cs),
(879,0,l),
(939,0,l),
(939,605,ls),
(939,818,o),
(1095,968,o),
(1288,968,cs),
(1481,968,o),
(1637,798,o),
(1637,605,cs),
(1637,0,l),
(1697,0,l),
(1697,609,ls),
(1697,841,o),
(1510,1028,o),
(1278,1028,cs),
(1118,1028,o),
(979,939,o),
(909,807,c),
(838,939,o),
(699,1028,o),
(539,1028,cs),
(387,1028,o),
(254,947,o),
(180,825,c),
(180,1000,l),
(120,1000,l),
(120,0,l)
);
}
);
width = 1777;
}
);
metricLeft = n;
metricRight = n;
unicode = 109;
},
{
glyphname = n;
kernLeft = n;
kernRight = n;
lastChange = "2022-05-07 00:44:13 +0000";
layers = (
{
anchors = (
{
name = bottom;
pos = (590,0);
},
{
name = top;
pos = (610,1000);
}
);
hints = (
{
horizontal = 1;
place = (0, 21);
target = up;
type = BottomGhost;
},
{
horizontal = 1;
place = (1000, -20);
target = down;
type = TopGhost;
},
{
horizontal = 1;
place = (1028, 288);
place = (1028, 288);
type = Stem;
},
{
place = (100, 300);
place = (100, 300);
type = Stem;
},
{
place = (816, 300);
place = (816, 300);
type = Stem;
}
);
layerId = "10BC12B3-5274-42E3-B5BC-F74F362F0DF4";
shapes = (
{
closed = 1;
nodes = (
(1059,854,o),
(885,1028,o),
(670,1028,cs),
(575,1028,o),
(488,994,o),
(421,937,c),
(420,1000,l),
(120,1000,l),
(121,0,l),
(421,0,l),
(421,555,ls),
(421,649,o),
(496,724,o),
(590,724,cs),
(683,724,o),
(759,649,o),
(759,555,cs),
(759,0,l),
(1059,0,l),
(1059,639,ls)
);
}
);
width = 1139;
},
{
anchors = (
{
name = bottom;
pos = (539,0);
},
{
name = top;
pos = (539,1000);
}
);
hints = (
{
horizontal = 1;
place = (0, 21);
target = up;
type = BottomGhost;
},
{
horizontal = 1;
place = (1028, 60);
place = (1028, 60);
type = Stem;
},
{
horizontal = 1;
place = (1000, -20);
target = down;
type = TopGhost;
},
{
place = (100, 60);
place = (100, 60);
type = Stem;
},
{
place = (878, 60);
place = (878, 60);
type = Stem;
}
);
layerId = "9AF1F7D9-E035-453E-B2A8-46DE370997D0";
shapes = (
{
closed = 1;
nodes = (
(958,841,o),
(771,1028,o),
(539,1028,cs),
(387,1028,o),
(253,947,o),
(180,825,c),
(180,1000,l),
(120,1000,l),
(120,0,l),
(180,0,l),
(180,609,ls),
(180,808,o),
(341,968,o),
(539,968,cs),
(737,968,o),
(898,808,o),
(898,609,cs),
(898,0,l),
(958,0,l),
(958,609,ls)
);
}
);
width = 1038;
}
);
unicode = 110;
},
{
glyphname = o;
kernLeft = o;
kernRight = o;
lastChange = "2022-05-07 00:44:13 +0000";
layers = (
{
anchors = (
{
name = bottom;
pos = (560,0);
},
{
name = center;
pos = (560,500);
},
{
name = ogonek;
pos = (1008,10);
},
{
name = top;
pos = (560,1000);
},
{
name = topright;
pos = (1100,1000);
}
);
hints = (
{
horizontal = 1;
origin = (0,11);
target = (1,11);
type = Stem;
},
{
horizontal = 1;
origin = (0,5);
target = (1,5);
type = Stem;
},
{
origin = (0,8);
target = (1,2);
type = Stem;
},
{
origin = (1,8);
target = (0,2);
type = Stem;
}
);
layerId = "10BC12B3-5274-42E3-B5BC-F74F362F0DF4";
shapes = (
{
closed = 1;
nodes = (
(836,-26,o),
(1060,210,o),
(1060,500,cs),
(1060,792,o),
(836,1028,o),
(560,1028,cs),
(284,1028,o),
(60,792,o),
(60,500,cs),
(60,210,o),
(284,-26,o),
(560,-26,cs)
);
},
{
closed = 1;
nodes = (
(452,274,o),
(360,372,o),
(360,500,cs),
(360,622,o),
(448,728,o),
(560,728,cs),
(668,728,o),
(760,626,o),
(760,500,cs),
(760,378,o),
(674,274,o),
(560,274,cs)
);
}
);
width = 1120;
},
{
anchors = (
{
name = bottom;
pos = (560,0);
},
{
name = center;
pos = (560,500);
},
{
name = ogonek;
pos = (1008,10);
},
{
name = top;
pos = (560,1000);
},
{
name = topright;
pos = (1100,1000);
}
);
hints = (
{
horizontal = 1;
origin = (0,11);
target = (1,11);
type = Stem;
},
{
horizontal = 1;
origin = (0,5);
target = (1,5);
type = Stem;
},
{
origin = (0,8);
target = (1,2);
type = Stem;
},
{
origin = (1,8);
target = (0,2);
type = Stem;
}
);
layerId = "9AF1F7D9-E035-453E-B2A8-46DE370997D0";
shapes = (
{
closed = 1;
nodes = (
(836,-26,o),
(1060,210,o),
(1060,500,cs),
(1060,792,o),
(836,1028,o),
(560,1028,cs),
(284,1028,o),
(60,792,o),
(60,500,cs),
(60,210,o),
(284,-26,o),
(560,-26,cs)
);
},
{
closed = 1;
nodes = (
(320,34,o),
(120,240,o),
(120,500,cs),
(120,752,o),
(310,968,o),
(560,968,cs),
(808,968,o),
(1000,752,o),
(1000,500,cs),
(1000,250,o),
(808,34,o),
(560,34,cs)
);
}
);
width = 1120;
}
);
unicode = 111;
},
{
glyphname = oslash;
kernLeft = o;
kernRight = o;
lastChange = "2022-05-07 08:20:50 +0000";
layers = (
{
anchors = (
{
name = top;
pos = (560,1000);
}
);
hints = (
{
horizontal = 1;
origin = (0,0);
target = up;
type = BottomGhost;
},
{
horizontal = 1;
origin = (0,12);
target = down;
type = TopGhost;
},
{
horizontal = 1;
origin = (0,3);
target = (2,6);
type = Stem;
},
{
horizontal = 1;
origin = (0,15);
target = (1,5);
type = Stem;
},
{
origin = (0,18);
target = (1,2);
type = Stem;
},
{
origin = (2,3);
target = (0,6);
type = Stem;
}
);
layerId = "10BC12B3-5274-42E3-B5BC-F74F362F0DF4";
shapes = (
{
closed = 1;
nodes = (
(408,-2,l),
(456,-18,o),
(506,-26,o),
(560,-26,cs),
(836,-26,o),
(1060,210,o),
(1060,500,cs),
(1060,646,o),
(1004,778,o),
(914,874,c),
(968,968,l),
(760,1088,l),
(710,1004,l),
(664,1020,o),
(612,1028,o),
(560,1028,cs),
(284,1028,o),
(60,792,o),
(60,500,cs),
(60,356,o),
(116,224,o),
(206,128,c),
(152,34,l),
(360,-86,l)
);
},
{
closed = 1;
nodes = (
(342,412,o),
(336,444,o),
(336,482,cs),
(336,632,o),
(442,762,o),
(576,766,c),
(354,380,l)
);
},
{
closed = 1;
nodes = (
(766,622,l),
(776,590,o),
(784,556,o),
(784,518,cs),
(784,368,o),
(682,240,o),
(544,236,c)
);
}
);
width = 1120;
},
{
anchors = (
{
name = top;
pos = (560,1000);
}
);
hints = (
{
horizontal = 1;
place = (-26, 59);
place = (-26, 59);
type = Stem;
},
{
horizontal = 1;
place = (969, 59);
place = (969, 59);
type = Stem;
},
{
horizontal = 1;
origin = (0,10);
target = down;
type = TopGhost;
},
{
horizontal = 1;
origin = (0,22);
target = up;
type = BottomGhost;
},
{
origin = (0,18);
target = (1,2);
type = Stem;
},
{
origin = (2,3);
target = (0,6);
type = Stem;
}
);
layerId = "9AF1F7D9-E035-453E-B2A8-46DE370997D0";
shapes = (
{
closed = 1;
nodes = (
(326,36,l),
(394,0,o),
(476,-26,o),
(560,-26,cs),
(836,-26,o),
(1060,210,o),
(1060,500,cs),
(1060,682,o),
(976,840,o),
(846,936,c),
(892,1014,l),
(840,1044,l),
(794,968,l),
(726,1006,o),
(646,1028,o),
(560,1028,cs),
(284,1028,o),
(60,792,o),
(60,500,cs),
(60,322,o),
(146,164,o),
(276,68,c),
(230,-10,l),
(282,-40,l)
);
},
{
closed = 1;
nodes = (
(194,206,o),
(120,344,o),
(120,500,cs),
(120,846,o),
(472,1080,o),
(764,916,c),
(306,122,l)
);
},
{
closed = 1;
nodes = (
(816,882,l),
(928,796,o),
(1000,656,o),
(1000,500,cs),
(1000,162,o),
(660,-80,o),
(356,88,c)
);
}
);
width = 1120;
}
);
metricLeft = o;
metricRight = o;
unicode = 248;
},
{
glyphname = oe;
kernLeft = o;
kernRight = o;
lastChange = "2022-05-07 08:20:45 +0000";
layers = (
{
anchors = (
{
name = bottom;
pos = (910,0);
},
{
name = top;
pos = (910,1000);
}
);
hints = (
{
horizontal = 1;
origin = (0,31);
target = (1,11);
type = Stem;
},
{
horizontal = 1;
origin = (0,15);
target = (2,6);
type = Stem;
},
{
horizontal = 1;
origin = (0,25);
target = (2,2);
type = Stem;
},
{
horizontal = 1;
origin = (0,25);
target = (1,5);
type = Stem;
},
{
origin = (0,28);
target = (1,2);
type = Stem;
}
);
layerId = "10BC12B3-5274-42E3-B5BC-F74F362F0DF4";
shapes = (
{
closed = 1;
nodes = (
(696,-26,o),
(820,32,o),
(910,124,c),
(1000,32,o),
(1124,-26,o),
(1260,-26,cs),
(1460,-26,o),
(1632,98,o),
(1712,276,c),
(1406,348,l),
(1370,302,o),
(1318,274,o),
(1260,274,cs),
(1166,276,o),
(1112,330,o),
(1084,402,c),
(1750,402,l),
(1810,722,o),
(1578,1028,o),
(1260,1028,cs),
(1124,1028,o),
(1000,970,o),
(910,878,c),
(820,970,o),
(696,1028,o),
(560,1028,cs),
(284,1028,o),
(60,792,o),
(60,500,cs),
(60,210,o),
(284,-26,o),
(560,-26,cs)
);
},
{
closed = 1;
nodes = (
(452,274,o),
(360,372,o),
(360,500,cs),
(360,622,o),
(448,728,o),
(560,728,cs),
(668,728,o),
(760,626,o),
(760,500,cs),
(760,378,o),
(674,274,o),
(560,274,cs)
);
},
{
closed = 1;
nodes = (
(1100,708,o),
(1174,768,o),
(1260,768,cs),
(1346,768,o),
(1418,708,o),
(1446,622,c),
(1072,622,l)
);
}
);
width = 1819;
},
{
anchors = (
{
name = bottom;
pos = (1029,0);
},
{
name = top;
pos = (1029,1000);
}
);
hints = (
{
horizontal = 1;
origin = (0,31);
target = (1,11);
type = Stem;
},
{
horizontal = 1;
origin = (0,15);
target = (2,6);
type = Stem;
},
{
horizontal = 1;
origin = (0,25);
target = (1,5);
type = Stem;
},
{
origin = (0,28);
target = (1,2);
type = Stem;
},
{
origin = (1,8);
target = (0,15);
type = Stem;
},
{
origin = (2,5);
target = (0,16);
type = Stem;
}
);
layerId = "9AF1F7D9-E035-453E-B2A8-46DE370997D0";
shapes = (
{
closed = 1;
nodes = (
(776,-26,o),
(960,118,o),
(1030,320,c),
(1100,118,o),
(1284,-26,o),
(1500,-26,cs),
(1700,-26,o),
(1872,98,o),
(1952,276,c),
(1892,290,l),
(1812,130,o),
(1670,34,o),
(1500,34,cs),
(1270,34,o),
(1080,220,o),
(1060,470,c),
(1998,470,l),
(1992,804,o),
(1786,1028,o),
(1500,1028,cs),
(1284,1028,o),
(1100,884,o),
(1030,680,c),
(960,884,o),
(776,1028,o),
(560,1028,cs),
(284,1028,o),
(60,792,o),
(60,500,cs),
(60,210,o),
(284,-26,o),
(560,-26,cs)
);
},
{
closed = 1;
nodes = (
(320,34,o),
(120,240,o),
(120,500,cs),
(120,752,o),
(310,968,o),
(560,968,cs),
(808,968,o),
(1000,752,o),
(1000,500,cs),
(1000,250,o),
(808,34,o),
(560,34,cs)
);
},
{
closed = 1;
nodes = (
(1076,772,o),
(1262,968,o),
(1500,968,cs),
(1736,968,o),
(1930,764,o),
(1938,530,c),
(1060,530,l)
);
}
);
width = 2058;
}
);
metricLeft = o;
metricRight = o;
unicode = 339;
},
{
glyphname = p;
kernLeft = p;
kernRight = o;
lastChange = "2022-05-07 08:20:52 +0000";
layers = (
{
anchors = (
{
name = bottom;
pos = (639,0);
},
{
name = top;
pos = (639,1000);
}
);
hints = (
{
horizontal = 1;
origin = (0,15);
target = up;
type = BottomGhost;
},
{
horizontal = 1;
origin = (0,3);
target = (1,5);
type = Stem;
},
{
horizontal = 1;
origin = (0,9);
target = (1,11);
type = Stem;
},
{
horizontal = 1;
origin = (0,14);
target = down;
type = TopGhost;
},
{
origin = (0,15);
target = (0,16);
type = Stem;
},
{
origin = (1,2);
target = (0,6);
type = Stem;
},
{
origin = (0,15);
target = (1,8);
type = Stem;
}
);
layerId = "10BC12B3-5274-42E3-B5BC-F74F362F0DF4";
shapes = (
{
closed = 1;
nodes = (
(420,92,l),
(482,22,o),
(564,-28,o),
(672,-28,cs),
(964,-28,o),
(1198,208,o),
(1198,500,cs),
(1198,790,o),
(964,1026,o),
(672,1026,cs),
(564,1026,o),
(482,976,o),
(420,906,c),
(420,1000,l),
(120,1000,l),
(120,-500,l),
(420,-500,l)
);
},
{
closed = 1;
nodes = (
(792,738,o),
(892,630,o),
(892,500,cs),
(892,368,o),
(792,262,o),
(668,262,cs),
(546,262,o),
(446,368,o),
(446,500,cs),
(446,630,o),
(546,738,o),
(668,738,cs)
);
}
);
width = 1258;
},
{
anchors = (
{
name = bottom;
pos = (597,0);
},
{
name = top;
pos = (597,1000);
}
);
hints = (
{
horizontal = 1;
origin = (0,15);
target = up;
type = BottomGhost;
},
{
horizontal = 1;
origin = (0,3);
target = (1,5);
type = Stem;
},
{
horizontal = 1;
origin = (0,9);
target = (1,11);
type = Stem;
},
{
horizontal = 1;
origin = (0,14);
target = down;
type = TopGhost;
},
{
origin = (0,15);
target = (0,16);
type = Stem;
},
{
origin = (1,2);
target = (0,6);
type = Stem;
},
{
origin = (0,15);
target = (1,8);
type = Stem;
}
);
layerId = "9AF1F7D9-E035-453E-B2A8-46DE370997D0";
shapes = (
{
closed = 1;
nodes = (
(180,232,l),
(252,76,o),
(394,-28,o),
(588,-28,cs),
(878,-28,o),
(1114,208,o),
(1114,500,cs),
(1114,790,o),
(878,1026,o),
(588,1026,cs),
(394,1026,o),
(252,922,o),
(180,766,c),
(180,1000,l),
(120,1000,l),
(120,-500,l),
(180,-500,l)
);
},
{
closed = 1;
nodes = (
(846,966,o),
(1054,756,o),
(1054,500,cs),
(1054,236,o),
(838,32,o),
(588,32,cs),
(330,32,o),
(184,244,o),
(184,500,cs),
(184,760,o),
(334,966,o),
(588,966,cs)
);
}
);
width = 1174;
}
);
metricRight = o;
unicode = 112;
},
{
glyphname = thorn;
kernLeft = H;
kernRight = o;
lastChange = "2022-05-07 08:20:55 +0000";
layers = (
{
anchors = (
{
name = bottom;
pos = (639,0);
},
{
name = top;
pos = (639,1000);
}
);
hints = (
{
horizontal = 1;
origin = (0,16);
target = up;
type = BottomGhost;
},
{
horizontal = 1;
origin = (0,4);
target = (1,11);
type = Stem;
},
{
horizontal = 1;
origin = (0,10);
target = (1,5);
type = Stem;
},
{
horizontal = 1;
origin = (0,15);
target = down;
type = TopGhost;
},
{
origin = (0,16);
target = (0,0);
type = Stem;
},
{
origin = (1,8);
target = (0,7);
type = Stem;
},
{
origin = (0,16);
target = (1,2);
type = Stem;
}
);
layerId = "10BC12B3-5274-42E3-B5BC-F74F362F0DF4";
shapes = (
{
closed = 1;
nodes = (
(420,-500,l),
(420,92,l),
(482,22,o),
(564,-28,o),
(672,-28,cs),
(964,-28,o),
(1198,208,o),
(1198,500,cs),
(1198,790,o),
(964,1026,o),
(672,1026,cs),
(564,1026,o),
(482,976,o),
(420,906,c),
(420,1400,l),
(120,1400,l),
(120,-500,l)
);
},
{
closed = 1;
nodes = (
(546,262,o),
(446,368,o),
(446,500,cs),
(446,630,o),
(546,738,o),
(668,738,cs),
(792,738,o),
(892,630,o),
(892,500,cs),
(892,368,o),
(792,262,o),
(668,262,cs)
);
}
);
width = 1258;
},
{
anchors = (
{
name = bottom;
pos = (597,0);
},
{
name = top;
pos = (597,1000);
}
);
hints = (
{
horizontal = 1;
origin = (0,16);
target = up;
type = BottomGhost;
},
{
horizontal = 1;
origin = (0,4);
target = (1,11);
type = Stem;
},
{
horizontal = 1;
origin = (0,10);
target = (1,5);
type = Stem;
},
{
horizontal = 1;
origin = (0,15);
target = down;
type = TopGhost;
},
{
origin = (0,16);
target = (0,0);
type = Stem;
},
{
origin = (1,8);
target = (0,7);
type = Stem;
},
{
origin = (0,16);
target = (1,2);
type = Stem;
}
);
layerId = "9AF1F7D9-E035-453E-B2A8-46DE370997D0";
shapes = (
{
closed = 1;
nodes = (
(180,-500,l),
(180,232,l),
(252,76,o),
(394,-28,o),
(588,-28,cs),
(878,-28,o),
(1114,208,o),
(1114,500,cs),
(1114,790,o),
(878,1026,o),
(588,1026,cs),
(394,1026,o),
(252,922,o),
(180,766,c),
(180,1400,l),
(120,1400,l),
(120,-500,l)
);
},
{
closed = 1;
nodes = (
(330,32,o),
(184,244,o),
(184,500,cs),
(184,760,o),
(334,966,o),
(588,966,cs),
(846,966,o),
(1054,756,o),
(1054,500,cs),
(1054,236,o),
(838,32,o),
(588,32,cs)
);
}
);
width = 1174;
}
);
metricLeft = H;
metricRight = o;
unicode = 254;
},
{
glyphname = q;
kernLeft = o;
kernRight = g;
lastChange = "2022-05-07 08:20:56 +0000";
layers = (
{
anchors = (
{
name = bottom;
pos = (619,0);
},
{
name = top;
pos = (619,1000);
}
);
hints = (
{
horizontal = 1;
origin = (0,3);
target = up;
type = BottomGhost;
},
{
horizontal = 1;
origin = (0,16);
target = (1,5);
type = Stem;
},
{
horizontal = 1;
origin = (0,10);
target = (1,11);
type = Stem;
},
{
horizontal = 1;
origin = (0,6);
target = down;
type = TopGhost;
},
{
origin = (0,13);
target = (1,8);
type = Stem;
},
{
origin = (0,3);
target = (0,4);
type = Stem;
},
{
origin = (1,2);
target = (0,4);
type = Stem;
}
);
layerId = "10BC12B3-5274-42E3-B5BC-F74F362F0DF4";
shapes = (
{
closed = 1;
nodes = (
(694,-28,o),
(776,22,o),
(838,92,c),
(838,-500,l),
(1138,-500,l),
(1138,1000,l),
(838,1000,l),
(838,906,l),
(776,976,o),
(694,1026,o),
(586,1026,cs),
(296,1026,o),
(60,790,o),
(60,500,cs),
(60,208,o),
(296,-28,o),
(586,-28,cs)
);
},
{
closed = 1;
nodes = (
(714,738,o),
(812,630,o),
(812,500,cs),
(812,368,o),
(714,262,o),
(590,262,cs),
(466,262,o),
(368,368,o),
(368,500,cs),
(368,630,o),
(466,738,o),
(590,738,cs)
);
}
);
width = 1258;
},
{
anchors = (
{
name = bottom;
pos = (577,0);
},
{
name = top;
pos = (577,1000);
}
);
hints = (
{
horizontal = 1;
origin = (0,3);
target = up;
type = BottomGhost;
},
{
horizontal = 1;
origin = (0,16);
target = (1,5);
type = Stem;
},
{
horizontal = 1;
origin = (0,10);
target = (1,11);
type = Stem;
},
{
horizontal = 1;
origin = (0,6);
target = down;
type = TopGhost;
},
{
origin = (0,13);
target = (1,8);
type = Stem;
},
{
origin = (0,3);
target = (0,4);
type = Stem;
},
{
origin = (1,2);
target = (0,4);
type = Stem;
}
);
layerId = "9AF1F7D9-E035-453E-B2A8-46DE370997D0";
shapes = (
{
closed = 1;
nodes = (
(780,-28,o),
(922,76,o),
(994,232,c),
(994,-500,l),
(1054,-500,l),
(1054,1000,l),
(994,1000,l),
(994,766,l),
(922,922,o),
(780,1026,o),
(586,1026,cs),
(296,1026,o),
(60,790,o),
(60,500,cs),
(60,208,o),
(296,-28,o),
(586,-28,cs)
);
},
{
closed = 1;
nodes = (
(840,966,o),
(990,760,o),
(990,500,cs),
(990,244,o),
(844,32,o),
(586,32,cs),
(336,32,o),
(120,236,o),
(120,500,cs),
(120,756,o),
(328,966,o),
(586,966,cs)
);
}
);
width = 1174;
}
);
metricLeft = o;
unicode = 113;
},
{
glyphname = r;
kernLeft = n;
kernRight = r;
lastChange = "2022-05-07 00:44:13 +0000";
layers = (
{
anchors = (
{
name = bottom;
pos = (271,0);
},
{
name = top;
pos = (465,1000);
}
);
hints = (
{
horizontal = 1;
place = (0, 21);
target = up;
type = BottomGhost;
},
{
horizontal = 1;
place = (1026, 288);
place = (1026, 288);
type = Stem;
},
{
horizontal = 1;
place = (1014, -20);
target = down;
type = TopGhost;
},
{
horizontal = 1;
place = (738, 262);
place = (738, 262);
type = Stem;
},
{
place = (120, 300);
place = (120, 300);
type = Stem;
},
{
place = (120, 302);
place = (120, 302);
type = Stem;
}
);
layerId = "10BC12B3-5274-42E3-B5BC-F74F362F0DF4";
shapes = (
{
closed = 1;
nodes = (
(421,0,l),
(421,555,ls),
(421,649,o),
(496,724,o),
(590,724,cs),
(616,724,o),
(640,718,o),
(662,708,c),
(780,1012,l),
(745,1022,o),
(708,1028,o),
(670,1028,cs),
(575,1028,o),
(488,994,o),
(421,937,c),
(420,1000,l),
(120,1000,l),
(121,0,l)
);
}
);
width = 800;
},
{
anchors = (
{
name = bottom;
pos = (150,0);
},
{
name = top;
pos = (360,1000);
}
);
hints = (
{
horizontal = 1;
place = (0, 21);
target = up;
type = BottomGhost;
},
{
horizontal = 1;
place = (1028, 60);
place = (1028, 60);
type = Stem;
},
{
horizontal = 1;
place = (1028, -20);
target = down;
type = TopGhost;
},
{
horizontal = 1;
place = (1000, -20);
target = down;
type = TopGhost;
},
{
place = (120, 60);
place = (120, 60);
type = Stem;
}
);
layerId = "9AF1F7D9-E035-453E-B2A8-46DE370997D0";
shapes = (
{
closed = 1;
nodes = (
(180,0,l),
(180,609,ls),
(180,808,o),
(341,968,o),
(539,968,cs),
(569,968,o),
(598,964,o),
(626,957,c),
(652,1013,l),
(616,1023,o),
(578,1028,o),
(539,1028,cs),
(387,1028,o),
(253,947,o),
(180,825,c),
(180,1000,l),
(120,1000,l),
(120,0,l)
);
}
);
width = 672;
}
);
metricLeft = n;
unicode = 114;
},
{
glyphname = s;
kernLeft = s;
kernRight = s;
lastChange = "2022-05-07 00:44:13 +0000";
layers = (
{
anchors = (
{
name = bottom;
pos = (494,0);
},
{
name = top;
pos = (437,1000);
}
);
hints = (
{
horizontal = 1;
origin = (0,37);
target = up;
type = BottomGhost;
},
{
horizontal = 1;
origin = (0,11);
target = (0,18);
type = Stem;
},
{
origin = (0,21);
target = (0,8);
type = Stem;
},
{
origin = (0,27);
target = (0,2);
type = Stem;
}
);
layerId = "10BC12B3-5274-42E3-B5BC-F74F362F0DF4";
shapes = (
{
closed = 1;
nodes = (
(620,-38,o),
(824,102,o),
(824,302,cs),
(830,474,o),
(668,578,o),
(496,634,cs),
(452,648,o),
(348,650,o),
(348,708,cs),
(348,770,o),
(400,786,o),
(470,780,cs),
(522,774,o),
(564,738,o),
(588,708,c),
(824,848,l),
(738,968,o),
(600,1034,o),
(444,1034,cs),
(246,1034,o),
(68,906,o),
(68,700,cs),
(68,516,o),
(246,400,o),
(424,372,cs),
(474,364,o),
(548,354,o),
(548,298,cs),
(548,248,o),
(494,234,o),
(442,234,cs),
(364,234,o),
(322,282,o),
(302,304,c),
(50,196,l),
(114,66,o),
(256,-4,o),
(408,-18,cs)
);
}
);
width = 874;
},
{
anchors = (
{
name = bottom;
pos = (488,0);
},
{
name = top;
pos = (426,1000);
}
);
hints = (
{
horizontal = 1;
origin = (0,37);
target = (0,30);
type = Stem;
},
{
horizontal = 1;
origin = (0,11);
target = (0,18);
type = Stem;
},
{
origin = (0,21);
target = (0,8);
type = Stem;
},
{
origin = (0,27);
target = (0,2);
type = Stem;
}
);
layerId = "9AF1F7D9-E035-453E-B2A8-46DE370997D0";
shapes = (
{
closed = 1;
nodes = (
(626,-20,o),
(798,88,o),
(798,258,cs),
(798,424,o),
(628,478,o),
(440,538,cs),
(250,598,o),
(140,618,o),
(140,756,cs),
(140,890,o),
(282,974,o),
(440,974,cs),
(566,974,o),
(708,912,o),
(750,806,c),
(802,836,l),
(754,952,o),
(606,1034,o),
(440,1034,cs),
(252,1034,o),
(80,926,o),
(80,756,cs),
(80,590,o),
(210,550,o),
(440,478,cs),
(588,432,o),
(738,394,o),
(738,258,cs),
(738,128,o),
(596,40,o),
(440,40,cs),
(314,40,o),
(144,112,o),
(106,220,c),
(50,196,l),
(92,76,o),
(268,-20,o),
(440,-20,cs)
);
}
);
width = 852;
}
);
unicode = 115;
},
{
glyphname = saltillo;
lastChange = "2022-07-09 04:45:57 +0000";
layers = (
{
layerId = "9AF1F7D9-E035-453E-B2A8-46DE370997D0";
shapes = (
{
closed = 1;
nodes = (
(60,1500,l),
(70,953,l),
(110,953,l),
(120,1500,l)
);
}
);
width = 180;
},
{
layerId = "10BC12B3-5274-42E3-B5BC-F74F362F0DF4";
shapes = (
{
closed = 1;
nodes = (
(60,1500,l),
(110,953,l),
(310,953,l),
(360,1500,l)
);
}
);
width = 420;
}
);
unicode = 42892;
},
{
glyphname = germandbls;
kernLeft = h;
kernRight = B;
lastChange = "2022-05-07 00:44:13 +0000";
layers = (
{
anchors = (
{
name = bottom;
pos = (593,0);
},
{
name = top;
pos = (593,1000);
}
);
hints = (
{
horizontal = 1;
origin = (0,38);
target = (0,20);
type = Stem;
},
{
horizontal = 1;
origin = (0,4);
target = (0,34);
type = Stem;
},
{
origin = (0,38);
target = (0,0);
type = Stem;
},
{
origin = (0,7);
target = (0,31);
type = Stem;
},
{
origin = (0,16);
target = (0,25);
type = Stem;
}
);
layerId = "10BC12B3-5274-42E3-B5BC-F74F362F0DF4";
shapes = (
{
closed = 1;
nodes = (
(420,0,l),
(420,950,ls),
(420,1058,o),
(506,1144,o),
(614,1144,cs),
(694,1144,o),
(760,1076,o),
(760,994,cs),
(760,912,o),
(694,857,o),
(614,844,cs),
(590,840,l),
(590,598,l),
(672,594,ls),
(776,589,o),
(860,516,o),
(860,424,cs),
(860,332,o),
(776,254,o),
(672,254,cs),
(590,254,l),
(630,0,l),
(704,0,ls),
(936,0,o),
(1126,170,o),
(1126,402,cs),
(1126,526,o),
(1108,710,o),
(930,734,c),
(1034,782,o),
(1060,906,o),
(1060,994,cs),
(1060,1228,o),
(880,1400,o),
(650,1400,cs),
(356,1400,o),
(120,1162,o),
(120,870,cs),
(120,0,l)
);
}
);
width = 1186;
},
{
anchors = (
{
name = bottom;
pos = (505,0);
},
{
name = top;
pos = (505,1000);
}
);
hints = (
{
horizontal = 1;
origin = (0,38);
target = (0,20);
type = Stem;
},
{
horizontal = 1;
origin = (0,12);
target = (0,11);
type = Stem;
},
{
horizontal = 1;
origin = (0,4);
target = (0,34);
type = Stem;
},
{
origin = (0,38);
target = (0,0);
type = Stem;
},
{
origin = (0,16);
target = (0,25);
type = Stem;
},
{
origin = (0,7);
target = (0,31);
type = Stem;
}
);
layerId = "9AF1F7D9-E035-453E-B2A8-46DE370997D0";
shapes = (
{
closed = 1;
nodes = (
(180,0,l),
(180,994,ls),
(180,1184,o),
(334,1340,o),
(524,1340,cs),
(682,1340,o),
(812,1200,o),
(812,1030,cs),
(812,860,o),
(682,722,o),
(524,722,cs),
(496,722,l),
(496,662,l),
(590,662,ls),
(756,662,o),
(890,528,o),
(890,362,cs),
(890,196,o),
(756,60,o),
(590,60,cs),
(496,60,l),
(516,0,l),
(590,0,ls),
(788,0,o),
(950,162,o),
(950,362,cs),
(950,526,o),
(842,664,o),
(692,708,c),
(798,770,o),
(872,892,o),
(872,1030,cs),
(872,1232,o),
(716,1400,o),
(524,1400,cs),
(300,1400,o),
(120,1216,o),
(120,994,cs),
(120,0,l)
);
}
);
width = 1010;
}
);
unicode = 223;
},
{
glyphname = t;
kernLeft = t;
kernRight = t;
lastChange = "2022-05-07 00:44:13 +0000";
layers = (
{
anchors = (
{
name = bottom;
pos = (350,0);
},
{
name = center;
pos = (365,500);
},
{
name = top;
pos = (350,1314);
},
{
name = topright;
pos = (618,1102);
}
);
hints = (
{
horizontal = 1;
origin = (0,8);
target = up;
type = BottomGhost;
},
{
horizontal = 1;
origin = (0,5);
target = (0,6);
type = Stem;
},
{
origin = (0,8);
target = (0,9);
type = Stem;
},
{
origin = (0,6);
target = (0,9);
type = Stem;
}
);
layerId = "10BC12B3-5274-42E3-B5BC-F74F362F0DF4";
shapes = (
{
closed = 1;
nodes = (
(670,1000,l),
(500,1000,l),
(500,1314,l),
(200,1314,l),
(200,1000,l),
(70,1000,l),
(70,700,l),
(200,700,l),
(200,0,l),
(500,0,l),
(500,700,l),
(670,700,l)
);
}
);
width = 730;
},
{
anchors = (
{
name = bottom;
pos = (306,0);
},
{
name = center;
pos = (335,500);
},
{
name = top;
pos = (306,1314);
},
{
name = topright;
pos = (518,1102);
}
);
hints = (
{
horizontal = 1;
origin = (0,8);
target = up;
type = BottomGhost;
},
{
horizontal = 1;
origin = (0,5);
target = (0,6);
type = Stem;
},
{
place = (277, 60);
place = (277, 60);
type = Stem;
}
);
layerId = "9AF1F7D9-E035-453E-B2A8-46DE370997D0";
shapes = (
{
closed = 1;
nodes = (
(612,1000,l),
(338,1000,l),
(336,1314,l),
(276,1314,l),
(278,1000,l),
(72,1000,l),
(72,940,l),
(278,940,l),
(276,0,l),
(336,0,l),
(338,940,l),
(612,940,l)
);
}
);
width = 670;
}
);
unicode = 116;
},
{
glyphname = u;
kernLeft = u;
kernRight = u;
lastChange = "2022-05-07 00:44:13 +0000";
layers = (
{
anchors = (
{
name = bottom;
pos = (588,2);
},
{
name = ogonek;
pos = (1019,2);
},
{
name = top;
pos = (588,1002);
},
{
name = topright;
pos = (1196,1002);
}
);
hints = (
{
horizontal = 1;
place = (0, 21);
target = up;
type = BottomGhost;
},
{
horizontal = 1;
place = (1000, -20);
target = down;
type = TopGhost;
},
{
horizontal = 1;
place = (-28, 290);
place = (-28, 290);
type = Stem;
},
{
place = (120, 300);
place = (120, 300);
type = Stem;
},
{
place = (836, 300);
place = (836, 300);
type = Stem;
}
);
layerId = "10BC12B3-5274-42E3-B5BC-F74F362F0DF4";
shapes = (
{
closed = 1;
nodes = (
(80,148,o),
(254,-26,o),
(469,-26,cs),
(564,-26,o),
(651,8,o),
(718,65,c),
(719,0,l),
(1019,0,l),
(1018,1000,l),
(718,1000,l),
(718,447,ls),
(718,353,o),
(643,278,o),
(549,278,cs),
(456,278,o),
(380,353,o),
(380,447,cs),
(380,1000,l),
(80,1000,l),
(80,363,ls)
);
}
);
width = 1099;
},
{
anchors = (
{
name = bottom;
pos = (499,0);
},
{
name = ogonek;
pos = (918,0);
},
{
name = top;
pos = (499,1000);
},
{
name = topright;
pos = (1018,1000);
}
);
hints = (
{
horizontal = 1;
place = (-26, 60);
place = (-26, 60);
type = Stem;
},
{
horizontal = 1;
place = (1000, -20);
target = down;
type = TopGhost;
},
{
horizontal = 1;
place = (0, 21);
target = up;
type = BottomGhost;
},
{
place = (120, 60);
place = (120, 60);
type = Stem;
},
{
place = (898, 60);
place = (898, 60);
type = Stem;
}
);
layerId = "9AF1F7D9-E035-453E-B2A8-46DE370997D0";
shapes = (
{
closed = 1;
nodes = (
(80,161,o),
(267,-26,o),
(499,-26,cs),
(651,-26,o),
(785,55,o),
(858,177,c),
(858,0,l),
(918,0,l),
(918,1000,l),
(858,1000,l),
(858,393,ls),
(858,194,o),
(697,34,o),
(499,34,cs),
(301,34,o),
(140,194,o),
(140,393,cs),
(140,1000,l),
(80,1000,l),
(80,393,ls)
);
}
);
width = 998;
}
);
unicode = 117;
},
{
glyphname = v;
kernLeft = w;
kernRight = w;
lastChange = "2022-05-07 08:20:38 +0000";
layers = (
{
anchors = (
{
name = bottom;
pos = (618,0);
},
{
name = top;
pos = (618,1000);
}
);
hints = (
{
horizontal = 1;
origin = (0,5);
target = up;
type = BottomGhost;
},
{
horizontal = 1;
origin = (0,4);
target = down;
type = TopGhost;
}
);
layerId = "10BC12B3-5274-42E3-B5BC-F74F362F0DF4";
shapes = (
{
closed = 1;
nodes = (
(1176,1000,l),
(856,1000,l),
(618,344,l),
(380,1000,l),
(60,1000,l),
(424,0,l),
(812,0,l)
);
}
);
width = 1236;
},
{
anchors = (
{
name = bottom;
pos = (462,0);
},
{
name = top;
pos = (462,1000);
}
);
hints = (
{
horizontal = 1;
origin = (0,5);
target = up;
type = BottomGhost;
},
{
horizontal = 1;
origin = (0,4);
target = down;
type = TopGhost;
},
{
horizontal = 1;
origin = (0,5);
target = (0,2);
type = Stem;
}
);
layerId = "9AF1F7D9-E035-453E-B2A8-46DE370997D0";
shapes = (
{
closed = 1;
nodes = (
(864,1004,l),
(800,1004,l),
(462,74,l),
(124,1004,l),
(60,1004,l),
(426,0,l),
(498,0,l)
);
}
);
width = 924;
}
);
metricLeft = w;
metricRight = w;
unicode = 118;
},
{
glyphname = w;
kernLeft = w;
kernRight = w;
lastChange = "2022-05-07 00:44:13 +0000";
layers = (
{
anchors = (
{
name = bottom;
pos = (874,0);
},
{
name = top;
pos = (874,1000);
}
);
hints = (
{
horizontal = 1;
origin = (0,11);
target = up;
type = BottomGhost;
},
{
horizontal = 1;
origin = (0,10);
target = down;
type = TopGhost;
}
);
layerId = "10BC12B3-5274-42E3-B5BC-F74F362F0DF4";
shapes = (
{
closed = 1;
nodes = (
(874,562,l),
(1060,0,l),
(1354,0,l),
(1688,1000,l),
(1394,1000,l),
(1206,438,l),
(1020,1000,l),
(728,1000,l),
(542,438,l),
(354,1000,l),
(60,1000,l),
(394,0,l),
(688,0,l)
);
}
);
width = 1748;
},
{
anchors = (
{
name = bottom;
pos = (782,0);
},
{
name = top;
pos = (782,1000);
}
);
hints = (
{
horizontal = 1;
origin = (0,11);
target = (0,8);
type = Stem;
},
{
horizontal = 1;
origin = (0,10);
target = down;
type = TopGhost;
},
{
horizontal = 1;
origin = (0,10);
target = (0,0);
type = Stem;
}
);
layerId = "9AF1F7D9-E035-453E-B2A8-46DE370997D0";
shapes = (
{
closed = 1;
nodes = (
(780,940,l),
(1098,0,l),
(1168,0,l),
(1504,1000,l),
(1444,1000,l),
(1132,72,l),
(820,1000,l),
(744,1000,l),
(432,72,l),
(118,1000,l),
(60,1000,l),
(396,0,l),
(464,0,l)
);
}
);
width = 1564;
}
);
unicode = 119;
},
{
glyphname = x;
kernLeft = x;
kernRight = x;
lastChange = "2022-05-07 00:44:13 +0000";
layers = (
{
anchors = (
{
name = bottom;
pos = (631,0);
},
{
name = top;
pos = (631,1000);
}
);
hints = (
{
horizontal = 1;
origin = (0,11);
target = up;
type = BottomGhost;
},
{
horizontal = 1;
origin = (0,9);
target = down;
type = TopGhost;
}
);
layerId = "10BC12B3-5274-42E3-B5BC-F74F362F0DF4";
shapes = (
{
closed = 1;
nodes = (
(450,0,l),
(630,248,l),
(812,0,l),
(1182,0,l),
(816,502,l),
(1178,1000,l),
(808,1000,l),
(630,758,l),
(454,1000,l),
(84,1000,l),
(446,502,l),
(80,0,l)
);
}
);
width = 1262;
},
{
anchors = (
{
name = bottom;
pos = (483,0);
},
{
name = top;
pos = (483,1000);
}
);
hints = (
{
horizontal = 1;
origin = (0,11);
target = up;
type = BottomGhost;
},
{
horizontal = 1;
origin = (0,9);
target = down;
type = TopGhost;
}
);
layerId = "9AF1F7D9-E035-453E-B2A8-46DE370997D0";
shapes = (
{
closed = 1;
nodes = (
(154,0,l),
(484,452,l),
(812,0,l),
(886,0,l),
(520,502,l),
(886,1004,l),
(812,1004,l),
(484,554,l),
(154,1004,l),
(80,1004,l),
(446,502,l),
(80,0,l)
);
}
);
width = 966;
}
);
unicode = 120;
},
{
glyphname = y;
kernLeft = y;
kernRight = y;
lastChange = "2022-05-07 00:44:13 +0000";
layers = (
{
anchors = (
{
name = bottom;
pos = (865,0);
},
{
name = top;
pos = (603,1000);
}
);
hints = (
{
horizontal = 1;
origin = (0,4);
target = up;
type = BottomGhost;
},
{
horizontal = 1;
origin = (0,2);
target = down;
type = TopGhost;
}
);
layerId = "10BC12B3-5274-42E3-B5BC-F74F362F0DF4";
shapes = (
{
closed = 1;
nodes = (
(590,410,l),
(408,1000,l),
(80,1000,l),
(440,0,l),
(260,-500,l),
(578,-500,l),
(1126,1000,l),
(806,1000,l)
);
}
);
width = 1206;
},
{
anchors = (
{
name = bottom;
pos = (630,0);
},
{
name = top;
pos = (473,1000);
}
);
hints = (
{
horizontal = 1;
origin = (0,4);
target = up;
type = BottomGhost;
},
{
horizontal = 1;
origin = (0,2);
target = down;
type = TopGhost;
}
);
layerId = "9AF1F7D9-E035-453E-B2A8-46DE370997D0";
shapes = (
{
closed = 1;
nodes = (
(468,84,l),
(146,1000,l),
(80,1000,l),
(438,0,l),
(256,-500,l),
(320,-500,l),
(866,1000,l),
(804,1000,l)
);
}
);
width = 946;
}
);
unicode = 121;
},
{
glyphname = z;
kernLeft = z;
kernRight = z;
lastChange = "2022-05-07 00:44:13 +0000";
layers = (
{
anchors = (
{
name = bottom;
pos = (507,0);
},
{
name = center;
pos = (507,500);
},
{
name = top;
pos = (507,1000);
}
);
background = {
shapes = (
{
closed = 1;
nodes = (
(934,1000,l),
(80,1000,l),
(80,700,l),
(500,700,l),
(80,300,l),
(80,0,l),
(934,0,l),
(934,300,l),
(514,300,l),
(934,700,l)
);
}
);
};
hints = (
{
horizontal = 1;
origin = (0,5);
target = (0,4);
type = Stem;
},
{
horizontal = 1;
origin = (0,1);
target = (0,2);
type = Stem;
},
{
origin = (0,5);
target = (0,6);
type = Stem;
}
);
layerId = "10BC12B3-5274-42E3-B5BC-F74F362F0DF4";
shapes = (
{
closed = 1;
nodes = (
(934,1000,l),
(80,1000,l),
(80,700,l),
(500,700,l),
(80,300,l),
(80,0,l),
(934,0,l),
(934,300,l),
(514,300,l),
(934,700,l)
);
}
);
width = 1014;
},
{
anchors = (
{
name = bottom;
pos = (507,0);
},
{
name = center;
pos = (507,500);
},
{
name = top;
pos = (507,1000);
}
);
hints = (
{
horizontal = 1;
origin = (0,5);
target = (0,4);
type = Stem;
},
{
horizontal = 1;
origin = (0,1);
target = (0,2);
type = Stem;
}
);
layerId = "9AF1F7D9-E035-453E-B2A8-46DE370997D0";
shapes = (
{
closed = 1;
nodes = (
(934,1000,l),
(80,1000,l),
(80,940,l),
(854,940,l),
(80,60,l),
(80,0,l),
(934,0,l),
(934,60,l),
(160,60,l),
(934,940,l)
);
}
);
width = 1014;
}
);
unicode = 122;
},
{
glyphname = mu;
kernLeft = p;
kernRight = u;
lastChange = "2022-05-07 00:44:13 +0000";
layers = (
{
hints = (
{
horizontal = 1;
origin = (0,1);
target = up;
type = BottomGhost;
},
{
horizontal = 1;
origin = (0,20);
target = down;
type = TopGhost;
},
{
horizontal = 1;
origin = (0,4);
target = (0,15);
type = Stem;
},
{
origin = (0,21);
target = (0,0);
type = Stem;
},
{
origin = (0,8);
target = (0,9);
type = Stem;
}
);
layerId = "10BC12B3-5274-42E3-B5BC-F74F362F0DF4";
shapes = (
{
closed = 1;
nodes = (
(380,-432,l),
(380,0,l),
(430,-18,o),
(484,-28,o),
(544,-28,cs),
(652,-28,o),
(734,22,o),
(796,92,c),
(796,0,l),
(1096,0,l),
(1096,1000,l),
(796,1000,l),
(796,500,ls),
(796,368,o),
(728,262,o),
(598,262,cs),
(466,262,o),
(380,368,o),
(380,500,cs),
(380,1000,l),
(80,1000,l),
(80,-432,l)
);
}
);
width = 1176;
},
{
hints = (
{
horizontal = 1;
origin = (0,4);
target = (0,15);
type = Stem;
},
{
horizontal = 1;
origin = (0,20);
target = down;
type = TopGhost;
},
{
horizontal = 1;
origin = (0,8);
target = up;
type = BottomGhost;
},
{
origin = (0,21);
target = (0,0);
type = Stem;
},
{
origin = (0,8);
target = (0,9);
type = Stem;
}
);
layerId = "9AF1F7D9-E035-453E-B2A8-46DE370997D0";
shapes = (
{
closed = 1;
nodes = (
(140,-432,l),
(140,208,l),
(212,70,o),
(342,-26,o),
(500,-26,cs),
(648,-26,o),
(776,60,o),
(858,206,c),
(858,0,l),
(918,0,l),
(918,1000,l),
(858,1000,l),
(858,452,ls),
(858,222,o),
(696,34,o),
(500,34,cs),
(302,34,o),
(140,222,o),
(140,452,cs),
(140,1000,l),
(80,1000,l),
(80,-432,l)
);
}
);
width = 998;
}
);
unicode = 956;
},
{
glyphname = zero;
kernLeft = zero;
kernRight = zero;
lastChange = "2022-05-07 00:44:13 +0000";
layers = (
{
hints = (
{
horizontal = 1;
origin = (0,11);
target = (1,11);
type = Stem;
},
{
horizontal = 1;
origin = (0,5);
target = (1,5);
type = Stem;
},
{
origin = (0,8);
target = (1,2);
type = Stem;
},
{
origin = (1,8);
target = (0,2);
type = Stem;
}
);
layerId = "10BC12B3-5274-42E3-B5BC-F74F362F0DF4";
shapes = (
{
closed = 1;
nodes = (
(930,-26,o),
(1158,300,o),
(1158,700,cs),
(1158,1100,o),
(930,1426,o),
(610,1426,cs),
(290,1426,o),
(60,1100,o),
(60,700,cs),
(60,300,o),
(290,-26,o),
(610,-26,cs)
);
},
{
closed = 1;
nodes = (
(426,274,o),
(340,484,o),
(340,700,cs),
(340,918,o),
(424,1126,o),
(610,1126,cs),
(788,1126,o),
(878,930,o),
(878,700,cs),
(878,482,o),
(796,274,o),
(610,274,cs)
);
}
);
width = 1218;
},
{
hints = (
{
horizontal = 1;
origin = (0,11);
target = (1,11);
type = Stem;
},
{
horizontal = 1;
origin = (0,5);
target = (1,5);
type = Stem;
},
{
origin = (0,8);
target = (1,2);
type = Stem;
},
{
origin = (1,8);
target = (0,2);
type = Stem;
}
);
layerId = "9AF1F7D9-E035-453E-B2A8-46DE370997D0";
shapes = (
{
closed = 1;
nodes = (
(930,-26,o),
(1118,300,o),
(1118,700,cs),
(1118,1102,o),
(930,1426,o),
(590,1426,cs),
(248,1426,o),
(60,1102,o),
(60,700,cs),
(60,300,o),
(248,-26,o),
(590,-26,cs)
);
},
{
closed = 1;
nodes = (
(286,34,o),
(120,332,o),
(120,700,cs),
(120,1058,o),
(276,1366,o),
(590,1366,cs),
(888,1366,o),
(1058,1082,o),
(1058,700,cs),
(1058,336,o),
(894,34,o),
(590,34,cs)
);
}
);
width = 1178;
}
);
unicode = 48;
},
{
glyphname = one;
kernLeft = one;
kernRight = one;
lastChange = "2022-05-07 00:44:13 +0000";
layers = (
{
hints = (
{
horizontal = 1;
origin = (0,5);
target = up;
type = BottomGhost;
},
{
horizontal = 1;
origin = (0,2);
target = (0,3);
type = Stem;
},
{
origin = (0,5);
target = (0,0);
type = Stem;
}
);
layerId = "10BC12B3-5274-42E3-B5BC-F74F362F0DF4";
shapes = (
{
closed = 1;
nodes = (
(570,0,l),
(570,1400,l),
(160,1400,l),
(80,1100,l),
(270,1100,l),
(270,0,l)
);
}
);
width = 730;
},
{
hints = (
{
horizontal = 1;
origin = (0,5);
target = up;
type = BottomGhost;
},
{
horizontal = 1;
origin = (0,2);
target = (0,3);
type = Stem;
},
{
origin = (0,5);
target = (0,0);
type = Stem;
}
);
layerId = "9AF1F7D9-E035-453E-B2A8-46DE370997D0";
shapes = (
{
closed = 1;
nodes = (
(270,0,l),
(270,1400,l),
(100,1400,l),
(80,1340,l),
(210,1340,l),
(210,0,l)
);
}
);
width = 430;
}
);
unicode = 49;
},
{
glyphname = two;
kernLeft = two;
kernRight = two;
lastChange = "2022-05-07 00:44:13 +0000";
layers = (
{
hints = (
{
horizontal = 1;
origin = (0,22);
target = (0,2);
type = Stem;
},
{
horizontal = 1;
origin = (0,8);
target = (0,15);
type = Stem;
},
{
origin = (0,11);
target = (0,12);
type = Stem;
},
{
origin = (0,18);
target = (0,0);
type = Stem;
}
);
layerId = "10BC12B3-5274-42E3-B5BC-F74F362F0DF4";
shapes = (
{
closed = 1;
nodes = (
(1052,0,l),
(1052,300,l),
(632,300,l),
(900,560,o),
(1052,718,o),
(1052,940,cs),
(1052,1210,o),
(834,1426,o),
(568,1426,cs),
(306,1426,o),
(82,1216,o),
(82,940,c),
(382,940,l),
(382,1042,o),
(466,1126,o),
(568,1126,cs),
(670,1126,o),
(752,1042,o),
(752,940,cs),
(752,772,o),
(266,384,o),
(80,268,c),
(80,0,l)
);
}
);
width = 1172;
},
{
hints = (
{
horizontal = 1;
origin = (0,22);
target = (0,2);
type = Stem;
},
{
horizontal = 1;
origin = (0,8);
target = (0,15);
type = Stem;
},
{
origin = (0,11);
target = (0,12);
type = Stem;
},
{
origin = (0,18);
target = (0,5);
type = Stem;
}
);
layerId = "9AF1F7D9-E035-453E-B2A8-46DE370997D0";
shapes = (
{
closed = 1;
nodes = (
(928,0,l),
(928,60,l),
(178,60,l),
(454,314,o),
(896,780,o),
(896,1026,cs),
(896,1246,o),
(718,1426,o),
(500,1426,cs),
(280,1426,o),
(102,1246,o),
(102,1026,c),
(162,1026,l),
(162,1212,o),
(314,1366,o),
(500,1366,cs),
(686,1366,o),
(836,1212,o),
(836,1026,cs),
(836,782,o),
(400,372,o),
(80,52,c),
(80,0,l)
);
}
);
width = 1048;
}
);
unicode = 50;
},
{
glyphname = three;
kernLeft = three;
kernRight = three;
lastChange = "2022-05-07 00:44:13 +0000";
layers = (
{
hints = (
{
horizontal = 1;
origin = (0,38);
target = (0,31);
type = Stem;
},
{
horizontal = 1;
origin = (0,25);
target = (0,24);
type = Stem;
},
{
horizontal = 1;
origin = (0,18);
target = (0,11);
type = Stem;
},
{
horizontal = 1;
origin = (0,14);
target = (0,11);
type = Stem;
},
{
horizontal = 1;
origin = (0,38);
target = (0,35);
type = Stem;
},
{
origin = (0,35);
target = (0,34);
type = Stem;
},
{
origin = (0,28);
target = (0,2);
type = Stem;
},
{
origin = (0,21);
target = (0,8);
type = Stem;
}
);
layerId = "10BC12B3-5274-42E3-B5BC-F74F362F0DF4";
shapes = (
{
closed = 1;
nodes = (
(776,-26,o),
(984,182,o),
(984,436,cs),
(984,556,o),
(930,704,o),
(826,744,c),
(906,786,o),
(946,902,o),
(946,996,cs),
(946,1236,o),
(746,1428,o),
(512,1428,cs),
(274,1428,o),
(60,1234,o),
(60,996,c),
(360,996,l),
(360,1068,o),
(442,1128,o),
(516,1128,cs),
(588,1128,o),
(646,1068,o),
(646,996,cs),
(646,896,o),
(556,846,o),
(410,846,c),
(410,618,l),
(576,618,o),
(684,558,o),
(684,436,cs),
(684,348,o),
(610,274,o),
(522,274,cs),
(434,274,o),
(360,348,o),
(360,436,c),
(60,436,l),
(60,180,o),
(270,-26,o),
(522,-26,cs)
);
}
);
width = 1044;
},
{
background = {
shapes = (
{
closed = 1;
nodes = (
(908,708,o),
(822,746,c),
(906,804,o),
(942,902,o),
(942,1000,c),
(942,1248,o),
(742,1424,o),
(498,1424,c),
(252,1424,o),
(54,1246,o),
(54,1000,c),
(354,1000,l),
(354,1080,o),
(418,1144,o),
(498,1144,c),
(576,1144,o),
(642,1080,o),
(642,1000,c),
(642,936,o),
(568,830,o),
(390,830,c),
(390,648,l),
(618,648,o),
(678,530,o),
(678,446,c),
(678,352,o),
(600,274,o),
(504,274,c),
(410,274,o),
(332,352,o),
(332,446,c),
(32,446,l),
(32,184,o),
(244,-26,o),
(504,-26,c),
(764,-26,o),
(978,186,o),
(978,446,c),
(978,560,o)
);
}
);
};
hints = (
{
horizontal = 1;
origin = (0,38);
target = (0,31);
type = Stem;
},
{
horizontal = 1;
origin = (0,25);
target = (0,24);
type = Stem;
},
{
horizontal = 1;
origin = (0,11);
target = (0,18);
type = Stem;
},
{
origin = (0,35);
target = (0,34);
type = Stem;
},
{
origin = (0,28);
target = (0,2);
type = Stem;
},
{
origin = (0,14);
target = (0,15);
type = Stem;
},
{
origin = (0,21);
target = (0,8);
type = Stem;
}
);
layerId = "9AF1F7D9-E035-453E-B2A8-46DE370997D0";
shapes = (
{
closed = 1;
nodes = (
(694,-26,o),
(892,152,o),
(892,370,cs),
(892,546,o),
(796,678,o),
(614,738,c),
(754,784,o),
(848,906,o),
(848,1066,cs),
(848,1264,o),
(666,1426,o),
(468,1426,cs),
(268,1426,o),
(86,1264,o),
(86,1066,c),
(146,1066,l),
(146,1230,o),
(302,1366,o),
(468,1366,cs),
(632,1366,o),
(788,1230,o),
(788,1066,cs),
(788,870,o),
(636,766,o),
(412,766,c),
(412,706,l),
(652,706,o),
(832,594,o),
(832,370,cs),
(832,184,o),
(660,34,o),
(476,34,cs),
(250,34,o),
(120,184,o),
(120,370,c),
(60,370,l),
(60,152,o),
(218,-26,o),
(476,-26,cs)
);
}
);
width = 952;
}
);
unicode = 51;
},
{
glyphname = four;
kernLeft = four;
kernRight = four;
lastChange = "2022-05-07 00:44:13 +0000";
layers = (
{
hints = (
{
horizontal = 1;
origin = (0,10);
target = up;
type = BottomGhost;
},
{
horizontal = 1;
origin = (0,8);
target = (0,7);
type = Stem;
},
{
horizontal = 1;
origin = (0,6);
target = down;
type = TopGhost;
},
{
origin = (0,10);
target = (0,0);
type = Stem;
},
{
origin = (0,10);
target = (0,2);
type = Stem;
}
);
layerId = "10BC12B3-5274-42E3-B5BC-F74F362F0DF4";
shapes = (
{
closed = 1;
nodes = (
(972,0,l),
(972,310,l),
(1074,310,l),
(1074,610,l),
(972,610,l),
(972,1400,l),
(604,1400,l),
(80,610,l),
(80,310,l),
(672,310,l),
(672,0,l)
);
},
{
closed = 1;
nodes = (
(672,996,l),
(672,610,l),
(426,610,l)
);
}
);
width = 1194;
},
{
hints = (
{
horizontal = 1;
origin = (0,10);
target = up;
type = BottomGhost;
},
{
horizontal = 1;
origin = (0,8);
target = (1,1);
type = Stem;
},
{
horizontal = 1;
origin = (0,6);
target = down;
type = TopGhost;
},
{
horizontal = 1;
place = (434, 62);
place = (434, 62);
type = Stem;
},
{
horizontal = 1;
origin = (0,6);
target = (1,0);
type = Stem;
},
{
origin = (0,10);
target = (0,0);
type = Stem;
},
{
place = (688, 62);
place = (688, 62);
type = Stem;
}
);
layerId = "9AF1F7D9-E035-453E-B2A8-46DE370997D0";
shapes = (
{
closed = 1;
nodes = (
(750,0,l),
(750,434,l),
(920,434,l),
(920,494,l),
(750,494,l),
(750,1400,l),
(670,1400,l),
(80,498,l),
(80,434,l),
(690,434,l),
(690,0,l)
);
},
{
closed = 1;
nodes = (
(686,1302,l),
(690,494,l),
(156,498,l)
);
}
);
width = 1040;
}
);
unicode = 52;
},
{
glyphname = five;
kernLeft = five;
kernRight = five;
lastChange = "2022-05-07 00:44:13 +0000";
layers = (
{
hints = (
{
horizontal = 1;
origin = (0,25);
target = (0,18);
type = Stem;
},
{
horizontal = 1;
place = (660, 299);
place = (660, 299);
type = Stem;
},
{
horizontal = 1;
origin = (0,10);
target = (0,7);
type = Stem;
},
{
origin = (0,22);
target = (0,21);
type = Stem;
},
{
origin = (0,15);
target = (0,2);
type = Stem;
}
);
layerId = "10BC12B3-5274-42E3-B5BC-F74F362F0DF4";
shapes = (
{
closed = 1;
nodes = (
(834,-26,o),
(1052,196,o),
(1052,464,cs),
(1052,732,o),
(852,946,o),
(568,958,cs),
(504,960,l),
(534,1100,l),
(996,1100,l),
(996,1400,l),
(290,1400,l),
(134,660,l),
(504,660,ls),
(704,660,o),
(752,570,o),
(752,464,cs),
(752,358,o),
(666,274,o),
(562,274,cs),
(456,274,o),
(370,358,o),
(370,464,c),
(70,464,l),
(70,200,o),
(284,-26,o),
(562,-26,cs)
);
}
);
width = 1172;
},
{
hints = (
{
horizontal = 1;
origin = (0,25);
target = (0,18);
type = Stem;
},
{
horizontal = 1;
origin = (0,11);
target = (0,6);
type = Stem;
},
{
horizontal = 1;
origin = (0,10);
target = (0,7);
type = Stem;
},
{
origin = (0,22);
target = (0,21);
type = Stem;
},
{
origin = (0,15);
target = (0,2);
type = Stem;
}
);
layerId = "9AF1F7D9-E035-453E-B2A8-46DE370997D0";
shapes = (
{
closed = 1;
nodes = (
(754,-26,o),
(954,172,o),
(954,416,cs),
(954,682,o),
(758,858,o),
(472,858,cs),
(260,858,l),
(354,1340,l),
(936,1340,l),
(936,1400,l),
(306,1400,l),
(186,798,l),
(512,798,ls),
(722,798,o),
(894,626,o),
(894,416,cs),
(894,206,o),
(722,34,o),
(512,34,cs),
(300,34,o),
(130,206,o),
(130,416,c),
(70,416,l),
(70,172,o),
(266,-26,o),
(512,-26,cs)
);
}
);
width = 1074;
}
);
unicode = 53;
},
{
glyphname = six;
kernLeft = six;
kernRight = six;
lastChange = "2022-05-07 00:44:13 +0000";
layers = (
{
hints = (
{
horizontal = 1;
origin = (0,14);
target = (1,11);
type = Stem;
},
{
horizontal = 1;
origin = (0,7);
target = down;
type = TopGhost;
},
{
origin = (0,11);
target = (1,2);
type = Stem;
},
{
origin = (1,8);
target = (0,2);
type = Stem;
}
);
layerId = "10BC12B3-5274-42E3-B5BC-F74F362F0DF4";
shapes = (
{
closed = 1;
nodes = (
(826,-26,o),
(1050,200,o),
(1050,474,cs),
(1050,730,o),
(860,942,o),
(606,972,c),
(854,1400,l),
(506,1400,l),
(116,724,ls),
(70,646,o),
(50,560,o),
(50,474,cs),
(50,198,o),
(276,-26,o),
(548,-26,cs)
);
},
{
closed = 1;
nodes = (
(446,274,o),
(350,358,o),
(350,472,cs),
(350,576,o),
(430,674,o),
(550,674,cs),
(664,674,o),
(750,582,o),
(750,472,cs),
(750,372,o),
(664,274,o),
(548,274,cs)
);
}
);
width = 1110;
},
{
hints = (
{
horizontal = 1;
origin = (0,14);
target = (1,11);
type = Stem;
},
{
horizontal = 1;
place = (864, 61);
place = (864, 61);
type = Stem;
},
{
horizontal = 1;
origin = (0,7);
target = down;
type = TopGhost;
},
{
origin = (0,11);
target = (1,2);
type = Stem;
},
{
origin = (1,8);
target = (0,2);
type = Stem;
}
);
layerId = "9AF1F7D9-E035-453E-B2A8-46DE370997D0";
shapes = (
{
closed = 1;
nodes = (
(786,-26,o),
(1000,188,o),
(1000,450,cs),
(1000,820,o),
(594,1044,o),
(282,858,c),
(594,1400,l),
(524,1400,l),
(124,704,l),
(76,610,o),
(50,560,o),
(50,450,cs),
(50,188,o),
(264,-26,o),
(524,-26,cs)
);
},
{
closed = 1;
nodes = (
(302,34,o),
(110,216,o),
(110,452,cs),
(110,672,o),
(290,864,o),
(526,864,cs),
(754,864,o),
(940,680,o),
(940,452,cs),
(940,232,o),
(766,34,o),
(524,34,cs)
);
}
);
width = 1060;
}
);
unicode = 54;
},
{
glyphname = seven;
kernLeft = seven;
kernRight = seven;
lastChange = "2022-05-07 00:44:13 +0000";
layers = (
{
hints = (
{
horizontal = 1;
origin = (0,6);
target = up;
type = BottomGhost;
},
{
horizontal = 1;
origin = (0,3);
target = (0,4);
type = Stem;
}
);
layerId = "10BC12B3-5274-42E3-B5BC-F74F362F0DF4";
shapes = (
{
closed = 1;
nodes = (
(440,0,l),
(1076,1100,l),
(1076,1400,l),
(40,1400,l),
(40,1100,l),
(728,1100,l),
(94,0,l)
);
}
);
width = 1116;
},
{
hints = (
{
horizontal = 1;
origin = (0,6);
target = up;
type = BottomGhost;
},
{
horizontal = 1;
origin = (0,3);
target = (0,4);
type = Stem;
}
);
layerId = "9AF1F7D9-E035-453E-B2A8-46DE370997D0";
shapes = (
{
closed = 1;
nodes = (
(232,0,l),
(1006,1340,l),
(1006,1400,l),
(40,1400,l),
(40,1340,l),
(936,1340,l),
(164,0,l)
);
}
);
width = 1046;
}
);
unicode = 55;
},
{
glyphname = eight;
kernLeft = eight;
kernRight = eight;
lastChange = "2022-05-07 00:44:13 +0000";
layers = (
{
hints = (
{
horizontal = 1;
origin = (0,23);
target = (1,11);
type = Stem;
},
{
horizontal = 1;
origin = (1,5);
target = (2,11);
type = Stem;
},
{
horizontal = 1;
origin = (0,11);
target = (2,5);
type = Stem;
},
{
origin = (0,20);
target = (1,2);
type = Stem;
},
{
origin = (1,8);
target = (0,2);
type = Stem;
},
{
origin = (0,14);
target = (2,2);
type = Stem;
},
{
origin = (2,8);
target = (0,8);
type = Stem;
}
);
layerId = "10BC12B3-5274-42E3-B5BC-F74F362F0DF4";
shapes = (
{
closed = 1;
nodes = (
(818,-26,o),
(1030,176,o),
(1030,426,cs),
(1030,542,o),
(984,652,o),
(900,736,c),
(962,810,o),
(1000,902,o),
(1000,1002,cs),
(1000,1236,o),
(800,1426,o),
(554,1426,cs),
(308,1426,o),
(108,1236,o),
(108,1002,cs),
(108,902,o),
(146,810,o),
(208,736,c),
(126,652,o),
(80,542,o),
(80,426,cs),
(80,174,o),
(290,-26,o),
(554,-26,cs)
);
},
{
closed = 1;
nodes = (
(466,274,o),
(394,342,o),
(394,426,cs),
(394,510,o),
(466,578,o),
(554,578,cs),
(642,578,o),
(714,510,o),
(714,426,cs),
(714,342,o),
(642,274,o),
(554,274,cs)
);
},
{
closed = 1;
nodes = (
(482,878,o),
(424,934,o),
(424,1002,cs),
(424,1070,o),
(482,1126,o),
(554,1126,cs),
(626,1126,o),
(684,1070,o),
(684,1002,cs),
(684,934,o),
(626,878,o),
(554,878,cs)
);
}
);
width = 1110;
},
{
hints = (
{
horizontal = 1;
origin = (0,23);
target = (1,11);
type = Stem;
},
{
horizontal = 1;
origin = (1,5);
target = (2,11);
type = Stem;
},
{
horizontal = 1;
origin = (0,11);
target = (2,5);
type = Stem;
},
{
origin = (0,20);
target = (1,2);
type = Stem;
},
{
origin = (1,8);
target = (0,2);
type = Stem;
},
{
origin = (0,14);
target = (2,2);
type = Stem;
},
{
origin = (2,8);
target = (0,8);
type = Stem;
}
);
layerId = "9AF1F7D9-E035-453E-B2A8-46DE370997D0";
shapes = (
{
closed = 1;
nodes = (
(750,-26,o),
(944,152,o),
(944,370,cs),
(944,536,o),
(832,678,o),
(674,738,c),
(808,794,o),
(906,920,o),
(906,1066,cs),
(906,1264,o),
(728,1426,o),
(512,1426,cs),
(296,1426,o),
(118,1264,o),
(118,1066,cs),
(118,920,o),
(216,794,o),
(350,738,c),
(194,678,o),
(80,536,o),
(80,370,cs),
(80,152,o),
(274,-26,o),
(512,-26,cs)
);
},
{
closed = 1;
nodes = (
(312,34,o),
(146,184,o),
(146,370,cs),
(146,556,o),
(312,706,o),
(512,706,cs),
(716,706,o),
(878,556,o),
(878,370,cs),
(878,184,o),
(716,34,o),
(512,34,cs)
);
},
{
closed = 1;
nodes = (
(330,766,o),
(184,900,o),
(184,1066,cs),
(184,1232,o),
(330,1366,o),
(512,1366,cs),
(694,1366,o),
(840,1232,o),
(840,1066,cs),
(840,900,o),
(694,766,o),
(512,766,cs)
);
}
);
width = 1024;
}
);
unicode = 56;
},
{
glyphname = nine;
kernLeft = nine;
kernRight = nine;
lastChange = "2022-05-07 00:44:13 +0000";
layers = (
{
hints = (
{
horizontal = 1;
origin = (0,14);
target = up;
type = BottomGhost;
},
{
horizontal = 1;
origin = (0,7);
target = (1,5);
type = Stem;
},
{
origin = (0,10);
target = (1,2);
type = Stem;
},
{
origin = (1,8);
target = (0,4);
type = Stem;
}
);
layerId = "10BC12B3-5274-42E3-B5BC-F74F362F0DF4";
shapes = (
{
closed = 1;
nodes = (
(604,0,l),
(994,676,ls),
(1040,754,o),
(1060,840,o),
(1060,926,cs),
(1060,1202,o),
(834,1426,o),
(562,1426,cs),
(284,1426,o),
(60,1200,o),
(60,926,cs),
(60,670,o),
(250,458,o),
(504,428,c),
(256,0,l)
);
},
{
closed = 1;
nodes = (
(446,726,o),
(360,818,o),
(360,928,cs),
(360,1028,o),
(446,1126,o),
(562,1126,cs),
(664,1126,o),
(760,1042,o),
(760,928,cs),
(760,824,o),
(680,726,o),
(560,726,cs)
);
}
);
width = 1120;
},
{
hints = (
{
horizontal = 1;
origin = (0,14);
target = up;
type = BottomGhost;
},
{
horizontal = 1;
place = (525, 57);
place = (525, 57);
type = Stem;
},
{
horizontal = 1;
origin = (0,7);
target = (1,5);
type = Stem;
},
{
origin = (0,10);
target = (1,2);
type = Stem;
},
{
origin = (1,8);
target = (0,4);
type = Stem;
}
);
layerId = "9AF1F7D9-E035-453E-B2A8-46DE370997D0";
shapes = (
{
closed = 1;
nodes = (
(468,0,l),
(888,734,l),
(934,824,o),
(960,870,o),
(960,974,cs),
(960,1222,o),
(756,1426,o),
(510,1426,cs),
(262,1426,o),
(60,1222,o),
(60,974,cs),
(60,624,o),
(444,412,o),
(740,588,c),
(400,0,l)
);
},
{
closed = 1;
nodes = (
(292,582,o),
(116,756,o),
(116,972,cs),
(116,1182,o),
(280,1368,o),
(510,1368,cs),
(720,1368,o),
(902,1196,o),
(902,972,cs),
(902,764,o),
(732,582,o),
(508,582,cs)
);
}
);
width = 1020;
}
);
unicode = 57;
},
{
glyphname = fraction;
kernLeft = frac_digits;
kernRight = fraction;
lastChange = "2022-05-07 00:44:13 +0000";
layers = (
{
hints = (
{
horizontal = 1;
origin = (0,3);
target = up;
type = BottomGhost;
},
{
horizontal = 1;
origin = (0,2);
target = down;
type = TopGhost;
}
);
layerId = "10BC12B3-5274-42E3-B5BC-F74F362F0DF4";
shapes = (
{
closed = 1;
nodes = (
(-58,0,l),
(750,1400,l),
(508,1400,l),
(-300,0,l)
);
}
);
width = 450;
},
{
hints = (
{
horizontal = 1;
origin = (0,3);
target = up;
type = BottomGhost;
},
{
horizontal = 1;
origin = (0,2);
target = down;
type = TopGhost;
}
);
layerId = "9AF1F7D9-E035-453E-B2A8-46DE370997D0";
shapes = (
{
closed = 1;
nodes = (
(-144,0,l),
(664,1400,l),
(594,1400,l),
(-214,0,l)
);
}
);
width = 450;
}
);
unicode = (8260,8725);
},
{
glyphname = zeroinferior;
kernLeft = zero.dnom;
kernRight = zero.dnom;
lastChange = "2022-05-07 00:44:13 +0000";
layers = (
{
hints = (
{
horizontal = 1;
origin = (0,11);
target = (1,11);
type = Stem;
},
{
horizontal = 1;
origin = (1,5);
target = (0,5);
type = Stem;
},
{
origin = (0,8);
target = (1,2);
type = Stem;
},
{
origin = (1,8);
target = (0,2);
type = Stem;
}
);
layerId = "10BC12B3-5274-42E3-B5BC-F74F362F0DF4";
shapes = (
{
closed = 1;
nodes = (
(463,-31,o),
(576,125,o),
(576,317,cs),
(576,506,o),
(463,662,o),
(324,662,cs),
(185,662,o),
(72,506,o),
(72,317,cs),
(72,125,o),
(185,-31,o),
(324,-31,cs)
);
},
{
closed = 1;
nodes = (
(269,137,o),
(240,238,o),
(240,317,cs),
(240,386,o),
(264,494,o),
(324,494,cs),
(377,494,o),
(408,391,o),
(408,317,cs),
(408,252,o),
(379,137,o),
(324,137,cs)
);
}
);
width = 648;
},
{
hints = (
{
horizontal = 1;
origin = (0,11);
target = (1,11);
type = Stem;
},
{
horizontal = 1;
origin = (1,5);
target = (0,5);
type = Stem;
},
{
origin = (0,8);
target = (1,2);
type = Stem;
},
{
origin = (1,8);
target = (0,2);
type = Stem;
}
);
layerId = "9AF1F7D9-E035-453E-B2A8-46DE370997D0";
shapes = (
{
closed = 1;
nodes = (
(463,-31,o),
(576,109,o),
(576,301,cs),
(576,493,o),
(463,636,o),
(324,636,cs),
(185,636,o),
(72,493,o),
(72,301,cs),
(72,109,o),
(185,-31,o),
(324,-31,cs)
);
},
{
closed = 1;
nodes = (
(218,41,o),
(144,167,o),
(144,301,cs),
(144,431,o),
(214,564,o),
(324,564,cs),
(430,564,o),
(504,438,o),
(504,301,cs),
(504,174,o),
(434,41,o),
(324,41,cs)
);
}
);
width = 648;
}
);
unicode = 8320;
},
{
glyphname = oneinferior;
kernLeft = one.dnom;
kernRight = one.dnom;
lastChange = "2022-05-07 00:44:13 +0000";
layers = (
{
hints = (
{
horizontal = 1;
origin = (0,5);
target = up;
type = BottomGhost;
},
{
horizontal = 1;
origin = (0,3);
target = (0,2);
type = Stem;
},
{
origin = (0,5);
target = (0,0);
type = Stem;
}
);
layerId = "10BC12B3-5274-42E3-B5BC-F74F362F0DF4";
shapes = (
{
closed = 1;
nodes = (
(322,0,l),
(322,631,l),
(120,631,l),
(96,463,l),
(154,463,l),
(154,0,l)
);
}
);
width = 466;
},
{
hints = (
{
horizontal = 1;
origin = (0,5);
target = up;
type = BottomGhost;
},
{
horizontal = 1;
origin = (0,3);
target = (0,2);
type = Stem;
},
{
origin = (0,5);
target = (0,0);
type = Stem;
}
);
layerId = "9AF1F7D9-E035-453E-B2A8-46DE370997D0";
shapes = (
{
closed = 1;
nodes = (
(257,0,l),
(257,631,l),
(106,631,l),
(96,559,l),
(185,559,l),
(185,0,l)
);
}
);
width = 401;
}
);
unicode = 8321;
},
{
glyphname = twoinferior;
kernLeft = two.dnom;
kernRight = two.dnom;
lastChange = "2022-05-07 00:44:13 +0000";
layers = (
{
hints = (
{
horizontal = 1;
origin = (0,22);
target = (0,2);
type = Stem;
},
{
horizontal = 1;
origin = (0,11);
target = (0,8);
type = Stem;
},
{
horizontal = 1;
origin = (0,15);
target = (0,8);
type = Stem;
},
{
origin = (0,22);
target = (0,0);
type = Stem;
},
{
origin = (0,22);
target = (0,12);
type = Stem;
},
{
origin = (0,18);
target = (0,5);
type = Stem;
}
);
layerId = "10BC12B3-5274-42E3-B5BC-F74F362F0DF4";
shapes = (
{
closed = 1;
nodes = (
(571,0,l),
(571,168,l),
(403,168,l),
(490,245,o),
(583,314,o),
(583,418,cs),
(583,552,o),
(475,662,o),
(341,662,cs),
(206,662,o),
(96,552,o),
(96,418,c),
(264,418,l),
(264,461,o),
(298,494,o),
(341,494,cs),
(382,494,o),
(415,461,o),
(415,418,c),
(343,281,o),
(211,226,o),
(96,146,c),
(96,0,l)
);
}
);
width = 727;
},
{
hints = (
{
horizontal = 1;
origin = (0,22);
target = (0,2);
type = Stem;
},
{
horizontal = 1;
origin = (0,15);
target = (0,8);
type = Stem;
},
{
origin = (0,22);
target = (0,12);
type = Stem;
},
{
origin = (0,18);
target = (0,0);
type = Stem;
}
);
layerId = "9AF1F7D9-E035-453E-B2A8-46DE370997D0";
shapes = (
{
closed = 1;
nodes = (
(526,0,l),
(526,72,l),
(218,72,l),
(341,156,o),
(526,326,o),
(526,446,cs),
(526,564,o),
(430,650,o),
(312,650,cs),
(192,650,o),
(96,564,o),
(96,446,c),
(168,446,l),
(168,526,o),
(233,578,o),
(312,578,cs),
(391,578,o),
(454,526,o),
(454,446,cs),
(454,331,o),
(194,139,o),
(96,74,c),
(96,0,l)
);
}
);
width = 670;
}
);
unicode = 8322;
},
{
glyphname = threeinferior;
kernLeft = three.dnom;
kernRight = three.dnom;
lastChange = "2022-05-07 00:44:13 +0000";
layers = (
{
hints = (
{
horizontal = 1;
origin = (0,38);
target = (0,35);
type = Stem;
},
{
horizontal = 1;
origin = (0,25);
target = (0,24);
type = Stem;
},
{
horizontal = 1;
origin = (0,14);
target = (0,11);
type = Stem;
},
{
horizontal = 1;
origin = (0,18);
target = (0,11);
type = Stem;
},
{
horizontal = 1;
origin = (0,38);
target = (0,31);
type = Stem;
},
{
origin = (0,35);
target = (0,34);
type = Stem;
},
{
origin = (0,28);
target = (0,2);
type = Stem;
},
{
origin = (0,14);
target = (0,15);
type = Stem;
},
{
origin = (0,21);
target = (0,8);
type = Stem;
},
{
origin = (0,25);
target = (0,8);
type = Stem;
}
);
layerId = "10BC12B3-5274-42E3-B5BC-F74F362F0DF4";
shapes = (
{
closed = 1;
nodes = (
(415,-31,o),
(516,70,o),
(516,192,cs),
(516,242,o),
(499,295,o),
(463,334,c),
(487,370,o),
(499,410,o),
(499,454,cs),
(499,569,o),
(406,662,o),
(290,662,cs),
(175,662,o),
(82,569,o),
(82,454,c),
(250,454,l),
(250,475,o),
(269,494,o),
(290,494,cs),
(312,494,o),
(331,475,o),
(331,454,cs),
(331,425,o),
(314,382,o),
(238,382,c),
(238,276,l),
(312,276,o),
(348,230,o),
(348,192,cs),
(348,161,o),
(324,137,o),
(295,137,cs),
(264,137,o),
(240,161,o),
(240,192,c),
(72,192,l),
(72,70,o),
(173,-31,o),
(295,-31,cs)
);
}
);
width = 588;
},
{
hints = (
{
horizontal = 1;
origin = (0,38);
target = (0,31);
type = Stem;
},
{
horizontal = 1;
origin = (0,25);
target = (0,24);
type = Stem;
},
{
horizontal = 1;
origin = (0,18);
target = (0,11);
type = Stem;
},
{
origin = (0,35);
target = (0,34);
type = Stem;
},
{
origin = (0,28);
target = (0,2);
type = Stem;
},
{
origin = (0,14);
target = (0,15);
type = Stem;
},
{
origin = (0,5);
target = (0,8);
type = Stem;
}
);
layerId = "9AF1F7D9-E035-453E-B2A8-46DE370997D0";
shapes = (
{
closed = 1;
nodes = (
(379,-31,o),
(468,46,o),
(468,156,cs),
(468,238,o),
(437,276,o),
(377,322,c),
(415,341,o),
(449,403,o),
(449,466,cs),
(449,566,o),
(367,636,o),
(266,636,cs),
(166,636,o),
(84,566,o),
(84,466,c),
(156,466,l),
(156,526,o),
(206,564,o),
(266,564,cs),
(326,564,o),
(377,526,o),
(377,466,cs),
(377,394,o),
(324,355,o),
(233,355,c),
(233,283,l),
(336,283,o),
(396,235,o),
(396,156,cs),
(396,86,o),
(341,41,o),
(271,41,cs),
(199,41,o),
(144,86,o),
(144,156,c),
(72,156,l),
(72,46,o),
(161,-31,o),
(271,-31,cs)
);
}
);
width = 540;
}
);
unicode = 8323;
},
{
glyphname = fourinferior;
kernLeft = four.dnom;
kernRight = four.dnom;
lastChange = "2022-05-07 00:44:13 +0000";
layers = (
{
hints = (
{
horizontal = 1;
origin = (0,10);
target = (1,2);
type = Stem;
},
{
horizontal = 1;
origin = (0,8);
target = (1,2);
type = Stem;
},
{
origin = (1,1);
target = (0,0);
type = Stem;
}
);
layerId = "10BC12B3-5274-42E3-B5BC-F74F362F0DF4";
shapes = (
{
closed = 1;
nodes = (
(499,0,l),
(499,86,l),
(552,86,l),
(552,254,l),
(499,254,l),
(499,631,l),
(314,631,l),
(96,288,l),
(96,86,l),
(331,86,l),
(331,0,l)
);
},
{
closed = 1;
nodes = (
(348,396,l),
(348,254,l),
(259,254,l)
);
}
);
width = 696;
},
{
hints = (
{
horizontal = 1;
origin = (0,10);
target = up;
type = BottomGhost;
},
{
horizontal = 1;
origin = (0,8);
target = (1,2);
type = Stem;
},
{
origin = (0,10);
target = (0,0);
type = Stem;
}
);
layerId = "9AF1F7D9-E035-453E-B2A8-46DE370997D0";
shapes = (
{
closed = 1;
nodes = (
(451,0,l),
(451,139,l),
(530,139,l),
(530,211,l),
(451,211,l),
(451,631,l),
(353,631,l),
(96,226,l),
(96,139,l),
(379,139,l),
(379,0,l)
);
},
{
closed = 1;
nodes = (
(379,535,l),
(379,211,l),
(173,211,l)
);
}
);
width = 674;
}
);
unicode = 8324;
},
{
glyphname = fiveinferior;
kernLeft = five.dnom;
kernRight = five.dnom;
lastChange = "2022-05-07 00:44:13 +0000";
layers = (
{
hints = (
{
horizontal = 1;
origin = (0,25);
target = (0,22);
type = Stem;
},
{
horizontal = 1;
origin = (0,11);
target = (0,6);
type = Stem;
},
{
horizontal = 1;
origin = (0,7);
target = (0,10);
type = Stem;
},
{
horizontal = 1;
origin = (0,25);
target = (0,18);
type = Stem;
},
{
origin = (0,22);
target = (0,21);
type = Stem;
},
{
origin = (0,15);
target = (0,2);
type = Stem;
}
);
layerId = "10BC12B3-5274-42E3-B5BC-F74F362F0DF4";
shapes = (
{
closed = 1;
nodes = (
(454,-31,o),
(562,74,o),
(562,206,cs),
(562,341,o),
(482,444,o),
(326,444,cs),
(302,444,l),
(302,485,l),
(490,485,l),
(490,631,l),
(149,631,l),
(113,276,l),
(322,276,ls),
(362,276,o),
(394,245,o),
(394,206,cs),
(394,168,o),
(362,137,o),
(322,137,cs),
(283,137,o),
(252,168,o),
(252,206,c),
(84,206,l),
(84,74,o),
(192,-31,o),
(322,-31,cs)
);
}
);
width = 706;
},
{
hints = (
{
horizontal = 1;
origin = (0,25);
target = (0,18);
type = Stem;
},
{
horizontal = 1;
origin = (0,12);
target = (0,5);
type = Stem;
},
{
horizontal = 1;
origin = (0,7);
target = (0,10);
type = Stem;
},
{
origin = (0,22);
target = (0,21);
type = Stem;
},
{
origin = (0,15);
target = (0,2);
type = Stem;
}
);
layerId = "9AF1F7D9-E035-453E-B2A8-46DE370997D0";
shapes = (
{
closed = 1;
nodes = (
(427,-31,o),
(526,55,o),
(526,178,cs),
(526,298,o),
(427,396,o),
(305,396,c),
(209,389,l),
(221,545,l),
(504,545,l),
(504,617,l),
(156,617,l),
(127,290,l),
(305,324,l),
(386,324,o),
(454,259,o),
(454,178,cs),
(454,96,o),
(386,41,o),
(305,41,cs),
(223,41,o),
(156,96,o),
(156,178,c),
(84,178,l),
(84,55,o),
(182,-31,o),
(305,-31,cs)
);
}
);
width = 670;
}
);
unicode = 8325;
},
{
glyphname = sixinferior;
kernLeft = six.dnom;
kernRight = six.dnom;
lastChange = "2022-05-07 00:44:13 +0000";
layers = (
{
hints = (
{
horizontal = 1;
origin = (0,13);
target = (1,11);
type = Stem;
},
{
horizontal = 1;
origin = (1,5);
target = (0,7);
type = Stem;
},
{
origin = (0,10);
target = (1,2);
type = Stem;
},
{
origin = (0,10);
target = (0,2);
type = Stem;
}
);
layerId = "10BC12B3-5274-42E3-B5BC-F74F362F0DF4";
shapes = (
{
closed = 1;
nodes = (
(456,-31,o),
(562,70,o),
(562,199,cs),
(562,305,o),
(502,389,o),
(384,427,c),
(502,629,l),
(307,629,l),
(113,293,o),
(96,274,o),
(96,202,cs),
(96,70,o),
(199,-31,o),
(329,-31,cs)
);
},
{
closed = 1;
nodes = (
(305,137,o),
(274,146,o),
(266,185,cs),
(259,218,o),
(278,264,o),
(329,264,cs),
(360,264,o),
(384,245,o),
(391,216,cs),
(401,175,o),
(370,137,o),
(329,137,cs)
);
}
);
width = 682;
},
{
hints = (
{
horizontal = 1;
origin = (0,13);
target = (1,11);
type = Stem;
},
{
horizontal = 1;
place = (350, 72);
place = (350, 72);
type = Stem;
},
{
origin = (0,10);
target = (1,2);
type = Stem;
},
{
origin = (1,8);
target = (0,2);
type = Stem;
}
);
layerId = "9AF1F7D9-E035-453E-B2A8-46DE370997D0";
shapes = (
{
closed = 1;
nodes = (
(451,-31,o),
(562,53,o),
(562,190,cs),
(562,331,o),
(425,454,o),
(274,415,c),
(391,619,l),
(307,619,l),
(134,326,o),
(96,269,o),
(96,190,cs),
(96,67,o),
(192,-31,o),
(329,-31,cs)
);
},
{
closed = 1;
nodes = (
(240,41,o),
(168,101,o),
(168,187,cs),
(168,278,o),
(240,350,o),
(329,350,cs),
(408,350,o),
(490,288,o),
(490,190,cs),
(490,101,o),
(418,41,o),
(329,41,cs)
);
}
);
width = 682;
}
);
unicode = 8326;
},
{
glyphname = seveninferior;
kernLeft = seven.dnom;
kernRight = seven.dnom;
lastChange = "2022-05-07 00:44:13 +0000";
layers = (
{
hints = (
{
horizontal = 1;
origin = (0,6);
target = up;
type = BottomGhost;
},
{
horizontal = 1;
origin = (0,4);
target = (0,3);
type = Stem;
},
{
origin = (0,4);
target = (0,1);
type = Stem;
}
);
layerId = "10BC12B3-5274-42E3-B5BC-F74F362F0DF4";
shapes = (
{
closed = 1;
nodes = (
(345,0,l),
(614,468,l),
(614,631,l),
(120,631,l),
(120,463,l),
(420,463,l),
(153,0,l)
);
}
);
width = 686;
},
{
hints = (
{
horizontal = 1;
origin = (0,6);
target = up;
type = BottomGhost;
},
{
horizontal = 1;
origin = (0,4);
target = (0,3);
type = Stem;
}
);
layerId = "9AF1F7D9-E035-453E-B2A8-46DE370997D0";
shapes = (
{
closed = 1;
nodes = (
(218,0,l),
(540,559,l),
(540,631,l),
(120,631,l),
(120,559,l),
(456,559,l),
(134,0,l)
);
}
);
width = 612;
}
);
unicode = 8327;
},
{
glyphname = eightinferior;
kernLeft = eight.dnom;
kernRight = eight.dnom;
lastChange = "2022-05-07 00:44:13 +0000";
layers = (
{
hints = (
{
horizontal = 1;
origin = (0,23);
target = (1,11);
type = Stem;
},
{
horizontal = 1;
origin = (2,5);
target = (0,11);
type = Stem;
},
{
origin = (0,20);
target = (1,2);
type = Stem;
},
{
origin = (1,8);
target = (0,2);
type = Stem;
},
{
origin = (0,14);
target = (2,2);
type = Stem;
},
{
origin = (2,8);
target = (0,8);
type = Stem;
}
);
layerId = "10BC12B3-5274-42E3-B5BC-F74F362F0DF4";
shapes = (
{
closed = 1;
nodes = (
(442,-31,o),
(540,65,o),
(540,187,cs),
(540,242,o),
(521,293,o),
(490,331,c),
(514,365,o),
(528,408,o),
(528,451,cs),
(528,569,o),
(432,662,o),
(317,662,cs),
(202,662,o),
(108,569,o),
(108,451,cs),
(108,408,o),
(122,365,o),
(146,331,c),
(115,293,o),
(96,242,o),
(96,187,cs),
(96,65,o),
(194,-31,o),
(317,-31,cs)
);
},
{
closed = 1;
nodes = (
(288,134,o),
(264,158,o),
(264,187,cs),
(264,218,o),
(288,242,o),
(317,242,cs),
(348,242,o),
(372,218,o),
(372,187,cs),
(372,158,o),
(348,134,o),
(317,134,cs)
);
},
{
closed = 1;
nodes = (
(295,410,o),
(276,430,o),
(276,451,cs),
(276,475,o),
(295,494,o),
(317,494,cs),
(341,494,o),
(360,475,o),
(360,451,cs),
(360,430,o),
(341,410,o),
(317,410,cs)
);
}
);
width = 636;
},
{
hints = (
{
horizontal = 1;
origin = (0,23);
target = (1,11);
type = Stem;
},
{
horizontal = 1;
origin = (1,5);
target = (2,11);
type = Stem;
},
{
horizontal = 1;
origin = (2,5);
target = (0,11);
type = Stem;
},
{
origin = (0,20);
target = (1,2);
type = Stem;
},
{
origin = (1,8);
target = (0,2);
type = Stem;
},
{
origin = (0,14);
target = (0,17);
type = Stem;
},
{
origin = (0,5);
target = (0,8);
type = Stem;
}
);
layerId = "9AF1F7D9-E035-453E-B2A8-46DE370997D0";
shapes = (
{
closed = 1;
nodes = (
(406,-31,o),
(497,46,o),
(497,156,cs),
(497,226,o),
(461,286,o),
(408,322,c),
(451,355,o),
(480,408,o),
(480,466,cs),
(480,569,o),
(398,638,o),
(295,638,cs),
(194,638,o),
(113,569,o),
(113,466,cs),
(113,408,o),
(142,355,o),
(185,322,c),
(132,286,o),
(96,226,o),
(96,156,cs),
(96,46,o),
(187,-31,o),
(295,-31,cs)
);
},
{
closed = 1;
nodes = (
(226,41,o),
(168,86,o),
(168,156,cs),
(168,226,o),
(226,283,o),
(295,283,cs),
(367,283,o),
(425,226,o),
(425,156,cs),
(425,86,o),
(367,41,o),
(295,41,cs)
);
},
{
closed = 1;
nodes = (
(235,355,o),
(185,406,o),
(185,466,cs),
(185,528,o),
(235,566,o),
(295,566,cs),
(358,566,o),
(408,528,o),
(408,466,cs),
(408,406,o),
(358,355,o),
(295,355,cs)
);
}
);
width = 593;
}
);
unicode = 8328;
},
{
glyphname = nineinferior;
kernLeft = nine.dnom;
kernRight = nine.dnom;
lastChange = "2022-05-07 00:44:13 +0000";
layers = (
{
hints = (
{
horizontal = 1;
origin = (0,11);
target = up;
type = BottomGhost;
},
{
horizontal = 1;
origin = (1,5);
target = (0,4);
type = Stem;
},
{
horizontal = 1;
origin = (0,11);
target = (1,11);
type = Stem;
},
{
origin = (0,7);
target = (1,2);
type = Stem;
},
{
place = (370, 167);
place = (370, 167);
type = Stem;
}
);
layerId = "10BC12B3-5274-42E3-B5BC-F74F362F0DF4";
shapes = (
{
closed = 1;
nodes = (
(324,0,l),
(506,314,ls),
(595,472,o),
(482,662,o),
(305,662,cs),
(175,662,o),
(72,557,o),
(72,430,cs),
(72,329,o),
(137,230,o),
(247,204,c),
(130,0,l)
);
},
{
closed = 1;
nodes = (
(281,365,o),
(240,379,o),
(240,427,cs),
(240,458,o),
(262,494,o),
(305,494,cs),
(336,494,o),
(370,463,o),
(370,432,cs),
(370,396,o),
(341,365,o),
(305,365,cs)
);
}
);
width = 658;
},
{
hints = (
{
horizontal = 1;
origin = (0,11);
target = up;
type = BottomGhost;
},
{
horizontal = 1;
place = (197, 72);
place = (197, 72);
type = Stem;
},
{
horizontal = 1;
origin = (1,5);
target = (0,4);
type = Stem;
},
{
place = (72, 74);
place = (72, 74);
type = Stem;
},
{
place = (466, 73);
place = (466, 73);
type = Stem;
}
);
layerId = "9AF1F7D9-E035-453E-B2A8-46DE370997D0";
shapes = (
{
closed = 1;
nodes = (
(325,0,l),
(507,314,ls),
(599,468,o),
(483,650,o),
(306,650,cs),
(227,650,o),
(147,622,o),
(104,545,cs),
(1,370,o),
(162,154,o),
(361,204,c),
(243,0,l)
);
},
{
closed = 1;
nodes = (
(241,269,o),
(171,312,o),
(150,389,cs),
(126,492,o),
(203,578,o),
(306,578,cs),
(371,578,o),
(440,547,o),
(462,470,c),
(486,365,o),
(409,269,o),
(306,269,cs)
);
}
);
width = 660;
}
);
unicode = 8329;
},
{
glyphname = zerosuperior;
kernLeft = zero.numr;
kernRight = zero.numr;
lastChange = "2022-05-07 00:44:13 +0000";
layers = (
{
hints = (
{
horizontal = 1;
origin = (0,11);
target = (1,11);
type = Stem;
},
{
horizontal = 1;
origin = (1,5);
target = (0,5);
type = Stem;
},
{
origin = (0,8);
target = (1,2);
type = Stem;
},
{
origin = (1,8);
target = (0,2);
type = Stem;
}
);
layerId = "10BC12B3-5274-42E3-B5BC-F74F362F0DF4";
shapes = (
{
closed = 1;
nodes = (
(463,798,o),
(576,942,o),
(576,1134,cs),
(576,1324,o),
(463,1468,o),
(324,1468,cs),
(185,1468,o),
(72,1324,o),
(72,1134,cs),
(72,942,o),
(185,798,o),
(324,798,cs)
);
},
{
closed = 1;
nodes = (
(269,954,o),
(240,1055,o),
(240,1134,cs),
(240,1204,o),
(264,1312,o),
(324,1312,cs),
(377,1312,o),
(408,1209,o),
(408,1134,cs),
(408,1070,o),
(379,954,o),
(324,954,cs)
);
}
);
width = 648;
},
{
hints = (
{
horizontal = 1;
origin = (0,11);
target = (1,11);
type = Stem;
},
{
horizontal = 1;
origin = (1,5);
target = (0,5);
type = Stem;
},
{
origin = (0,8);
target = (1,2);
type = Stem;
},
{
origin = (1,8);
target = (0,2);
type = Stem;
}
);
layerId = "9AF1F7D9-E035-453E-B2A8-46DE370997D0";
shapes = (
{
closed = 1;
nodes = (
(463,798,o),
(576,940,o),
(576,1132,cs),
(576,1324,o),
(463,1468,o),
(324,1468,cs),
(185,1468,o),
(72,1324,o),
(72,1132,cs),
(72,940,o),
(185,798,o),
(324,798,cs)
);
},
{
closed = 1;
nodes = (
(218,870,o),
(144,998,o),
(144,1132,cs),
(144,1262,o),
(214,1396,o),
(324,1396,cs),
(430,1396,o),
(504,1269,o),
(504,1132,cs),
(504,1005,o),
(434,870,o),
(324,870,cs)
);
}
);
width = 648;
}
);
unicode = 8304;
},
{
glyphname = onesuperior;
kernLeft = one.numr;
kernRight = one.numr;
lastChange = "2022-05-07 00:44:13 +0000";
layers = (
{
hints = (
{
horizontal = 1;
origin = (0,3);
target = (0,2);
type = Stem;
},
{
origin = (0,5);
target = (0,0);
type = Stem;
}
);
layerId = "10BC12B3-5274-42E3-B5BC-F74F362F0DF4";
shapes = (
{
closed = 1;
nodes = (
(322,818,l),
(322,1449,l),
(120,1449,l),
(96,1281,l),
(154,1281,l),
(154,818,l)
);
}
);
width = 466;
},
{
hints = (
{
horizontal = 1;
origin = (0,3);
target = (0,2);
type = Stem;
},
{
origin = (0,5);
target = (0,0);
type = Stem;
}
);
layerId = "9AF1F7D9-E035-453E-B2A8-46DE370997D0";
shapes = (
{
closed = 1;
nodes = (
(257,818,l),
(257,1449,l),
(106,1449,l),
(96,1377,l),
(185,1377,l),
(185,818,l)
);
}
);
width = 401;
}
);
unicode = 185;
},
{
glyphname = twosuperior;
kernLeft = two.numr;
kernRight = two.numr;
lastChange = "2022-05-07 00:44:13 +0000";
layers = (
{
hints = (
{
horizontal = 1;
origin = (0,22);
target = (0,2);
type = Stem;
},
{
horizontal = 1;
origin = (0,11);
target = (0,8);
type = Stem;
},
{
horizontal = 1;
origin = (0,15);
target = (0,8);
type = Stem;
},
{
origin = (0,22);
target = (0,0);
type = Stem;
},
{
origin = (0,22);
target = (0,12);
type = Stem;
},
{
origin = (0,18);
target = (0,5);
type = Stem;
}
);
layerId = "10BC12B3-5274-42E3-B5BC-F74F362F0DF4";
shapes = (
{
closed = 1;
nodes = (
(571,818,l),
(571,986,l),
(403,986,l),
(490,1062,o),
(583,1132,o),
(583,1235,cs),
(583,1370,o),
(475,1468,o),
(341,1468,cs),
(206,1468,o),
(96,1370,o),
(96,1235,c),
(264,1235,l),
(264,1278,o),
(298,1312,o),
(341,1312,cs),
(382,1312,o),
(415,1278,o),
(415,1235,c),
(343,1098,o),
(211,1043,o),
(96,964,c),
(96,818,l)
);
}
);
width = 727;
},
{
hints = (
{
horizontal = 1;
origin = (0,22);
target = (0,2);
type = Stem;
},
{
horizontal = 1;
origin = (0,15);
target = (0,8);
type = Stem;
},
{
origin = (0,22);
target = (0,12);
type = Stem;
},
{
origin = (0,18);
target = (0,0);
type = Stem;
}
);
layerId = "9AF1F7D9-E035-453E-B2A8-46DE370997D0";
shapes = (
{
closed = 1;
nodes = (
(526,818,l),
(526,890,l),
(218,890,l),
(341,974,o),
(526,1144,o),
(526,1264,cs),
(526,1382,o),
(430,1468,o),
(312,1468,cs),
(192,1468,o),
(96,1382,o),
(96,1264,c),
(168,1264,l),
(168,1343,o),
(233,1396,o),
(312,1396,cs),
(391,1396,o),
(454,1343,o),
(454,1264,cs),
(454,1149,o),
(194,957,o),
(96,892,c),
(96,818,l)
);
}
);
width = 670;
}
);
unicode = 178;
},
{
glyphname = threesuperior;
kernLeft = three.numr;
kernRight = three.numr;
lastChange = "2022-05-07 00:44:13 +0000";
layers = (
{
hints = (
{
horizontal = 1;
origin = (0,35);
target = (0,38);
type = Stem;
},
{
horizontal = 1;
origin = (0,25);
target = (0,24);
type = Stem;
},
{
horizontal = 1;
origin = (0,14);
target = (0,11);
type = Stem;
},
{
horizontal = 1;
origin = (0,18);
target = (0,11);
type = Stem;
},
{
horizontal = 1;
origin = (0,38);
target = (0,31);
type = Stem;
},
{
origin = (0,35);
target = (0,34);
type = Stem;
},
{
origin = (0,28);
target = (0,2);
type = Stem;
},
{
origin = (0,14);
target = (0,15);
type = Stem;
},
{
origin = (0,21);
target = (0,8);
type = Stem;
},
{
origin = (0,25);
target = (0,8);
type = Stem;
}
);
layerId = "10BC12B3-5274-42E3-B5BC-F74F362F0DF4";
shapes = (
{
closed = 1;
nodes = (
(415,798,o),
(516,887,o),
(516,1010,cs),
(516,1060,o),
(499,1113,o),
(463,1151,c),
(487,1187,o),
(499,1228,o),
(499,1271,cs),
(499,1386,o),
(406,1468,o),
(290,1468,cs),
(175,1468,o),
(82,1386,o),
(82,1271,c),
(250,1271,l),
(250,1293,o),
(269,1312,o),
(290,1312,cs),
(312,1312,o),
(331,1293,o),
(331,1271,cs),
(331,1242,o),
(314,1199,o),
(238,1199,c),
(238,1094,l),
(312,1094,o),
(348,1048,o),
(348,1010,cs),
(348,978,o),
(324,954,o),
(295,954,cs),
(264,954,o),
(240,978,o),
(240,1010,c),
(72,1010,l),
(72,887,o),
(173,798,o),
(295,798,cs)
);
}
);
width = 588;
},
{
hints = (
{
horizontal = 1;
origin = (0,38);
target = (0,31);
type = Stem;
},
{
horizontal = 1;
origin = (0,25);
target = (0,24);
type = Stem;
},
{
horizontal = 1;
origin = (0,18);
target = (0,11);
type = Stem;
},
{
origin = (0,35);
target = (0,34);
type = Stem;
},
{
origin = (0,28);
target = (0,2);
type = Stem;
},
{
origin = (0,14);
target = (0,15);
type = Stem;
},
{
origin = (0,5);
target = (0,8);
type = Stem;
}
);
layerId = "9AF1F7D9-E035-453E-B2A8-46DE370997D0";
shapes = (
{
closed = 1;
nodes = (
(379,798,o),
(468,875,o),
(468,986,cs),
(468,1067,o),
(437,1106,o),
(377,1151,c),
(415,1170,o),
(449,1233,o),
(449,1295,cs),
(449,1396,o),
(367,1466,o),
(266,1466,cs),
(166,1466,o),
(84,1396,o),
(84,1295,c),
(156,1295,l),
(156,1355,o),
(206,1394,o),
(266,1394,cs),
(326,1394,o),
(377,1355,o),
(377,1295,cs),
(377,1223,o),
(324,1185,o),
(233,1185,c),
(233,1113,l),
(336,1113,o),
(396,1065,o),
(396,986,cs),
(396,916,o),
(341,870,o),
(271,870,cs),
(199,870,o),
(144,916,o),
(144,986,c),
(72,986,l),
(72,875,o),
(161,798,o),
(271,798,cs)
);
}
);
width = 540;
}
);
unicode = 179;
},
{
glyphname = foursuperior;
kernLeft = four.numr;
kernRight = four.numr;
lastChange = "2022-05-07 00:44:13 +0000";
layers = (
{
hints = (
{
horizontal = 1;
origin = (0,8);
target = (1,2);
type = Stem;
},
{
origin = (1,1);
target = (0,0);
type = Stem;
}
);
layerId = "10BC12B3-5274-42E3-B5BC-F74F362F0DF4";
shapes = (
{
closed = 1;
nodes = (
(499,818,l),
(499,904,l),
(552,904,l),
(552,1072,l),
(499,1072,l),
(499,1449,l),
(314,1449,l),
(96,1106,l),
(96,904,l),
(331,904,l),
(331,818,l)
);
},
{
closed = 1;
nodes = (
(348,1214,l),
(348,1072,l),
(259,1072,l)
);
}
);
width = 696;
},
{
hints = (
{
horizontal = 1;
origin = (1,2);
target = (0,8);
type = Stem;
},
{
origin = (0,10);
target = (0,0);
type = Stem;
}
);
layerId = "9AF1F7D9-E035-453E-B2A8-46DE370997D0";
shapes = (
{
closed = 1;
nodes = (
(451,818,l),
(451,957,l),
(530,957,l),
(530,1029,l),
(451,1029,l),
(451,1449,l),
(353,1449,l),
(96,1043,l),
(96,957,l),
(379,957,l),
(379,818,l)
);
},
{
closed = 1;
nodes = (
(379,1353,l),
(379,1029,l),
(173,1029,l)
);
}
);
width = 674;
}
);
unicode = 8308;
},
{
glyphname = fivesuperior;
kernLeft = five.numr;
kernRight = five.numr;
lastChange = "2022-05-07 00:44:13 +0000";
layers = (
{
hints = (
{
horizontal = 1;
origin = (0,23);
target = (0,26);
type = Stem;
},
{
horizontal = 1;
origin = (0,10);
target = (0,5);
type = Stem;
},
{
horizontal = 1;
origin = (0,6);
target = (0,9);
type = Stem;
},
{
horizontal = 1;
origin = (0,26);
target = (0,19);
type = Stem;
},
{
origin = (0,23);
target = (0,22);
type = Stem;
},
{
origin = (0,16);
target = (0,2);
type = Stem;
}
);
layerId = "10BC12B3-5274-42E3-B5BC-F74F362F0DF4";
shapes = (
{
closed = 1;
nodes = (
(454,798,o),
(562,892,o),
(562,1024,cs),
(562,1162,o),
(463,1262,o),
(302,1262,c),
(302,1305,l),
(490,1305,l),
(490,1449,l),
(149,1449,l),
(115,1086,l),
(180,1094,o),
(288,1098,o),
(322,1094,cs),
(362,1089,o),
(394,1062,o),
(394,1024,cs),
(394,986,o),
(362,954,o),
(322,954,cs),
(283,954,o),
(252,986,o),
(252,1024,c),
(84,1024,l),
(84,892,o),
(192,798,o),
(322,798,cs)
);
}
);
width = 706;
},
{
hints = (
{
horizontal = 1;
origin = (0,26);
target = (0,19);
type = Stem;
},
{
horizontal = 1;
origin = (0,23);
target = down;
type = TopGhost;
},
{
horizontal = 1;
place = (1154, 70);
place = (1154, 70);
type = Stem;
},
{
horizontal = 1;
origin = (0,6);
target = (0,9);
type = Stem;
},
{
origin = (0,23);
target = (0,22);
type = Stem;
},
{
origin = (0,16);
target = (0,2);
type = Stem;
}
);
layerId = "9AF1F7D9-E035-453E-B2A8-46DE370997D0";
shapes = (
{
closed = 1;
nodes = (
(427,798,o),
(526,885,o),
(526,1007,cs),
(526,1169,o),
(388,1246,o),
(209,1218,c),
(221,1377,l),
(504,1377,l),
(504,1449,l),
(156,1449,l),
(127,1120,l),
(209,1146,o),
(233,1154,o),
(305,1154,cs),
(386,1154,o),
(454,1089,o),
(454,1007,cs),
(454,926,o),
(386,870,o),
(305,870,cs),
(223,870,o),
(156,926,o),
(156,1007,c),
(84,1007,l),
(84,885,o),
(182,798,o),
(305,798,cs)
);
}
);
width = 670;
}
);
unicode = 8309;
},
{
glyphname = sixsuperior;
kernLeft = six.numr;
kernRight = six.numr;
lastChange = "2022-05-07 00:44:13 +0000";
layers = (
{
hints = (
{
horizontal = 1;
origin = (0,13);
target = (1,11);
type = Stem;
},
{
horizontal = 1;
origin = (1,5);
target = (0,7);
type = Stem;
},
{
origin = (0,10);
target = (0,2);
type = Stem;
}
);
layerId = "10BC12B3-5274-42E3-B5BC-F74F362F0DF4";
shapes = (
{
closed = 1;
nodes = (
(456,798,o),
(562,887,o),
(562,1017,cs),
(562,1122,o),
(502,1206,o),
(384,1245,c),
(502,1446,l),
(307,1446,l),
(113,1110,o),
(96,1091,o),
(96,1019,cs),
(96,887,o),
(199,798,o),
(329,798,cs)
);
},
{
closed = 1;
nodes = (
(305,954,o),
(274,964,o),
(266,1002,cs),
(257,1036,o),
(278,1082,o),
(329,1082,cs),
(360,1082,o),
(384,1062,o),
(391,1034,cs),
(401,993,o),
(370,954,o),
(329,954,cs)
);
}
);
width = 706;
},
{
hints = (
{
horizontal = 1;
origin = (0,13);
target = (1,11);
type = Stem;
},
{
horizontal = 1;
place = (1180, 72);
place = (1180, 72);
type = Stem;
},
{
origin = (0,10);
target = (1,2);
type = Stem;
},
{
origin = (1,8);
target = (0,2);
type = Stem;
}
);
layerId = "9AF1F7D9-E035-453E-B2A8-46DE370997D0";
shapes = (
{
closed = 1;
nodes = (
(451,798,o),
(562,882,o),
(562,1019,cs),
(562,1161,o),
(425,1283,o),
(274,1245,c),
(390,1446,l),
(306,1446,l),
(133,1154,o),
(96,1098,o),
(96,1019,cs),
(96,897,o),
(192,798,o),
(329,798,cs)
);
},
{
closed = 1;
nodes = (
(240,870,o),
(168,930,o),
(168,1017,cs),
(168,1108,o),
(240,1180,o),
(329,1180,cs),
(408,1180,o),
(490,1118,o),
(490,1019,cs),
(490,930,o),
(418,870,o),
(329,870,cs)
);
}
);
width = 706;
}
);
unicode = 8310;
},
{
glyphname = sevensuperior;
kernLeft = seven.numr;
kernRight = seven.numr;
lastChange = "2022-05-07 00:44:13 +0000";
layers = (
{
hints = (
{
horizontal = 1;
origin = (0,4);
target = (0,3);
type = Stem;
},
{
origin = (0,4);
target = (0,1);
type = Stem;
}
);
layerId = "10BC12B3-5274-42E3-B5BC-F74F362F0DF4";
shapes = (
{
closed = 1;
nodes = (
(348,818,l),
(614,1283,l),
(614,1446,l),
(120,1446,l),
(120,1278,l),
(420,1278,l),
(156,818,l)
);
}
);
width = 686;
},
{
hints = (
{
horizontal = 1;
origin = (0,4);
target = (0,3);
type = Stem;
}
);
layerId = "9AF1F7D9-E035-453E-B2A8-46DE370997D0";
shapes = (
{
closed = 1;
nodes = (
(220,818,l),
(540,1377,l),
(540,1449,l),
(120,1449,l),
(120,1377,l),
(456,1377,l),
(136,818,l)
);
}
);
width = 612;
}
);
unicode = 8311;
},
{
glyphname = eightsuperior;
kernLeft = eight.numr;
kernRight = eight.numr;
lastChange = "2022-05-07 00:44:13 +0000";
layers = (
{
hints = (
{
horizontal = 1;
origin = (0,23);
target = (1,11);
type = Stem;
},
{
horizontal = 1;
origin = (2,5);
target = (0,11);
type = Stem;
},
{
origin = (0,20);
target = (1,2);
type = Stem;
},
{
origin = (1,8);
target = (0,2);
type = Stem;
},
{
origin = (0,14);
target = (2,2);
type = Stem;
},
{
origin = (2,8);
target = (0,8);
type = Stem;
}
);
layerId = "10BC12B3-5274-42E3-B5BC-F74F362F0DF4";
shapes = (
{
closed = 1;
nodes = (
(442,798,o),
(540,882,o),
(540,1005,cs),
(540,1060,o),
(521,1110,o),
(490,1149,c),
(514,1182,o),
(528,1226,o),
(528,1269,cs),
(528,1386,o),
(432,1470,o),
(317,1470,cs),
(202,1470,o),
(108,1386,o),
(108,1269,cs),
(108,1226,o),
(122,1182,o),
(146,1149,c),
(115,1110,o),
(96,1060,o),
(96,1005,cs),
(96,882,o),
(194,798,o),
(317,798,cs)
);
},
{
closed = 1;
nodes = (
(288,952,o),
(264,976,o),
(264,1005,cs),
(264,1036,o),
(288,1060,o),
(317,1060,cs),
(348,1060,o),
(372,1036,o),
(372,1005,cs),
(372,976,o),
(348,952,o),
(317,952,cs)
);
},
{
closed = 1;
nodes = (
(295,1228,o),
(276,1247,o),
(276,1269,cs),
(276,1293,o),
(295,1312,o),
(317,1312,cs),
(341,1312,o),
(360,1293,o),
(360,1269,cs),
(360,1247,o),
(341,1228,o),
(317,1228,cs)
);
}
);
width = 636;
},
{
hints = (
{
horizontal = 1;
origin = (0,23);
target = (1,11);
type = Stem;
},
{
horizontal = 1;
origin = (1,5);
target = (2,11);
type = Stem;
},
{
horizontal = 1;
origin = (2,5);
target = (0,11);
type = Stem;
},
{
origin = (0,20);
target = (1,2);
type = Stem;
},
{
origin = (1,8);
target = (0,2);
type = Stem;
},
{
origin = (0,14);
target = (0,17);
type = Stem;
},
{
origin = (0,5);
target = (0,8);
type = Stem;
}
);
layerId = "9AF1F7D9-E035-453E-B2A8-46DE370997D0";
shapes = (
{
closed = 1;
nodes = (
(406,798,o),
(497,875,o),
(497,986,cs),
(497,1055,o),
(461,1115,o),
(408,1151,c),
(451,1185,o),
(480,1238,o),
(480,1295,cs),
(480,1398,o),
(398,1468,o),
(295,1468,cs),
(194,1468,o),
(113,1398,o),
(113,1295,cs),
(113,1238,o),
(142,1185,o),
(185,1151,c),
(132,1115,o),
(96,1055,o),
(96,986,cs),
(96,875,o),
(187,798,o),
(295,798,cs)
);
},
{
closed = 1;
nodes = (
(226,870,o),
(168,916,o),
(168,986,cs),
(168,1055,o),
(226,1113,o),
(295,1113,cs),
(367,1113,o),
(425,1055,o),
(425,986,cs),
(425,916,o),
(367,870,o),
(295,870,cs)
);
},
{
closed = 1;
nodes = (
(235,1185,o),
(185,1235,o),
(185,1295,cs),
(185,1358,o),
(235,1396,o),
(295,1396,cs),
(358,1396,o),
(408,1358,o),
(408,1295,cs),
(408,1235,o),
(358,1185,o),
(295,1185,cs)
);
}
);
width = 593;
}
);
unicode = 8312;
},
{
glyphname = ninesuperior;
kernLeft = nine.numr;
kernRight = nine.numr;
lastChange = "2022-05-07 00:44:13 +0000";
layers = (
{
hints = (
{
horizontal = 1;
origin = (0,14);
target = (1,11);
type = Stem;
},
{
horizontal = 1;
origin = (1,5);
target = (0,7);
type = Stem;
},
{
origin = (0,10);
target = (1,2);
type = Stem;
},
{
origin = (1,8);
target = (0,4);
type = Stem;
}
);
layerId = "10BC12B3-5274-42E3-B5BC-F74F362F0DF4";
shapes = (
{
closed = 1;
nodes = (
(324,818,l),
(506,1132,ls),
(528,1170,o),
(538,1209,o),
(538,1247,cs),
(538,1370,o),
(439,1468,o),
(305,1468,cs),
(175,1468,o),
(72,1374,o),
(72,1247,cs),
(72,1146,o),
(137,1048,o),
(247,1022,c),
(130,818,l)
);
},
{
closed = 1;
nodes = (
(281,1182,o),
(240,1197,o),
(240,1245,cs),
(240,1276,o),
(262,1312,o),
(305,1312,cs),
(336,1312,o),
(370,1281,o),
(370,1250,cs),
(370,1214,o),
(341,1182,o),
(305,1182,cs)
);
}
);
width = 658;
},
{
hints = (
{
horizontal = 1;
place = (1015, 71);
place = (1015, 71);
type = Stem;
},
{
horizontal = 1;
origin = (1,5);
target = (0,7);
type = Stem;
},
{
place = (72, 74);
place = (72, 74);
type = Stem;
},
{
place = (466, 73);
place = (466, 73);
type = Stem;
},
{
place = (466, 37);
place = (466, 37);
type = Stem;
}
);
layerId = "9AF1F7D9-E035-453E-B2A8-46DE370997D0";
shapes = (
{
closed = 1;
nodes = (
(325,818,l),
(503,1122,l),
(503,1125,o),
(505,1127,o),
(507,1132,c),
(599,1286,o),
(483,1468,o),
(306,1468,cs),
(227,1468,o),
(147,1439,o),
(104,1362,cs),
(1,1187,o),
(162,971,o),
(361,1022,c),
(243,818,l)
);
},
{
closed = 1;
nodes = (
(241,1086,o),
(171,1130,o),
(150,1206,cs),
(126,1310,o),
(203,1396,o),
(306,1396,cs),
(371,1396,o),
(440,1365,o),
(462,1288,c),
(486,1182,o),
(409,1086,o),
(306,1086,cs)
);
}
);
width = 659;
}
);
unicode = 8313;
},
{
glyphname = period;
kernLeft = period;
kernRight = period;
lastChange = "2022-05-07 00:44:13 +0000";
layers = (
{
hints = (
{
horizontal = 1;
origin = (0,11);
target = (0,5);
type = Stem;
},
{
origin = (0,8);
target = (0,2);
type = Stem;
}
);
layerId = "10BC12B3-5274-42E3-B5BC-F74F362F0DF4";
shapes = (
{
closed = 1;
nodes = (
(312,-26,o),
(380,40,o),
(380,124,cs),
(380,206,o),
(312,274,o),
(230,274,cs),
(146,274,o),
(80,206,o),
(80,124,cs),
(80,40,o),
(146,-26,o),
(230,-26,cs)
);
}
);
width = 500;
},
{
hints = (
{
horizontal = 1;
origin = (0,11);
target = (0,5);
type = Stem;
},
{
origin = (0,8);
target = (0,2);
type = Stem;
}
);
layerId = "9AF1F7D9-E035-453E-B2A8-46DE370997D0";
shapes = (
{
closed = 1;
nodes = (
(150,-26,o),
(170,-6,o),
(170,20,cs),
(170,44,o),
(150,64,o),
(124,64,cs),
(100,64,o),
(80,44,o),
(80,20,cs),
(80,-6,o),
(100,-26,o),
(124,-26,cs)
);
}
);
width = 290;
}
);
unicode = 46;
},
{
glyphname = comma;
kernLeft = period;
kernRight = period;
lastChange = "2022-05-07 00:44:13 +0000";
layers = (
{
hints = (
{
horizontal = 1;
origin = (0,3);
target = (0,2);
type = Stem;
},
{
origin = (0,3);
target = (0,1);
type = Stem;
}
);
layerId = "10BC12B3-5274-42E3-B5BC-F74F362F0DF4";
shapes = (
{
closed = 1;
nodes = (
(280,-112,l),
(442,226,l),
(142,226,l),
(80,-112,l)
);
}
);
width = 562;
},
{
hints = (
{
origin = (0,3);
target = (0,1);
type = Stem;
}
);
layerId = "9AF1F7D9-E035-453E-B2A8-46DE370997D0";
shapes = (
{
closed = 1;
nodes = (
(120,-112,l),
(202,226,l),
(142,226,l),
(80,-112,l)
);
}
);
width = 322;
}
);
unicode = 44;
},
{
glyphname = colon;
kernLeft = colon;
kernRight = colon;
lastChange = "2022-05-07 00:44:13 +0000";
layers = (
{
hints = (
{
horizontal = 1;
origin = (1,11);
target = (1,5);
type = Stem;
},
{
horizontal = 1;
origin = (0,5);
target = (0,11);
type = Stem;
},
{
origin = (1,8);
target = (1,2);
type = Stem;
}
);
layerId = "10BC12B3-5274-42E3-B5BC-F74F362F0DF4";
shapes = (
{
closed = 1;
nodes = (
(312,700,o),
(380,766,o),
(380,850,cs),
(380,932,o),
(312,1000,o),
(230,1000,cs),
(146,1000,o),
(80,932,o),
(80,850,cs),
(80,766,o),
(146,700,o),
(230,700,cs)
);
},
{
closed = 1;
nodes = (
(312,-26,o),
(380,40,o),
(380,124,cs),
(380,206,o),
(312,274,o),
(230,274,cs),
(146,274,o),
(80,206,o),
(80,124,cs),
(80,40,o),
(146,-26,o),
(230,-26,cs)
);
}
);
width = 500;
},
{
hints = (
{
horizontal = 1;
origin = (1,11);
target = (1,5);
type = Stem;
},
{
horizontal = 1;
origin = (0,5);
target = (0,11);
type = Stem;
},
{
origin = (1,8);
target = (1,2);
type = Stem;
}
);
layerId = "9AF1F7D9-E035-453E-B2A8-46DE370997D0";
shapes = (
{
closed = 1;
nodes = (
(150,910,o),
(170,930,o),
(170,956,cs),
(170,980,o),
(150,1000,o),
(124,1000,cs),
(100,1000,o),
(80,980,o),
(80,956,cs),
(80,930,o),
(100,910,o),
(124,910,cs)
);
},
{
closed = 1;
nodes = (
(150,-26,o),
(170,-6,o),
(170,20,cs),
(170,44,o),
(150,64,o),
(124,64,cs),
(100,64,o),
(80,44,o),
(80,20,cs),
(80,-6,o),
(100,-26,o),
(124,-26,cs)
);
}
);
width = 290;
}
);
unicode = 58;
},
{
glyphname = semicolon;
kernLeft = colon;
kernRight = colon;
lastChange = "2022-05-07 00:44:13 +0000";
layers = (
{
hints = (
{
horizontal = 1;
origin = (0,3);
target = (0,2);
type = Stem;
},
{
horizontal = 1;
origin = (1,5);
target = (1,11);
type = Stem;
},
{
origin = (0,2);
target = (0,1);
type = Stem;
}
);
layerId = "10BC12B3-5274-42E3-B5BC-F74F362F0DF4";
shapes = (
{
closed = 1;
nodes = (
(280,-112,l),
(442,226,l),
(142,226,l),
(80,-112,l)
);
},
{
closed = 1;
nodes = (
(374,700,o),
(442,766,o),
(442,850,cs),
(442,932,o),
(374,1000,o),
(292,1000,cs),
(208,1000,o),
(142,932,o),
(142,850,cs),
(142,766,o),
(208,700,o),
(292,700,cs)
);
}
);
width = 562;
},
{
hints = (
{
horizontal = 1;
origin = (1,5);
target = (1,11);
type = Stem;
},
{
origin = (1,8);
target = (1,2);
type = Stem;
}
);
layerId = "9AF1F7D9-E035-453E-B2A8-46DE370997D0";
shapes = (
{
closed = 1;
nodes = (
(120,-112,l),
(202,226,l),
(142,226,l),
(80,-112,l)
);
},
{
closed = 1;
nodes = (
(194,910,o),
(214,930,o),
(214,954,cs),
(214,980,o),
(194,1000,o),
(170,1000,cs),
(144,1000,o),
(124,980,o),
(124,954,cs),
(124,930,o),
(144,910,o),
(170,910,cs)
);
}
);
width = 334;
}
);
unicode = 59;
},
{
glyphname = exclam;
kernLeft = exclam;
kernRight = exclam;
lastChange = "2022-05-07 00:44:13 +0000";
layers = (
{
hints = (
{
horizontal = 1;
origin = (1,11);
target = (1,5);
type = Stem;
},
{
horizontal = 1;
origin = (0,2);
target = down;
type = TopGhost;
},
{
origin = (0,3);
target = (0,0);
type = Stem;
},
{
origin = (1,8);
target = (1,2);
type = Stem;
}
);
layerId = "10BC12B3-5274-42E3-B5BC-F74F362F0DF4";
shapes = (
{
closed = 1;
nodes = (
(354,420,l),
(354,1400,l),
(104,1400,l),
(104,420,l)
);
},
{
closed = 1;
nodes = (
(312,-26,o),
(378,40,o),
(378,126,cs),
(378,208,o),
(312,274,o),
(230,274,cs),
(146,274,o),
(80,208,o),
(80,126,cs),
(80,40,o),
(146,-26,o),
(230,-26,cs)
);
}
);
width = 498;
},
{
hints = (
{
horizontal = 1;
origin = (1,11);
target = (1,5);
type = Stem;
},
{
horizontal = 1;
origin = (0,2);
target = down;
type = TopGhost;
},
{
origin = (0,3);
target = (0,0);
type = Stem;
},
{
origin = (1,8);
target = (1,2);
type = Stem;
}
);
layerId = "9AF1F7D9-E035-453E-B2A8-46DE370997D0";
shapes = (
{
closed = 1;
nodes = (
(156,420,l),
(156,1400,l),
(96,1400,l),
(96,420,l)
);
},
{
closed = 1;
nodes = (
(150,-26,o),
(170,-6,o),
(170,20,cs),
(170,44,o),
(150,64,o),
(126,64,cs),
(100,64,o),
(80,44,o),
(80,20,cs),
(80,-6,o),
(100,-26,o),
(126,-26,cs)
);
}
);
width = 290;
}
);
unicode = 33;
},
{
glyphname = exclamdown;
kernLeft = exclamdown;
kernRight = exclamdown;
lastChange = "2022-05-07 00:44:13 +0000";
layers = (
{
hints = (
{
horizontal = 1;
origin = (0,11);
target = (0,5);
type = Stem;
},
{
origin = (0,2);
target = (0,8);
type = Stem;
},
{
origin = (1,1);
target = (1,2);
type = Stem;
}
);
layerId = "10BC12B3-5274-42E3-B5BC-F74F362F0DF4";
shapes = (
{
closed = 1;
nodes = (
(146,1026,o),
(80,960,o),
(80,874,cs),
(80,792,o),
(146,726,o),
(228,726,cs),
(312,726,o),
(378,792,o),
(378,874,cs),
(378,960,o),
(312,1026,o),
(228,1026,cs)
);
},
{
closed = 1;
nodes = (
(104,580,l),
(104,-400,l),
(354,-400,l),
(354,580,l)
);
}
);
width = 498;
},
{
hints = (
{
horizontal = 1;
origin = (0,11);
target = (0,5);
type = Stem;
},
{
origin = (0,2);
target = (0,8);
type = Stem;
},
{
origin = (1,1);
target = (1,2);
type = Stem;
}
);
layerId = "9AF1F7D9-E035-453E-B2A8-46DE370997D0";
shapes = (
{
closed = 1;
nodes = (
(100,1026,o),
(80,1006,o),
(80,980,cs),
(80,956,o),
(100,936,o),
(124,936,cs),
(150,936,o),
(170,956,o),
(170,980,cs),
(170,1006,o),
(150,1026,o),
(124,1026,cs)
);
},
{
closed = 1;
nodes = (
(94,580,l),
(94,-400,l),
(154,-400,l),
(154,580,l)
);
}
);
width = 250;
}
);
unicode = 161;
},
{
glyphname = question;
kernLeft = question;
kernRight = question;
lastChange = "2022-05-07 00:44:13 +0000";
layers = (
{
hints = (
{
horizontal = 1;
origin = (1,11);
target = (1,5);
type = Stem;
},
{
horizontal = 1;
origin = (0,9);
target = (0,16);
type = Stem;
},
{
origin = (0,12);
target = (0,13);
type = Stem;
},
{
origin = (0,25);
target = (0,0);
type = Stem;
},
{
origin = (0,19);
target = (0,6);
type = Stem;
},
{
origin = (1,8);
target = (1,2);
type = Stem;
}
);
layerId = "10BC12B3-5274-42E3-B5BC-F74F362F0DF4";
shapes = (
{
closed = 1;
nodes = (
(726,400,l),
(726,451,o),
(752,495,o),
(796,518,cs),
(950,600,o),
(1044,764,o),
(1044,946,cs),
(1044,1210,o),
(828,1426,o),
(562,1426,cs),
(296,1426,o),
(80,1210,o),
(80,946,c),
(380,946,l),
(380,1046,o),
(462,1126,o),
(562,1126,cs),
(662,1126,o),
(744,1046,o),
(744,946,cs),
(744,874,o),
(710,812,o),
(654,782,cs),
(512,705,o),
(426,561,o),
(426,400,c)
);
},
{
closed = 1;
nodes = (
(674,-26,o),
(740,40,o),
(740,126,cs),
(740,208,o),
(674,274,o),
(592,274,cs),
(508,274,o),
(442,208,o),
(442,126,cs),
(442,40,o),
(508,-26,o),
(592,-26,cs)
);
}
);
width = 1164;
},
{
hints = (
{
horizontal = 1;
origin = (1,11);
target = (1,5);
type = Stem;
},
{
horizontal = 1;
origin = (0,16);
target = (0,9);
type = Stem;
},
{
origin = (0,12);
target = (0,13);
type = Stem;
},
{
origin = (0,25);
target = (0,0);
type = Stem;
},
{
origin = (0,19);
target = (0,6);
type = Stem;
},
{
origin = (1,8);
target = (1,2);
type = Stem;
}
);
layerId = "9AF1F7D9-E035-453E-B2A8-46DE370997D0";
shapes = (
{
closed = 1;
nodes = (
(484,522,l),
(484,617,o),
(534,701,o),
(618,746,cs),
(732,808,o),
(802,930,o),
(802,1066,cs),
(802,1266,o),
(640,1428,o),
(440,1428,cs),
(242,1428,o),
(80,1266,o),
(80,1066,c),
(140,1066,l),
(140,1234,o),
(274,1368,o),
(440,1368,cs),
(606,1368,o),
(742,1234,o),
(742,1066,cs),
(742,952,o),
(684,850,o),
(590,800,cs),
(486,743,o),
(424,639,o),
(424,522,c)
);
},
{
closed = 1;
nodes = (
(466,-26,o),
(486,-4,o),
(486,20,cs),
(486,44,o),
(466,64,o),
(440,64,cs),
(416,64,o),
(396,44,o),
(396,20,cs),
(396,-4,o),
(416,-26,o),
(440,-26,cs)
);
}
);
width = 922;
}
);
unicode = 63;
},
{
glyphname = questiondown;
kernLeft = questiondown;
kernRight = questiondown;
lastChange = "2022-05-07 00:44:13 +0000";
layers = (
{
hints = (
{
horizontal = 1;
origin = (0,25);
target = (0,6);
type = Stem;
},
{
horizontal = 1;
origin = (1,5);
target = (1,11);
type = Stem;
},
{
origin = (0,22);
target = (0,9);
type = Stem;
},
{
origin = (0,3);
target = (0,2);
type = Stem;
},
{
origin = (0,16);
target = (0,15);
type = Stem;
},
{
origin = (1,8);
target = (1,2);
type = Stem;
}
);
layerId = "10BC12B3-5274-42E3-B5BC-F74F362F0DF4";
shapes = (
{
closed = 1;
nodes = (
(828,-426,o),
(1044,-210,o),
(1044,54,c),
(744,54,l),
(744,-46,o),
(662,-126,o),
(562,-126,cs),
(462,-126,o),
(380,-46,o),
(380,54,cs),
(380,126,o),
(414,188,o),
(470,218,cs),
(612,295,o),
(698,439,o),
(698,600,c),
(398,600,l),
(398,549,o),
(372,505,o),
(328,482,cs),
(174,400,o),
(80,236,o),
(80,54,cs),
(80,-210,o),
(296,-426,o),
(562,-426,cs)
);
},
{
closed = 1;
nodes = (
(616,726,o),
(682,792,o),
(682,874,cs),
(682,960,o),
(616,1026,o),
(532,1026,cs),
(450,1026,o),
(384,960,o),
(384,874,cs),
(384,792,o),
(450,726,o),
(532,726,cs)
);
}
);
width = 1164;
},
{
hints = (
{
horizontal = 1;
origin = (0,25);
target = (0,6);
type = Stem;
},
{
horizontal = 1;
origin = (1,5);
target = (1,11);
type = Stem;
},
{
origin = (0,22);
target = (0,9);
type = Stem;
},
{
origin = (0,16);
target = (0,15);
type = Stem;
},
{
origin = (0,3);
target = (0,2);
type = Stem;
},
{
origin = (1,8);
target = (1,2);
type = Stem;
}
);
layerId = "9AF1F7D9-E035-453E-B2A8-46DE370997D0";
shapes = (
{
closed = 1;
nodes = (
(642,-428,o),
(804,-266,o),
(804,-66,c),
(744,-66,l),
(744,-232,o),
(608,-368,o),
(442,-368,cs),
(276,-368,o),
(140,-232,o),
(140,-66,cs),
(140,48,o),
(198,150,o),
(292,202,cs),
(396,260,o),
(458,365,o),
(458,480,c),
(398,480,l),
(398,384,o),
(347,299,o),
(264,254,cs),
(150,194,o),
(80,70,o),
(80,-66,cs),
(80,-266,o),
(242,-428,o),
(442,-428,cs)
);
},
{
closed = 1;
nodes = (
(466,936,o),
(486,956,o),
(486,980,cs),
(486,1006,o),
(466,1026,o),
(442,1026,cs),
(416,1026,o),
(396,1006,o),
(396,980,cs),
(396,956,o),
(416,936,o),
(442,936,cs)
);
}
);
width = 884;
}
);
unicode = 191;
},
{
glyphname = periodcentered;
kernLeft = anoteleia;
kernRight = anoteleia;
lastChange = "2022-05-07 00:44:13 +0000";
layers = (
{
hints = (
{
horizontal = 1;
origin = (0,11);
target = (0,5);
type = Stem;
},
{
origin = (0,8);
target = (0,2);
type = Stem;
}
);
layerId = "10BC12B3-5274-42E3-B5BC-F74F362F0DF4";
shapes = (
{
closed = 1;
nodes = (
(312,450,o),
(380,516,o),
(380,600,cs),
(380,682,o),
(312,750,o),
(230,750,cs),
(146,750,o),
(80,682,o),
(80,600,cs),
(80,516,o),
(146,450,o),
(230,450,cs)
);
}
);
width = 460;
},
{
hints = (
{
horizontal = 1;
origin = (0,11);
target = (0,5);
type = Stem;
},
{
origin = (0,8);
target = (0,2);
type = Stem;
}
);
layerId = "9AF1F7D9-E035-453E-B2A8-46DE370997D0";
shapes = (
{
closed = 1;
nodes = (
(150,555,o),
(170,575,o),
(170,601,cs),
(170,625,o),
(150,645,o),
(124,645,cs),
(100,645,o),
(80,625,o),
(80,601,cs),
(80,575,o),
(100,555,o),
(124,555,cs)
);
}
);
width = 250;
}
);
unicode = 183;
},
{
glyphname = bullet;
kernLeft = bullet;
kernRight = bullet;
lastChange = "2022-05-07 00:44:13 +0000";
layers = (
{
hints = (
{
horizontal = 1;
origin = (0,11);
target = (0,5);
type = Stem;
},
{
origin = (0,8);
target = (0,2);
type = Stem;
}
);
layerId = "10BC12B3-5274-42E3-B5BC-F74F362F0DF4";
shapes = (
{
closed = 1;
nodes = (
(390,400,o),
(480,488,o),
(480,600,cs),
(480,710,o),
(390,800,o),
(280,800,cs),
(168,800,o),
(80,710,o),
(80,600,cs),
(80,488,o),
(168,400,o),
(280,400,cs)
);
}
);
width = 560;
},
{
hints = (
{
horizontal = 1;
origin = (0,11);
target = (0,5);
type = Stem;
},
{
origin = (0,8);
target = (0,2);
type = Stem;
}
);
layerId = "9AF1F7D9-E035-453E-B2A8-46DE370997D0";
shapes = (
{
closed = 1;
nodes = (
(174,540,o),
(200,566,o),
(200,602,cs),
(200,634,o),
(174,660,o),
(138,660,cs),
(106,660,o),
(80,634,o),
(80,602,cs),
(80,566,o),
(106,540,o),
(138,540,cs)
);
}
);
width = 280;
}
);
unicode = 8226;
},
{
glyphname = asterisk;
kernLeft = asterisk;
kernRight = asterisk;
lastChange = "2022-05-07 00:44:13 +0000";
layers = (
{
hints = (
{
horizontal = 1;
origin = (0,8);
target = down;
type = TopGhost;
},
{
origin = (0,9);
target = (0,6);
type = Stem;
}
);
layerId = "10BC12B3-5274-42E3-B5BC-F74F362F0DF4";
shapes = (
{
closed = 1;
nodes = (
(352,946,l),
(438,826,l),
(600,944,l),
(512,1064,l),
(654,1108,l),
(592,1300,l),
(452,1254,l),
(452,1400,l),
(252,1400,l),
(252,1254,l),
(110,1300,l),
(50,1108,l),
(190,1064,l),
(102,944,l),
(264,826,l)
);
}
);
width = 734;
},
{
hints = (
{
horizontal = 1;
origin = (0,8);
target = down;
type = TopGhost;
},
{
origin = (0,9);
target = (0,6);
type = Stem;
}
);
layerId = "9AF1F7D9-E035-453E-B2A8-46DE370997D0";
shapes = (
{
closed = 1;
nodes = (
(330,1064,l),
(472,866,l),
(522,902,l),
(378,1098,l),
(610,1174,l),
(592,1230,l),
(360,1156,l),
(360,1400,l),
(300,1400,l),
(300,1156,l),
(68,1230,l),
(50,1174,l),
(280,1098,l),
(138,902,l),
(186,866,l)
);
}
);
width = 690;
}
);
unicode = 42;
},
{
glyphname = numbersign;
kernLeft = numbersign;
kernRight = numbersign;
lastChange = "2022-05-07 00:44:13 +0000";
layers = (
{
hints = (
{
horizontal = 1;
origin = (0,16);
target = up;
type = BottomGhost;
},
{
horizontal = 1;
origin = (0,14);
target = (0,13);
type = Stem;
},
{
horizontal = 1;
origin = (0,10);
target = (0,9);
type = Stem;
},
{
horizontal = 1;
origin = (0,7);
target = down;
type = TopGhost;
}
);
layerId = "10BC12B3-5274-42E3-B5BC-F74F362F0DF4";
shapes = (
{
closed = 1;
nodes = (
(1526,1140,l),
(1378,1140,l),
(1446,1400,l),
(1146,1400,l),
(1078,1140,l),
(764,1140,l),
(834,1400,l),
(534,1400,l),
(464,1140,l),
(316,1140,l),
(238,850,l),
(388,850,l),
(306,550,l),
(158,550,l),
(80,260,l),
(228,260,l),
(160,0,l),
(460,0,l),
(528,260,l),
(842,260,l),
(772,0,l),
(1072,0,l),
(1142,260,l),
(1290,260,l),
(1368,550,l),
(1218,550,l),
(1300,850,l),
(1448,850,l)
);
},
{
closed = 1;
nodes = (
(606,550,l),
(688,850,l),
(1000,850,l),
(918,550,l)
);
}
);
width = 1606;
},
{
hints = (
{
horizontal = 1;
origin = (0,16);
target = up;
type = BottomGhost;
},
{
horizontal = 1;
origin = (0,14);
target = (0,13);
type = Stem;
},
{
horizontal = 1;
origin = (0,9);
target = (0,10);
type = Stem;
},
{
horizontal = 1;
origin = (0,7);
target = down;
type = TopGhost;
}
);
layerId = "9AF1F7D9-E035-453E-B2A8-46DE370997D0";
shapes = (
{
closed = 1;
nodes = (
(1384,1026,l),
(1156,1026,l),
(1256,1400,l),
(1196,1400,l),
(1096,1026,l),
(544,1026,l),
(644,1400,l),
(584,1400,l),
(484,1026,l),
(254,1026,l),
(238,968,l),
(468,968,l),
(324,434,l),
(96,434,l),
(80,376,l),
(310,376,l),
(208,0,l),
(268,0,l),
(370,376,l),
(922,376,l),
(820,0,l),
(880,0,l),
(982,376,l),
(1210,376,l),
(1226,434,l),
(996,434,l),
(1140,968,l),
(1368,968,l)
);
},
{
closed = 1;
nodes = (
(384,434,l),
(528,968,l),
(1080,968,l),
(936,434,l)
);
}
);
width = 1464;
}
);
unicode = 35;
},
{
glyphname = slash;
kernLeft = slash;
kernRight = slash;
lastChange = "2022-05-07 00:44:13 +0000";
layers = (
{
hints = (
{
horizontal = 1;
origin = (0,0);
target = down;
type = TopGhost;
},
{
origin = (0,1);
target = (0,3);
type = Stem;
}
);
layerId = "10BC12B3-5274-42E3-B5BC-F74F362F0DF4";
shapes = (
{
closed = 1;
nodes = (
(486,1400,l),
(80,-112,l),
(380,-112,l),
(786,1400,l)
);
}
);
width = 866;
},
{
hints = (
{
horizontal = 1;
origin = (0,0);
target = down;
type = TopGhost;
}
);
layerId = "9AF1F7D9-E035-453E-B2A8-46DE370997D0";
shapes = (
{
closed = 1;
nodes = (
(484,1400,l),
(80,-112,l),
(140,-112,l),
(544,1400,l)
);
}
);
width = 624;
}
);
unicode = 47;
},
{
glyphname = backslash;
kernLeft = backslash;
kernRight = backslash;
lastChange = "2022-05-07 00:44:13 +0000";
layers = (
{
hints = (
{
horizontal = 1;
origin = (0,2);
target = down;
type = TopGhost;
},
{
origin = (0,2);
target = (0,0);
type = Stem;
}
);
layerId = "10BC12B3-5274-42E3-B5BC-F74F362F0DF4";
shapes = (
{
closed = 1;
nodes = (
(784,-112,l),
(380,1400,l),
(80,1400,l),
(484,-112,l)
);
}
);
width = 864;
},
{
hints = (
{
horizontal = 1;
origin = (0,2);
target = down;
type = TopGhost;
}
);
layerId = "9AF1F7D9-E035-453E-B2A8-46DE370997D0";
shapes = (
{
closed = 1;
nodes = (
(546,-112,l),
(140,1400,l),
(80,1400,l),
(486,-112,l)
);
}
);
width = 626;
}
);
unicode = 92;
},
{
glyphname = hyphen;
kernLeft = hyphen;
kernRight = hyphen;
lastChange = "2022-05-07 00:44:13 +0000";
layers = (
{
hints = (
{
horizontal = 1;
origin = (0,0);
target = (0,3);
type = Stem;
},
{
origin = (0,0);
target = (0,1);
type = Stem;
}
);
layerId = "10BC12B3-5274-42E3-B5BC-F74F362F0DF4";
shapes = (
{
closed = 1;
nodes = (
(120,450,l),
(760,450,l),
(760,750,l),
(120,750,l)
);
}
);
width = 880;
},
{
hints = (
{
horizontal = 1;
origin = (0,0);
target = (0,3);
type = Stem;
}
);
layerId = "9AF1F7D9-E035-453E-B2A8-46DE370997D0";
shapes = (
{
closed = 1;
nodes = (
(120,570,l),
(760,570,l),
(760,630,l),
(120,630,l)
);
}
);
width = 880;
}
);
unicode = 45;
},
{
glyphname = endash;
kernLeft = hyphen;
kernRight = hyphen;
lastChange = "2022-05-07 00:44:13 +0000";
layers = (
{
hints = (
{
horizontal = 1;
origin = (0,0);
target = (0,3);
type = Stem;
}
);
layerId = "10BC12B3-5274-42E3-B5BC-F74F362F0DF4";
shapes = (
{
closed = 1;
nodes = (
(120,450,l),
(1120,450,l),
(1120,750,l),
(120,750,l)
);
}
);
width = 1240;
},
{
hints = (
{
horizontal = 1;
origin = (0,0);
target = (0,3);
type = Stem;
}
);
layerId = "9AF1F7D9-E035-453E-B2A8-46DE370997D0";
shapes = (
{
closed = 1;
nodes = (
(120,570,l),
(1120,570,l),
(1120,630,l),
(120,630,l)
);
}
);
width = 1240;
}
);
unicode = 8211;
},
{
glyphname = emdash;
kernLeft = hyphen;
kernRight = hyphen;
lastChange = "2022-05-07 00:44:13 +0000";
layers = (
{
hints = (
{
horizontal = 1;
origin = (0,0);
target = (0,3);
type = Stem;
}
);
layerId = "10BC12B3-5274-42E3-B5BC-F74F362F0DF4";
shapes = (
{
closed = 1;
nodes = (
(120,450,l),
(1920,450,l),
(1920,750,l),
(120,750,l)
);
}
);
width = 2040;
},
{
hints = (
{
horizontal = 1;
origin = (0,0);
target = (0,3);
type = Stem;
}
);
layerId = "9AF1F7D9-E035-453E-B2A8-46DE370997D0";
shapes = (
{
closed = 1;
nodes = (
(120,570,l),
(1920,570,l),
(1920,630,l),
(120,630,l)
);
}
);
width = 2040;
}
);
unicode = 8212;
},
{
glyphname = underscore;
kernLeft = underscore;
kernRight = underscore;
lastChange = "2022-05-07 00:44:13 +0000";
layers = (
{
hints = (
{
horizontal = 1;
origin = (0,0);
target = (0,3);
type = Stem;
}
);
layerId = "10BC12B3-5274-42E3-B5BC-F74F362F0DF4";
shapes = (
{
closed = 1;
nodes = (
(120,-112,l),
(1120,-112,l),
(1120,188,l),
(120,188,l)
);
}
);
width = 1240;
},
{
hints = (
{
horizontal = 1;
origin = (0,0);
target = (0,3);
type = Stem;
}
);
layerId = "9AF1F7D9-E035-453E-B2A8-46DE370997D0";
shapes = (
{
closed = 1;
nodes = (
(120,-112,l),
(1120,-112,l),
(1120,-52,l),
(120,-52,l)
);
}
);
width = 1240;
}
);
unicode = 95;
},
{
glyphname = parenleft;
kernLeft = parenleft;
kernRight = parenleft;
lastChange = "2022-05-07 00:44:13 +0000";
layers = (
{
hints = (
{
horizontal = 1;
origin = (0,7);
target = down;
type = TopGhost;
},
{
origin = (0,10);
target = (0,13);
type = Stem;
}
);
layerId = "10BC12B3-5274-42E3-B5BC-F74F362F0DF4";
shapes = (
{
closed = 1;
nodes = (
(720,-112,l),
(588,40,o),
(420,332,o),
(420,644,cs),
(420,882,o),
(598,1338,o),
(720,1400,c),
(420,1400,l),
(256,1340,o),
(120,872,o),
(120,644,cs),
(120,326,o),
(210,98,o),
(420,-112,c)
);
}
);
width = 820;
},
{
hints = (
{
horizontal = 1;
origin = (0,7);
target = down;
type = TopGhost;
},
{
origin = (0,10);
target = (0,3);
type = Stem;
}
);
layerId = "9AF1F7D9-E035-453E-B2A8-46DE370997D0";
shapes = (
{
closed = 1;
nodes = (
(454,-112,l),
(268,86,o),
(192,328,o),
(180,644,c),
(192,954,o),
(262,1188,o),
(454,1400,c),
(394,1400,l),
(198,1226,o),
(120,932,o),
(120,644,cs),
(120,364,o),
(196,66,o),
(394,-112,c)
);
}
);
width = 554;
}
);
unicode = 40;
},
{
glyphname = parenright;
kernLeft = parenright;
kernRight = parenright;
lastChange = "2022-05-07 00:44:13 +0000";
layers = (
{
hints = (
{
horizontal = 1;
origin = (0,7);
target = down;
type = TopGhost;
},
{
origin = (0,0);
target = (0,3);
type = Stem;
}
);
layerId = "10BC12B3-5274-42E3-B5BC-F74F362F0DF4";
shapes = (
{
closed = 1;
nodes = (
(400,-112,l),
(610,98,o),
(700,326,o),
(700,644,cs),
(700,872,o),
(564,1340,o),
(400,1400,c),
(100,1400,l),
(222,1338,o),
(400,882,o),
(400,644,cs),
(400,332,o),
(232,40,o),
(100,-112,c)
);
}
);
width = 820;
},
{
hints = (
{
horizontal = 1;
origin = (0,7);
target = down;
type = TopGhost;
},
{
origin = (0,10);
target = (0,3);
type = Stem;
}
);
layerId = "9AF1F7D9-E035-453E-B2A8-46DE370997D0";
shapes = (
{
closed = 1;
nodes = (
(160,-112,l),
(358,66,o),
(434,364,o),
(434,644,cs),
(434,932,o),
(356,1226,o),
(160,1400,c),
(100,1400,l),
(292,1188,o),
(362,954,o),
(374,644,c),
(362,328,o),
(286,86,o),
(100,-112,c)
);
}
);
width = 554;
}
);
unicode = 41;
},
{
glyphname = braceleft;
kernLeft = braceleft;
kernRight = braceleft;
lastChange = "2022-05-07 00:44:13 +0000";
layers = (
{
hints = (
{
horizontal = 1;
origin = (0,33);
target = (0,2);
type = Stem;
},
{
horizontal = 1;
origin = (0,19);
target = (0,16);
type = Stem;
},
{
origin = (0,30);
target = (0,5);
type = Stem;
},
{
origin = (0,30);
target = (0,9);
type = Stem;
}
);
layerId = "10BC12B3-5274-42E3-B5BC-F74F362F0DF4";
shapes = (
{
closed = 1;
nodes = (
(730,-112,l),
(730,188,l),
(604,188,ls),
(576,188,o),
(554,210,o),
(554,238,cs),
(554,494,l),
(550,558,o),
(472,584,o),
(472,644,cs),
(472,698,o),
(550,732,o),
(554,794,c),
(554,1050,ls),
(554,1078,o),
(576,1100,o),
(604,1100,cs),
(730,1100,l),
(730,1400,l),
(604,1400,ls),
(410,1400,o),
(254,1242,o),
(254,1050,cs),
(254,804,ls),
(254,750,o),
(120,720,o),
(120,644,cs),
(120,560,o),
(254,546,o),
(254,482,cs),
(254,238,ls),
(254,44,o),
(410,-112,o),
(604,-112,cs)
);
}
);
width = 830;
},
{
hints = (
{
horizontal = 1;
origin = (0,33);
target = (0,2);
type = Stem;
},
{
horizontal = 1;
origin = (0,19);
target = (0,16);
type = Stem;
},
{
origin = (0,30);
target = (0,5);
type = Stem;
}
);
layerId = "9AF1F7D9-E035-453E-B2A8-46DE370997D0";
shapes = (
{
closed = 1;
nodes = (
(690,-114,l),
(690,-54,l),
(642,-54,ls),
(482,-54,o),
(352,76,o),
(352,236,cs),
(352,484,l),
(348,570,o),
(328,574,o),
(212,642,c),
(324,708,o),
(348,716,o),
(352,802,c),
(352,1050,ls),
(352,1210,o),
(484,1340,o),
(642,1340,cs),
(690,1340,l),
(690,1400,l),
(642,1400,ls),
(448,1400,o),
(292,1242,o),
(292,1050,cs),
(292,804,l),
(286,704,o),
(120,734,o),
(120,642,cs),
(120,558,o),
(286,582,o),
(292,482,c),
(292,236,ls),
(292,44,o),
(448,-114,o),
(642,-114,cs)
);
}
);
width = 790;
}
);
unicode = 123;
},
{
glyphname = braceright;
kernLeft = braceright;
kernRight = braceright;
lastChange = "2022-05-07 00:44:13 +0000";
layers = (
{
hints = (
{
horizontal = 1;
origin = (0,33);
target = (0,32);
type = Stem;
},
{
horizontal = 1;
origin = (0,15);
target = (0,16);
type = Stem;
},
{
origin = (0,28);
target = (0,3);
type = Stem;
},
{
origin = (0,24);
target = (0,3);
type = Stem;
}
);
layerId = "10BC12B3-5274-42E3-B5BC-F74F362F0DF4";
shapes = (
{
closed = 1;
nodes = (
(226,-112,ls),
(420,-112,o),
(576,44,o),
(576,238,cs),
(576,482,ls),
(576,546,o),
(710,560,o),
(710,644,cs),
(710,720,o),
(576,750,o),
(576,804,cs),
(576,1050,ls),
(576,1242,o),
(420,1400,o),
(226,1400,cs),
(100,1400,l),
(100,1100,l),
(226,1100,ls),
(254,1100,o),
(276,1078,o),
(276,1050,cs),
(276,794,l),
(280,732,o),
(358,698,o),
(358,644,cs),
(358,584,o),
(280,558,o),
(276,494,c),
(276,238,ls),
(276,210,o),
(254,188,o),
(226,188,cs),
(100,188,l),
(100,-112,l)
);
}
);
width = 830;
},
{
hints = (
{
horizontal = 1;
origin = (0,33);
target = (0,32);
type = Stem;
},
{
horizontal = 1;
origin = (0,15);
target = (0,16);
type = Stem;
},
{
origin = (0,28);
target = (0,3);
type = Stem;
}
);
layerId = "9AF1F7D9-E035-453E-B2A8-46DE370997D0";
shapes = (
{
closed = 1;
nodes = (
(148,-114,ls),
(342,-114,o),
(498,44,o),
(498,236,cs),
(498,482,l),
(504,582,o),
(670,558,o),
(670,642,cs),
(670,734,o),
(504,704,o),
(498,804,c),
(498,1050,ls),
(498,1242,o),
(342,1400,o),
(148,1400,cs),
(100,1400,l),
(100,1340,l),
(148,1340,ls),
(306,1340,o),
(438,1210,o),
(438,1050,cs),
(438,802,l),
(442,716,o),
(466,708,o),
(578,642,c),
(462,574,o),
(442,570,o),
(438,484,c),
(438,236,ls),
(438,76,o),
(308,-54,o),
(148,-54,cs),
(100,-54,l),
(100,-114,l)
);
}
);
width = 790;
}
);
unicode = 125;
},
{
glyphname = bracketleft;
kernLeft = bracketleft;
kernRight = bracketleft;
lastChange = "2022-05-07 00:44:13 +0000";
layers = (
{
hints = (
{
horizontal = 1;
origin = (0,5);
target = (0,0);
type = Stem;
},
{
horizontal = 1;
origin = (0,4);
target = (0,1);
type = Stem;
},
{
origin = (0,5);
target = (0,6);
type = Stem;
},
{
origin = (0,5);
target = (0,0);
type = Stem;
}
);
layerId = "10BC12B3-5274-42E3-B5BC-F74F362F0DF4";
shapes = (
{
closed = 1;
nodes = (
(420,188,l),
(420,1100,l),
(596,1100,l),
(596,1400,l),
(120,1400,l),
(120,-112,l),
(596,-112,l),
(596,188,l)
);
}
);
width = 696;
},
{
hints = (
{
horizontal = 1;
origin = (0,5);
target = (0,0);
type = Stem;
},
{
horizontal = 1;
origin = (0,4);
target = (0,1);
type = Stem;
},
{
origin = (0,5);
target = (0,0);
type = Stem;
}
);
layerId = "9AF1F7D9-E035-453E-B2A8-46DE370997D0";
shapes = (
{
closed = 1;
nodes = (
(180,-52,l),
(180,1340,l),
(360,1340,l),
(360,1400,l),
(120,1400,l),
(120,-112,l),
(360,-112,l),
(360,-52,l)
);
}
);
width = 460;
}
);
unicode = 91;
},
{
glyphname = bracketright;
kernLeft = bracketright;
kernRight = bracketright;
lastChange = "2022-05-07 00:44:13 +0000";
layers = (
{
hints = (
{
horizontal = 1;
origin = (0,7);
target = (0,6);
type = Stem;
},
{
horizontal = 1;
origin = (0,2);
target = (0,3);
type = Stem;
},
{
origin = (0,7);
target = (0,0);
type = Stem;
},
{
origin = (0,5);
target = (0,0);
type = Stem;
}
);
layerId = "10BC12B3-5274-42E3-B5BC-F74F362F0DF4";
shapes = (
{
closed = 1;
nodes = (
(578,-112,l),
(578,1400,l),
(100,1400,l),
(100,1100,l),
(278,1100,l),
(278,188,l),
(100,188,l),
(100,-112,l)
);
}
);
width = 698;
},
{
hints = (
{
horizontal = 1;
origin = (0,7);
target = (0,6);
type = Stem;
},
{
horizontal = 1;
origin = (0,2);
target = (0,3);
type = Stem;
},
{
origin = (0,5);
target = (0,0);
type = Stem;
}
);
layerId = "9AF1F7D9-E035-453E-B2A8-46DE370997D0";
shapes = (
{
closed = 1;
nodes = (
(340,-112,l),
(340,1400,l),
(100,1400,l),
(100,1340,l),
(280,1340,l),
(280,-52,l),
(100,-52,l),
(100,-112,l)
);
}
);
width = 460;
}
);
unicode = 93;
},
{
glyphname = quoteleft;
kernLeft = quoteleft;
kernRight = quoteleft;
lastChange = "2022-05-07 00:44:13 +0000";
layers = (
{
hints = (
{
horizontal = 1;
origin = (0,2);
target = (0,3);
type = Stem;
},
{
origin = (0,3);
target = (0,1);
type = Stem;
}
);
layerId = "10BC12B3-5274-42E3-B5BC-F74F362F0DF4";
shapes = (
{
closed = 1;
nodes = (
(360,878,l),
(422,1400,l),
(222,1400,l),
(60,878,l)
);
}
);
width = 462;
},
{
hints = (
{
horizontal = 1;
origin = (0,2);
target = down;
type = TopGhost;
},
{
origin = (0,3);
target = (0,1);
type = Stem;
}
);
layerId = "9AF1F7D9-E035-453E-B2A8-46DE370997D0";
shapes = (
{
closed = 1;
nodes = (
(120,878,l),
(182,1400,l),
(142,1400,l),
(60,878,l)
);
}
);
width = 222;
}
);
unicode = (8216,699);
},
{
glyphname = quoteright;
kernLeft = quoteright;
kernRight = quoteright;
lastChange = "2022-05-07 00:44:13 +0000";
layers = (
{
hints = (
{
horizontal = 1;
origin = (0,2);
target = (0,3);
type = Stem;
},
{
origin = (0,3);
target = (0,1);
type = Stem;
}
);
layerId = "10BC12B3-5274-42E3-B5BC-F74F362F0DF4";
shapes = (
{
closed = 1;
nodes = (
(240,878,l),
(402,1400,l),
(102,1400,l),
(40,878,l)
);
}
);
width = 462;
},
{
hints = (
{
horizontal = 1;
origin = (0,2);
target = down;
type = TopGhost;
},
{
origin = (0,3);
target = (0,1);
type = Stem;
}
);
layerId = "9AF1F7D9-E035-453E-B2A8-46DE370997D0";
shapes = (
{
closed = 1;
nodes = (
(80,878,l),
(162,1400,l),
(102,1400,l),
(40,878,l)
);
}
);
width = 222;
}
);
unicode = (8217,8242);
},
{
glyphname = guilsinglleft;
kernLeft = guillemotleft;
kernRight = guillemotleft;
lastChange = "2022-05-07 00:44:13 +0000";
layers = (
{
hints = (
{
horizontal = 1;
origin = (0,5);
target = (0,3);
type = Stem;
},
{
origin = (0,4);
target = (0,0);
type = Stem;
}
);
layerId = "10BC12B3-5274-42E3-B5BC-F74F362F0DF4";
shapes = (
{
closed = 1;
nodes = (
(720,261,l),
(422,601,l),
(720,939,l),
(420,939,l),
(120,601,l),
(420,261,l)
);
}
);
width = 820;
},
{
layerId = "9AF1F7D9-E035-453E-B2A8-46DE370997D0";
shapes = (
{
closed = 1;
nodes = (
(500,261,l),
(200,601,l),
(500,939,l),
(420,939,l),
(120,601,l),
(420,261,l)
);
}
);
width = 600;
}
);
unicode = 8249;
},
{
glyphname = guilsinglright;
kernLeft = guillemotright;
kernRight = guillemotright;
lastChange = "2022-05-07 00:44:13 +0000";
layers = (
{
hints = (
{
horizontal = 1;
origin = (0,5);
target = (0,3);
type = Stem;
},
{
origin = (0,5);
target = (0,1);
type = Stem;
}
);
layerId = "10BC12B3-5274-42E3-B5BC-F74F362F0DF4";
shapes = (
{
closed = 1;
nodes = (
(400,261,l),
(700,601,l),
(400,939,l),
(100,939,l),
(398,601,l),
(100,261,l)
);
}
);
width = 820;
},
{
layerId = "9AF1F7D9-E035-453E-B2A8-46DE370997D0";
shapes = (
{
closed = 1;
nodes = (
(180,261,l),
(480,601,l),
(180,939,l),
(100,939,l),
(400,601,l),
(100,261,l)
);
}
);
width = 600;
}
);
unicode = 8250;
},
{
glyphname = primeReversed;
kernLeft = primeReversed;
kernRight = primeReversed;
lastChange = "2022-05-07 00:44:13 +0000";
layers = (
{
hints = (
{
horizontal = 1;
origin = (0,2);
target = (0,3);
type = Stem;
},
{
origin = (0,2);
target = (0,0);
type = Stem;
}
);
layerId = "10BC12B3-5274-42E3-B5BC-F74F362F0DF4";
shapes = (
{
closed = 1;
nodes = (
(482,878,l),
(420,1400,l),
(120,1400,l),
(282,878,l)
);
}
);
width = 602;
},
{
hints = (
{
horizontal = 1;
origin = (0,2);
target = down;
type = TopGhost;
},
{
origin = (0,2);
target = (0,0);
type = Stem;
}
);
layerId = "9AF1F7D9-E035-453E-B2A8-46DE370997D0";
shapes = (
{
closed = 1;
nodes = (
(242,878,l),
(180,1400,l),
(120,1400,l),
(202,878,l)
);
}
);
width = 362;
}
);
unicode = 8245;
},
{
glyphname = quotesingle;
kernLeft = quotesingle;
kernRight = quotesingle;
lastChange = "2022-05-07 00:44:13 +0000";
layers = (
{
hints = (
{
horizontal = 1;
origin = (0,2);
target = (0,3);
type = Stem;
},
{
origin = (0,3);
target = (0,0);
type = Stem;
}
);
layerId = "10BC12B3-5274-42E3-B5BC-F74F362F0DF4";
shapes = (
{
closed = 1;
nodes = (
(260,878,l),
(260,1400,l),
(60,1400,l),
(60,878,l)
);
}
);
width = 320;
},
{
hints = (
{
horizontal = 1;
origin = (0,2);
target = down;
type = TopGhost;
},
{
origin = (0,3);
target = (0,0);
type = Stem;
}
);
layerId = "9AF1F7D9-E035-453E-B2A8-46DE370997D0";
shapes = (
{
closed = 1;
nodes = (
(140,878,l),
(140,1400,l),
(80,1400,l),
(80,878,l)
);
}
);
width = 220;
}
);
unicode = 39;
},
